<svg xmlns="http://www.w3.org/2000/svg" width="240.672" height="234.029" viewBox="0 0 240.672 234.029">
  <g id="_19" data-name="19" transform="translate(-51.266 -516.43)">
    <path id="Path_494" data-name="Path 494" d="M141.573,516.515l.015,0C141.452,516.4,141.453,516.406,141.573,516.515Z" fill="#f0f1f1"/>
    <path id="Path_495" data-name="Path 495" d="M80.671,584.594c-.032-.139-.208-.234-.456-.3-.447.539-.89,1.073-1.331,1.607C79.243,585.606,82.283,584.829,80.671,584.594Z" fill="#f0f1f1"/>
    <path id="Path_496" data-name="Path 496" d="M81.673,582.539l-.754.908c4.817-.778,1.269-2.2,3.81-3.371a1.293,1.293,0,0,1-.834-.211q-1.107,1.332-2.2,2.647c.189-.079.378-.159.555-.241Z" fill="#f0f1f1"/>
    <path id="Path_497" data-name="Path 497" d="M203.119,571.137c-.508-.512-3.411.086-4.413.247q.623.525,1.246,1.054C201.329,572.338,202.728,572.264,203.119,571.137Z" fill="#f0f1f1"/>
    <path id="Path_498" data-name="Path 498" d="M252.058,613.9a15.236,15.236,0,0,0-3.052.058l.887.752C250.051,614.432,250.622,614.162,252.058,613.9Z" fill="#f0f1f1"/>
    <path id="Path_499" data-name="Path 499" d="M98,563.9c-.317.412,1.462.906-1.324,1.664l1.146.019c6.136-7.164,12.278-14.177,17.9-20.422-.916-.336-1.634-.7-.321-1.72,1.687.008.818-.114.934.362.254-.036.469-.057.677-.074,11.815-13.066,21.062-22.407,22.571-21.979-.773-.823,8.795,7.174,23.408,19.482a2.965,2.965,0,0,1,1.616-1.847l-.776.351c-2.662-.609,2.62-1.475,1.6-2.318-4.19.1-1.334-2.283-5.8-1.535,6.4-1.114.3-1.7,1.694-2.337l-.951-.818c-.694.091-1.387.2-1.807.22-4.121-1.521-.85-1.98-3.623-3.071,2.361-.433-1.756-1.159-.444-2.2l-2.919-2.513-.992.138c.279-.1.562-.186.844-.265-2.523-2.173-4.63-3.988-6.245-5.384.228.326.295.627-1.163.769-2.787.76-2.373-1.27-5,.206-.1-.476,2.305-1.064,3.614-.878-2.776-.181,2.5-1.385,0-1.49l-.75-.005c.312-.007.549,0,.75.005l.943.007c-1.086-.941-1.775-1.54-2.005-1.746-3.14-.053-23.274,22.6-43.718,46.723l.038.176-.225.046q-.518.609-1.034,1.221C97.317,564.575,97.855,564.358,98,563.9Z" fill="#f0f1f1"/>
    <path id="Path_500" data-name="Path 500" d="M204.942,573.723c-5.778,1.161-.76-1.224-4.689-1.032l2.2,1.862A14.276,14.276,0,0,1,204.942,573.723Z" fill="#f0f1f1"/>
    <path id="Path_501" data-name="Path 501" d="M276.027,632.314l-.355-.309c-.207.1-.551.24-1.016.456A10.041,10.041,0,0,0,276.027,632.314Z" fill="#f0f1f1"/>
    <path id="Path_502" data-name="Path 502" d="M90.667,574.012q1.47-1.748,2.955-3.5c-.563-.084-.82-.194.582-.687l.219-.257a4.214,4.214,0,0,0-2.06.175q-1.816,2.161-3.617,4.311C89.4,574.014,90.036,574.009,90.667,574.012Z" fill="#f0f1f1"/>
    <path id="Path_503" data-name="Path 503" d="M187.608,562c2.031-.235,4.11-.435,5.181-1.4l-.36-.31-.917.126.792-.233c-4.51-3.878-8.89-7.645-13.063-11.232-.818,1.26-2.039,2.578-2.79,3.627C180.029,555.6,183.765,558.755,187.608,562Z" fill="#f0f1f1"/>
    <path id="Path_504" data-name="Path 504" d="M175.248,666.206l-.694-.591A.688.688,0,0,0,175.248,666.206Z" fill="#f0f1f1"/>
    <path id="Path_505" data-name="Path 505" d="M178.358,548.193c-.259-.223-.521-.447-.778-.67a9.3,9.3,0,0,0-.487.846Z" fill="#f0f1f1"/>
    <path id="Path_506" data-name="Path 506" d="M176.681,546.751c-.231-.2-.464-.4-.694-.6l-.459.827Z" fill="#f0f1f1"/>
    <path id="Path_507" data-name="Path 507" d="M173.166,543.86l.124-.024-2.495-2.145c-2.561.711-5.025,1.643-2.26,2.2l1.083-.3a3.4,3.4,0,0,1,1.717-.47l-1.717.47c-.495.392-.118.906-.871,1.257l2.489-.106c.56.079.081.848-.441,1.446-.078.088-.156.173-.233.252a2.562,2.562,0,0,1-.521.446c.169-.144.361-.3.521-.446.077-.079.155-.164.233-.252.261-.357.094-.627-1.443-.565-.25.062-.558.137-.883.219l2.06,1.737c1.366.043,2.541.229,3.9.173,1.741-1.316-1.641-.995,1.367-1.762l-2.061-1.772C173.423,544.145,173.205,544.029,173.166,543.86Z" fill="#f0f1f1"/>
    <path id="Path_508" data-name="Path 508" d="M171.058,664.871a11.733,11.733,0,0,1,1.988-.537c-2.708-2.3-4.419-3.754-4.663-3.955,1.246,1.051-.869,3.309-.328,3.765-.022-.02.952.808,2.666,2.268C171.936,665.82,172.759,664.933,171.058,664.871Z" fill="#f0f1f1"/>
    <path id="Path_509" data-name="Path 509" d="M208.687,575.418a4.018,4.018,0,0,0,1.26-.062q-.906-.78-1.812-1.558C207.707,574.271,207.661,574.781,208.687,575.418Z" fill="#f0f1f1"/>
    <path id="Path_510" data-name="Path 510" d="M78.874,585.916l-.035.042h.01C78.846,585.946,78.858,585.932,78.874,585.916Z" fill="#f0f1f1"/>
    <path id="Path_511" data-name="Path 511" d="M170.851,666.521l.026.023c.04-.019.07-.036.111-.056Z" fill="#f0f1f1"/>
    <path id="Path_512" data-name="Path 512" d="M170.518,541.452l-.072-.061c-.09.054-.191.113-.309.176C170.255,541.528,170.383,541.49,170.518,541.452Z" fill="#f0f1f1"/>
    <path id="Path_513" data-name="Path 513" d="M155.158,678.918c-.009.01-.2.1-.458.233.168-.067.334-.133.5-.2Z" fill="#f0f1f1"/>
    <path id="Path_514" data-name="Path 514" d="M202.28,719.2l-.745-.637-1.69.786A6.711,6.711,0,0,0,202.28,719.2Z" fill="#f0f1f1"/>
    <path id="Path_515" data-name="Path 515" d="M169.648,540.7q-.725-.622-1.436-1.234a3.89,3.89,0,0,0-1.335.7C166.125,540.95,168.183,540.748,169.648,540.7Z" fill="#f0f1f1"/>
    <path id="Path_516" data-name="Path 516" d="M208.352,724.386l-.7-.6a14.021,14.021,0,0,0-2.253.131c-.2.1-.437.2-.71.311a1.642,1.642,0,0,1,.71-.311c2.947-1.429-1.238-1.68-2.642-2.75a5.343,5.343,0,0,0,1.439-.335l-1.08-.923a29.148,29.148,0,0,0-3.831.771c2.165,1.843,4.167,3.549,5.941,5.056a7.8,7.8,0,0,1,.962-.358c-.056.144-.375.317-.793.5l1.411,1.2C208.244,726.137,208.676,725.187,208.352,724.386Z" fill="#f0f1f1"/>
    <path id="Path_517" data-name="Path 517" d="M201.048,718.144q-.639-.549-1.3-1.11C199.343,717.632,198.242,718.148,201.048,718.144Z" fill="#f0f1f1"/>
    <path id="Path_518" data-name="Path 518" d="M207.416,727.6c1.065.9,2.008,1.705,2.8,2.379.89-.434,2.8-.739,1.777-1.223-2.014.4-2.891.285-3.425-.266,1.3.193,5.326-.619,3.425.266l1.2-.224q-.7-.593-1.607-1.373l-.687.516C209.792,727.663,208.65,727.554,207.416,727.6Z" fill="#f0f1f1"/>
    <path id="Path_519" data-name="Path 519" d="M217.275,727.27l-.5.621C217.372,727.646,217.38,727.452,217.275,727.27Z" fill="#f0f1f1"/>
    <path id="Path_520" data-name="Path 520" d="M155.83,683.563a1.613,1.613,0,0,1,1.046.9c3.1,2.656,7.818,6.7,13.241,11.33,1.484-.936,3.995-2.483.117-2.041l1.856-.354-13.046-11.152a7.9,7.9,0,0,0-3.493,1.08C155.643,683.4,155.734,683.48,155.83,683.563Z" fill="#f0f1f1"/>
    <path id="Path_521" data-name="Path 521" d="M197.708,719.337c.188-.941-.1-2.039,1.422-2.833l-1.237-1.058a7.3,7.3,0,0,0-3.338,1.2Z" fill="#f0f1f1"/>
    <path id="Path_522" data-name="Path 522" d="M173.42,694.53l-.212-.18c-1.887.449-1.622,1.083-2.91,1.6,6.722,5.745,14.489,12.376,21.553,18.4l2.206-.237a5.036,5.036,0,0,0-.4-2.28l-18.886-16.14C173.827,695.4,173.052,695.062,173.42,694.53Z" fill="#f0f1f1"/>
    <path id="Path_523" data-name="Path 523" d="M211.187,577.17l-3.157.934c1.795.092,1,.733.3,1.417l.546.46a11.758,11.758,0,0,1,3.213-.6l-2.289,1.06-.547-.541c-.133.035-.231.066-.351.1l2.953,2.5.5-.07-.264.27,2.659,2.249.127-.531,1.255-.046,1.1-.775c2.319.13-.806,1.018-2.219,1.573l1.144.968.241-.571,3.408,2.115.386-.177c.8.584.5,1.423.224,2.237,9.9,8.376,19.64,16.626,28.528,24.151,2.243-.328.676-1.329.188-1.807.682-.474.863-1.015,1.737-1.509C240.3,601.473,228.6,591.4,216.888,581.326a7.617,7.617,0,0,1-2.64.222c1.687-1.186,1.332-.333,2.537-.31q-2.919-2.509-5.831-5.016C210.182,576.645,209.518,577.041,211.187,577.17Zm5.718,5-1.143.529,2.611.376-3.491-.5Z" fill="#f0f1f1"/>
    <path id="Path_524" data-name="Path 524" d="M79.3,641.636l-1.844-1.65a3.068,3.068,0,0,0-.979.368c-.533-.25-.195-.64.253-1.018C63.528,627.5,55.3,619.615,56.709,619.71c-1.024-.183.839-3.5,4.6-8.8a4.218,4.218,0,0,0-.72.069,8.624,8.624,0,0,1-1.017.276,6.681,6.681,0,0,1,1.017-.276c1.024-.358.917-.69.51-.879-.7.084-1.185.1-.983-.153a1.955,1.955,0,0,1,.983.153c.265-.032.564-.074.869-.116,1.12-1.557,2.39-3.27,3.781-5.108-1.323.354-1.292.877-3.029.764L61.613,607l2.063-.03-1.589.47-.66-.21c-6.2,7.673-10.083,12.626-9.991,12.75-.506.055.135,1.045,1.732,2.8l3.321-.613-.1-.477c2.229.55,1.505,2.994.449,4.013-1.19-.738-.312-2.261-3.3-2.526,3.707,4,11.721,11.475,22.223,20.885C76.638,643.337,78.784,642.477,79.3,641.636Z" fill="#f0f1f1"/>
    <path id="Path_525" data-name="Path 525" d="M136.23,696.439l.025.021a.23.23,0,0,1,.019-.025Z" fill="#f0f1f1"/>
    <path id="Path_526" data-name="Path 526" d="M178.964,731.651l-.2.092.908.735C180.006,732.1,179.94,731.794,178.964,731.651Z" fill="#f0f1f1"/>
    <path id="Path_527" data-name="Path 527" d="M198.345,747.059c.065.046.132.095.2.142a2.26,2.26,0,0,0,1.067-.055c-.32.119-.574.2-.782.26,2.686,1.939,4.412,3.023,4.944,3.053-.561-.095-.285-1.1.673-2.838-.965-.1-2.531-.213-1.525-.683a6.355,6.355,0,0,0,1.856.1c3.277-5.624,12.476-17.581,23.747-31.369.562.481.9.777.982.847-.028-.006.126-3.974,2.186-2.15-.078-.077-.506-.451-1.222-1.07,4.16-5.062,8.559-10.324,13.022-15.582.894-.3,2.233-.993,1.615-1.9l.793-.927c-.369-.049-.713-.089-.972-.126a12.325,12.325,0,0,0,1.287-.243c3.949-4.625,7.913-9.211,11.77-13.608.55.468.872.741.914.778-.2-.232,1.043-3.155,2.517-1.915-.015-.018-.509-.445-1.381-1.193,4.671-5.3,9.144-10.271,13.193-14.658.361.308.6.509.675.578-.357-.23,1.521-2.743,1.863-2.479-.065-.054-.218-.184-.434-.368,8.895-9.534,15.35-15.741,16.608-15.4-.563-.6-6.138-5.479-14.833-13.015-.35.037-.691.076-1.012.121.174-1.134-3.454-.5-2.047-1.685.612.031,1.042.051,1.339.074-5.658-4.9-12.477-10.79-20.007-17.284-1.309.495-2.8.958-4.13,1.38,20.374,17.252,35.746,30.27,37.152,31.422-1.468-.067-6.906,5.184-14.371,13.276-10.179-8.664-60.873-51.916-60.48-51.482-.091-.137-.308.393-.637.949.005.026.007.054.012.081a.246.246,0,0,1,.051.265c-.018-.088-.035-.176-.051-.265-.01-.013-.025-.026-.036-.038-.449.748-1.1,1.513-1.928.738.07.159,50.283,42.906,60.982,52.031-3.966,4.357-8.4,9.38-13.069,14.761-8.068-6.906-33.484-28.572-48.2-41.126-.052.3-.445.625-.632.852-1.664-.017-1.032-.846-.315-1.439a2.923,2.923,0,0,1,.35.077c-6.23-5.316-10.39-8.871-10.212-8.732-2.081-1.739-1.8,2.531-3.4,1.159.382.364,11.668,10.01,24.541,21,.03-.01.049-.02.081-.03a20.452,20.452,0,0,0,3.442.256c.414.412-.433.948-1.486,1.513,13.627,11.63,28.457,24.275,33.793,28.823-4.161,4.821-8.467,9.878-12.744,14.95-4.808-4.084-32.482-27.69-48.335-41.174l-.192.069.139-.115c-6.826-5.806-11.449-9.726-11.078-9.374-1.575-1.429-1.369,2.772-2.379,2.021-.258-.3,53.117,45.256,59.83,50.965-4.328,5.148-8.594,10.27-12.626,15.144-7.885-6.782-34.682-29.61-50.042-42.678l-1.76.245c1.542.227-.106,1.093-.677,1.744l.138.117c1.675-.645,2.331.245,3.517.2-1.467.553-1.522,1.154-1.235,1.748l2.135,1.818c1.677-.255,1.062-1.046,1.695-1.342-.98,1.249,2.754,1.1.946,2.464.033,0,.069.005.1.007l1.1-.3c.042.227-.64.334-1.1.3l-1.072.3c15.277,13.012,37.54,31.98,44.294,37.754-3.481,4.219-6.75,8.209-9.689,11.818.756.285.443.946-1.073,1.32-.592.728-1.175,1.446-1.736,2.138l-1.051-.9-.827.9c-2.22.484-1.682.7-2.01.656,1.158.978,1.868,1.573,2,1.673-5.885,7.291-9.574,12-9.485,12.121-.593.06-2.744-1.274-6.1-3.7-1.093.014-1.862-.155-1.942-.512l1.538.219c-1.863-1.355-4.077-3.028-6.585-4.969-.752.425-1.705.755-2.46,1.109,1.828.728,2.79,1.337,3.722,1.7l-.869-.127c-1.029.377-1.907.739-2.667,1.091,3.682,2.9,6.834,5.329,9.328,7.168l.552-.258C198.42,746.418,198.207,746.82,198.345,747.059Zm22.6-98.434-.045-.241,3.3-.215Zm-25.993,94.612,1.872-1.126-.132,1.378Z" fill="#f0f1f1"/>
    <path id="Path_528" data-name="Path 528" d="M133.385,690.766l-2.772.463c-.136.029-.289.055-.435.084l.746.631C132.3,691.742,133.537,691.48,133.385,690.766Z" fill="#f0f1f1"/>
    <path id="Path_529" data-name="Path 529" d="M133.688,688.776c-18.209-15.444-36.7-31.436-51.018-44.14a11.983,11.983,0,0,0-1.462,1.969c-1.206.291-.451,1.791.948,2.459a3.767,3.767,0,0,1-.577.193l.474.42c.067-.046.149-.081.209-.131,1.151.239,1.045.472.44.706,13.841,12.256,30.734,26.847,47.466,41.051l.445-.074C133.724,690.561,133.565,689.47,133.688,688.776Z" fill="#f0f1f1"/>
    <path id="Path_530" data-name="Path 530" d="M140.127,696.608l-.8.111,1.945-.641-1.395-.67a7.4,7.4,0,0,1,1.945.246l-1.7-1.434a14.732,14.732,0,0,1-4.791,1.457h0c2.052-.377,1.4.221.944.757.389-.022.543.037.234.238l1.348,1.14C139.387,697.5,141.128,697.079,140.127,696.608Z" fill="#f0f1f1"/>
    <path id="Path_531" data-name="Path 531" d="M138,697.931l.162.137c.057-.033.117-.067.163-.1C138.233,697.958,138.117,697.943,138,697.931Z" fill="#f0f1f1"/>
    <path id="Path_532" data-name="Path 532" d="M142.488,696.217c.03.738-1.793,1.855-3.171,2.828l1.151.971a5.053,5.053,0,0,0,2.481-.223,5.781,5.781,0,0,1-2,.625c5.378,4.531,10.664,8.958,15.749,13.187l1.95.284c.025.1-.615.116-1.389.182,7.475,6.215,14.5,11.995,20.722,17.033.826-.631,4.148-.69,5.521-1.076C172.4,721.187,157.811,709.127,142.488,696.217Z" fill="#f0f1f1"/>
    <path id="Path_533" data-name="Path 533" d="M70.889,595.716c1.133-.372,1.122-.833.964-1.281q-1.794,2.186-3.481,4.251l.418.9,1.26-.305c.32-.409.64-.818.968-1.235l-.912-.132c.755-.345,1.972-.644,1.49-.945l.228.056c2.435-3.082,5.071-6.358,7.845-9.758a12.371,12.371,0,0,1-1.5-.5q-2.349,2.839-4.578,5.55C75.212,593.3,72.335,595.285,70.889,595.716Z" fill="#f0f1f1"/>
    <path id="Path_534" data-name="Path 534" d="M155.158,678.918h0C155.126,678.89,155.133,678.9,155.158,678.918Z" fill="#f0f1f1"/>
  </g>
</svg>
