<svg xmlns="http://www.w3.org/2000/svg" width="10.5" height="14.007" viewBox="0 0 10.5 14.007">
  <path id="Path_1023" data-name="Path 1023" d="M5.25-12.25a5.067,5.067,0,0,1,2.625.711A5.35,5.35,0,0,1,9.789-9.625,5.067,5.067,0,0,1,10.5-7a4.88,4.88,0,0,1-.191,1.422A8.213,8.213,0,0,1,9.57-3.992q-.383.656-1.586,2.57L6.371,1.121a1.253,1.253,0,0,1-.684.561,1.31,1.31,0,0,1-.875,0,1.253,1.253,0,0,1-.684-.561L2.516-1.422Q1.313-3.336.93-3.965A8.842,8.842,0,0,1,.191-5.578,4.88,4.88,0,0,1,0-7,5.067,5.067,0,0,1,.711-9.625a5.35,5.35,0,0,1,1.914-1.914A5.067,5.067,0,0,1,5.25-12.25ZM5.25.438,6.973-2.3q1.094-1.75,1.449-2.324a7.617,7.617,0,0,0,.615-1.285A3.564,3.564,0,0,0,9.188-7a3.8,3.8,0,0,0-.533-1.969A4.013,4.013,0,0,0,7.219-10.4a3.8,3.8,0,0,0-1.969-.533,3.8,3.8,0,0,0-1.969.533A4.013,4.013,0,0,0,1.846-8.969,3.8,3.8,0,0,0,1.313-7a3.7,3.7,0,0,0,.15,1.107,6.634,6.634,0,0,0,.643,1.3q.328.574,1.422,2.324Q4.566-.656,5.25.438ZM3.063-7a2.106,2.106,0,0,0,.643,1.545,2.106,2.106,0,0,0,1.545.643,2.106,2.106,0,0,0,1.545-.643A2.106,2.106,0,0,0,7.438-7a2.106,2.106,0,0,0-.643-1.545A2.106,2.106,0,0,0,5.25-9.187a2.106,2.106,0,0,0-1.545.643A2.106,2.106,0,0,0,3.063-7Z" transform="translate(0 12.25)" fill="#c31126"/>
</svg>
