<svg xmlns="http://www.w3.org/2000/svg" width="50" height="50" viewBox="0 0 50 50"><g transform="translate(-905 -492)"><path d="M8.941-16.816a.6.6,0,0,1,.369-.123.443.443,0,0,1,.328.123L18.211-8.2a.39.39,0,0,1,.164.328.39.39,0,0,1-.164.328L9.639,1.066a.443.443,0,0,1-.328.123.6.6,0,0,1-.369-.123l-.82-.82A.443.443,0,0,1,8-.082a.6.6,0,0,1,.123-.369l6.357-6.357H.492a.475.475,0,0,1-.349-.144A.475.475,0,0,1,0-7.3V-8.449A.475.475,0,0,1,.144-8.8a.475.475,0,0,1,.349-.144H14.479L8.121-15.3A.6.6,0,0,1,8-15.668.443.443,0,0,1,8.121-16Z" transform="translate(921 525)" fill="#24549d"/><g transform="translate(905 492)" fill="none" stroke="#24549d" stroke-width="1"><rect width="50" height="50" rx="25" stroke="none"/><rect x="0.5" y="0.5" width="49" height="49" rx="24.5" fill="none"/></g></g></svg>