<svg xmlns="http://www.w3.org/2000/svg" width="12.25" height="12.086" viewBox="0 0 12.25 12.086">
  <path id="Path_1030" data-name="Path 1030" d="M5.961-11.211a.4.4,0,0,1,.246-.082.3.3,0,0,1,.219.082l5.715,5.742a.26.26,0,0,1,.109.219.26.26,0,0,1-.109.219L6.426.711a.3.3,0,0,1-.219.082A.4.4,0,0,1,5.961.711L5.414.164a.3.3,0,0,1-.082-.219A.4.4,0,0,1,5.414-.3L9.652-4.539H.328a.316.316,0,0,1-.232-.1A.316.316,0,0,1,0-4.867v-.766a.316.316,0,0,1,.1-.232.316.316,0,0,1,.232-.1H9.652L5.414-10.2a.4.4,0,0,1-.082-.246.3.3,0,0,1,.082-.219Z" transform="translate(0 11.293)" fill="#fff"/>
</svg>
