<svg xmlns="http://www.w3.org/2000/svg" width="50" height="50" viewBox="0 0 50 50"><g transform="translate(-905 -492)"><path d="M9.434,1.066a.6.6,0,0,1-.369.123.443.443,0,0,1-.328-.123L.164-7.547A.39.39,0,0,1,0-7.875.39.39,0,0,1,.164-8.2l8.572-8.613a.443.443,0,0,1,.328-.123.6.6,0,0,1,.369.123l.82.82a.443.443,0,0,1,.123.328.6.6,0,0,1-.123.369L3.9-8.941H17.883a.475.475,0,0,1,.349.144.475.475,0,0,1,.144.349V-7.3a.475.475,0,0,1-.144.349.475.475,0,0,1-.349.144H3.9L10.254-.451a.6.6,0,0,1,.123.369.443.443,0,0,1-.123.328Z" transform="translate(921 525)" fill="#24549d"/><g transform="translate(905 492)" fill="none" stroke="#24549d" stroke-width="1"><rect width="50" height="50" rx="25" stroke="none"/><rect x="0.5" y="0.5" width="49" height="49" rx="24.5" fill="none"/></g></g></svg>