<svg xmlns="http://www.w3.org/2000/svg" xmlns:xlink="http://www.w3.org/1999/xlink" width="83" height="83" viewBox="0 0 83 83">
  <defs>
    <linearGradient id="linear-gradient" x1="0.151" y1="0.165" x2="0.816" y2="0.906" gradientUnits="objectBoundingBox">
      <stop offset="0" stop-color="#c2e4f8"/>
      <stop offset="1" stop-color="#458aba"/>
    </linearGradient>
  </defs>
  <g id="Group_5026" data-name="Group 5026" transform="translate(3473 21018)">
    <g id="Rectangle_1116" data-name="Rectangle 1116" transform="translate(-3470 -21015)" fill="none" stroke="#24549d" stroke-width="1" stroke-dasharray="5">
      <rect width="80" height="80" rx="40" stroke="none"/>
      <rect x="0.5" y="0.5" width="79" height="79" rx="39.5" fill="none"/>
    </g>
    <rect id="Rectangle_932" data-name="Rectangle 932" width="80" height="80" rx="40" transform="translate(-3473 -21018)" fill="url(#linear-gradient)"/>
    <path id="Group_5256" data-name="Group 5256" d="M15.647,34.9a1.2,1.2,0,0,1-2.407,0V24.454l-3.592-1.88L4.741,35.333a1.2,1.2,0,0,1-1.128.772,1.225,1.225,0,0,1-.432-.08,1.2,1.2,0,0,1-.69-1.555L7.5,21.445,5.351,20.321.243,33.6a3.61,3.61,0,0,0,2.076,4.663,3.571,3.571,0,0,0,1.294.244A3.61,3.61,0,0,0,6.984,36.2L10.8,26.282l.037.018v8.6a3.61,3.61,0,0,0,7.221,0V26.975l-2.407-1.261ZM23.4,31.29a2.407,2.407,0,0,0-2.283,1.645l-1.859,5.576h24.07L35.66,22.992a2.407,2.407,0,0,0-4.217-.162l-2.708,4.618-1.108-.572a3.51,3.51,0,0,0-.159-1.63c-.764-2.117-1.389-3.9-1.916-5.4-1.71-4.875-2.636-7.447-4.261-9.228a5.433,5.433,0,1,0-6.475-3.277A10.921,10.921,0,0,0,13.3,7.221H7.825a3.611,3.611,0,0,0-2.773,1.3L2.043,12.13a3.61,3.61,0,0,0,.463,5.085,3.57,3.57,0,0,0,2.675.8L27.512,29.526,26.479,31.29ZM19.859,2.407a3.009,3.009,0,1,1-3.009,3.009A3.009,3.009,0,0,1,19.859,2.407ZM15.436,20.592l2-1.983c.343.923.759,2.093,1.3,3.624l.026.075Zm6.445,3.327c-.317-.9-.615-1.739-.874-2.482a47.5,47.5,0,0,0-2.621-6.682l-4.855,4.854-5.613-2.9,4.68-4.679H8.389L5.741,15.212A1.2,1.2,0,1,1,3.893,13.67L6.5,10.5a2.407,2.407,0,0,1,1.858-.876H13.2a8.659,8.659,0,0,1,3.81.84c3.261,1.595,3.756,3,6.267,10.172.483,1.375,1.058,3.013,1.734,4.889ZM27.857,33.7l.7-1.189L33.5,24.07h.009L39.454,36.1H22.6l.8-2.407Z" transform="translate(-3454.002 -20998)" fill="#fff"/>
  </g>
</svg>
