<svg xmlns="http://www.w3.org/2000/svg" width="14" height="14" viewBox="0 0 14 14"><g transform="translate(-1224 -1620)"><rect width="14" height="14" transform="translate(1224 1620)" fill="none"/><path d="M4.813-10.5a1.266,1.266,0,0,1,.93.383,1.266,1.266,0,0,1,.383.93V.438a1.266,1.266,0,0,1-.383.93,1.266,1.266,0,0,1-.93.383H-4.812a1.266,1.266,0,0,1-.93-.383,1.266,1.266,0,0,1-.383-.93V-9.187a1.266,1.266,0,0,1,.383-.93,1.266,1.266,0,0,1,.93-.383H-3.5v-1.422a.316.316,0,0,1,.1-.232.316.316,0,0,1,.232-.1h.219a.316.316,0,0,1,.232.1.316.316,0,0,1,.1.232V-10.5h5.25v-1.422a.316.316,0,0,1,.1-.232.316.316,0,0,1,.232-.1h.219a.316.316,0,0,1,.232.1.316.316,0,0,1,.1.232V-10.5Zm-9.625.875a.426.426,0,0,0-.314.123.426.426,0,0,0-.123.314v1.313H5.25V-9.187A.426.426,0,0,0,5.127-9.5a.426.426,0,0,0-.314-.123ZM4.813.875A.421.421,0,0,0,5.25.438V-7H-5.25V.438a.426.426,0,0,0,.123.314.426.426,0,0,0,.314.123ZM-2.078-3.5a.316.316,0,0,0,.232-.1.316.316,0,0,0,.1-.232V-4.922a.316.316,0,0,0-.1-.232.316.316,0,0,0-.232-.1H-3.172a.316.316,0,0,0-.232.1.316.316,0,0,0-.1.232v1.094a.316.316,0,0,0,.1.232.316.316,0,0,0,.232.1Zm2.625,0a.316.316,0,0,0,.232-.1.316.316,0,0,0,.1-.232V-4.922a.316.316,0,0,0-.1-.232.316.316,0,0,0-.232-.1H-.547a.316.316,0,0,0-.232.1.316.316,0,0,0-.1.232v1.094a.316.316,0,0,0,.1.232.316.316,0,0,0,.232.1Zm2.625,0A.316.316,0,0,0,3.4-3.6a.316.316,0,0,0,.1-.232V-4.922a.316.316,0,0,0-.1-.232.316.316,0,0,0-.232-.1H2.078a.316.316,0,0,0-.232.1.316.316,0,0,0-.1.232v1.094a.316.316,0,0,0,.1.232.316.316,0,0,0,.232.1ZM.547-.875a.316.316,0,0,0,.232-.1.316.316,0,0,0,.1-.232V-2.3a.316.316,0,0,0-.1-.232.316.316,0,0,0-.232-.1H-.547a.316.316,0,0,0-.232.1.316.316,0,0,0-.1.232V-1.2a.316.316,0,0,0,.1.232.316.316,0,0,0,.232.1Zm-2.625,0a.316.316,0,0,0,.232-.1.316.316,0,0,0,.1-.232V-2.3a.316.316,0,0,0-.1-.232.316.316,0,0,0-.232-.1H-3.172a.316.316,0,0,0-.232.1.316.316,0,0,0-.1.232V-1.2a.316.316,0,0,0,.1.232.316.316,0,0,0,.232.1Zm5.25,0a.316.316,0,0,0,.232-.1A.316.316,0,0,0,3.5-1.2V-2.3a.316.316,0,0,0-.1-.232.316.316,0,0,0-.232-.1H2.078a.316.316,0,0,0-.232.1.316.316,0,0,0-.1.232V-1.2a.316.316,0,0,0,.1.232.316.316,0,0,0,.232.1Z" transform="translate(1231.125 1632.25)" fill="#24549d"/></g></svg>