<svg width="30" height="30" viewBox="0 0 30 30" fill="none" xmlns="http://www.w3.org/2000/svg">
<path d="M22.2188 10.5C22.4102 10.5 22.5742 10.582 22.7109 10.7461C22.8477 10.9102 22.9023 11.1016 22.8477 11.293L21.6172 16.9805C21.5625 17.1445 21.4805 17.2539 21.3711 17.3633C21.2617 17.4727 21.125 17.5 20.9883 17.5H12.4297L12.7031 18.8125H20.4141C20.6055 18.8125 20.7695 18.8945 20.9062 19.0586C21.043 19.2227 21.0977 19.4141 21.043 19.6055L21.0156 19.7422C21.3711 20.0977 21.5625 20.5078 21.5625 21C21.5625 21.4922 21.3711 21.9297 21.043 22.2578C20.7148 22.5859 20.3047 22.75 19.8125 22.75C19.3203 22.75 18.8828 22.5859 18.5547 22.2578C18.2266 21.9297 18.0625 21.4922 18.0625 21C18.0625 20.6992 18.1445 20.3984 18.3086 20.125H14.3164C14.4805 20.3984 14.5625 20.6992 14.5625 21C14.5625 21.4922 14.3711 21.9297 14.043 22.2578C13.7148 22.5859 13.3047 22.75 12.8125 22.75C12.3203 22.75 11.8828 22.5859 11.5547 22.2578C11.2266 21.9297 11.0625 21.5195 11.0625 21.0273C11.0625 20.5352 11.2266 20.125 11.5547 19.7969L9.64062 10.0625H7.45312C7.34375 10.0625 7.26172 10.0352 7.20703 9.98047C7.15234 9.92578 7.125 9.84375 7.125 9.73438V9.07812C7.125 8.99609 7.15234 8.91406 7.20703 8.85938C7.26172 8.80469 7.34375 8.75 7.45312 8.75H10.1875C10.3516 8.75 10.4883 8.80469 10.5977 8.91406C10.707 9.02344 10.7891 9.13281 10.8438 9.26953L11.0625 10.5H22.2188ZM12.8125 21.6562C12.9766 21.6562 13.1406 21.6016 13.2773 21.4648C13.3867 21.3555 13.4688 21.1914 13.4688 21C13.4688 20.8359 13.3867 20.6719 13.2773 20.5352C13.1406 20.4258 12.9766 20.3438 12.8125 20.3438C12.6211 20.3438 12.457 20.4258 12.3477 20.5352C12.2109 20.6719 12.1562 20.8359 12.1562 21C12.1562 21.1914 12.2109 21.3555 12.3477 21.4648C12.457 21.6016 12.6211 21.6562 12.8125 21.6562ZM19.8125 21.6562C19.9766 21.6562 20.1406 21.6016 20.2773 21.4648C20.3867 21.3555 20.4688 21.1914 20.4688 21C20.4688 20.8359 20.3867 20.6719 20.2773 20.5352C20.1406 20.4258 19.9766 20.3438 19.8125 20.3438C19.6211 20.3438 19.457 20.4258 19.3477 20.5352C19.2109 20.6719 19.1562 20.8359 19.1562 21C19.1562 21.1914 19.2109 21.3555 19.3477 21.4648C19.457 21.6016 19.6211 21.6562 19.8125 21.6562ZM20.4414 16.1875L21.3984 11.8125H11.3359L12.1836 16.1875H20.4414Z" fill="#24549D"/>
<path d="M29.5 15C29.5 6.99187 23.0081 0.5 15 0.5C6.99187 0.5 0.5 6.99187 0.5 15C0.5 23.0081 6.99187 29.5 15 29.5C23.0081 29.5 29.5 23.0081 29.5 15Z" stroke="#24549D"/>
</svg>
