<svg xmlns="http://www.w3.org/2000/svg" width="15.746" height="14" viewBox="0 0 15.746 14" class="sgp-link-btn__icon-left"><path d="M15.094-10.5a.634.634,0,0,1,.506.246.574.574,0,0,1,.123.547L14.547-4.02a.694.694,0,0,1-.232.369.6.6,0,0,1-.4.15H4.84l.328,1.75h8.094a.675.675,0,0,1,.424.137.628.628,0,0,1,.232.355A1.713,1.713,0,0,1,14.438,0a1.691,1.691,0,0,1-.506,1.244,1.783,1.783,0,0,1-2.488,0A1.691,1.691,0,0,1,10.938,0a1.673,1.673,0,0,1,.246-.875H7.191A1.673,1.673,0,0,1,7.438,0a1.691,1.691,0,0,1-.506,1.244,1.691,1.691,0,0,1-1.244.506,1.691,1.691,0,0,1-1.244-.506A1.659,1.659,0,0,1,3.938.027a1.687,1.687,0,0,1,.465-1.2l-1.914-10.2H.328a.316.316,0,0,1-.232-.1A.316.316,0,0,1,0-11.7v-.219a.316.316,0,0,1,.1-.232.316.316,0,0,1,.232-.1H2.652a.635.635,0,0,1,.424.15.7.7,0,0,1,.232.4l.219,1.2ZM6.563,0A.841.841,0,0,0,6.3-.615a.841.841,0,0,0-.615-.26.841.841,0,0,0-.615.26A.841.841,0,0,0,4.813,0a.841.841,0,0,0,.26.615.858.858,0,0,0,1.23,0A.841.841,0,0,0,6.563,0Zm6.125.875A.841.841,0,0,0,13.3.615.841.841,0,0,0,13.563,0a.841.841,0,0,0-.26-.615.841.841,0,0,0-.615-.26.841.841,0,0,0-.615.26.841.841,0,0,0-.26.615.841.841,0,0,0,.26.615A.841.841,0,0,0,12.688.875Zm1.039-5.25,1.094-5.25H3.691l.984,5.25Z" transform="translate(0 12.25)" fill="#fff"></path></svg>