<svg xmlns="http://www.w3.org/2000/svg" width="13.563" height="13.563" viewBox="0 0 13.563 13.563">
  <path id="Path_1018" data-name="Path 1018" d="M7-12.031a6.573,6.573,0,0,1,3.391.916,6.852,6.852,0,0,1,2.475,2.475,6.573,6.573,0,0,1,.916,3.391,6.573,6.573,0,0,1-.916,3.391A6.852,6.852,0,0,1,10.391.615,6.573,6.573,0,0,1,7,1.531,6.573,6.573,0,0,1,3.609.615,6.852,6.852,0,0,1,1.135-1.859,6.573,6.573,0,0,1,.219-5.25a6.573,6.573,0,0,1,.916-3.391,6.852,6.852,0,0,1,2.475-2.475A6.573,6.573,0,0,1,7-12.031ZM7,.219A5.307,5.307,0,0,0,9.734-.52a5.515,5.515,0,0,0,2-2,5.307,5.307,0,0,0,.738-2.734,5.307,5.307,0,0,0-.738-2.734,5.515,5.515,0,0,0-2-2A5.307,5.307,0,0,0,7-10.719a5.307,5.307,0,0,0-2.734.738,5.515,5.515,0,0,0-2,2A5.307,5.307,0,0,0,1.531-5.25,5.307,5.307,0,0,0,2.27-2.516a5.515,5.515,0,0,0,2,2A5.307,5.307,0,0,0,7,.219ZM8.7-2.625a.3.3,0,0,0,.246.055.35.35,0,0,0,.219-.137l.492-.711a.34.34,0,0,0,.068-.246A.3.3,0,0,0,9.6-3.883L7.766-5.2V-9.078a.316.316,0,0,0-.1-.232.316.316,0,0,0-.232-.1H6.563a.316.316,0,0,0-.232.1.316.316,0,0,0-.1.232v4.484a.337.337,0,0,0,.137.273Z" transform="translate(-0.219 12.031)" fill="#c31126"/>
</svg>
