<svg xmlns="http://www.w3.org/2000/svg" width="9.461" height="9.461" viewBox="0 0 9.461 9.461">
  <path id="Path_1027" data-name="Path 1027" d="M6.344-5.25,9.9-1.7a.4.4,0,0,1,.082.246A.3.3,0,0,1,9.9-1.23L9.27-.6a.3.3,0,0,1-.219.082A.4.4,0,0,1,8.8-.6L5.25-4.156,1.7-.6a.4.4,0,0,1-.246.082A.3.3,0,0,1,1.23-.6L.6-1.23A.3.3,0,0,1,.52-1.449.4.4,0,0,1,.6-1.7L4.156-5.25.6-8.8A.4.4,0,0,1,.52-9.051.3.3,0,0,1,.6-9.27L1.23-9.9a.3.3,0,0,1,.219-.082A.4.4,0,0,1,1.7-9.9L5.25-6.344,8.8-9.9a.4.4,0,0,1,.246-.082A.3.3,0,0,1,9.27-9.9L9.9-9.27a.3.3,0,0,1,.082.219A.4.4,0,0,1,9.9-8.8Z" transform="translate(-0.52 9.98)" fill="#c31126"/>
</svg>
