<svg xmlns="http://www.w3.org/2000/svg" xmlns:xlink="http://www.w3.org/1999/xlink" width="83" height="83" viewBox="0 0 83 83">
  <defs>
    <linearGradient id="linear-gradient" x1="0.151" y1="0.165" x2="0.816" y2="0.906" gradientUnits="objectBoundingBox">
      <stop offset="0" stop-color="#c2e4f8"/>
      <stop offset="1" stop-color="#458aba"/>
    </linearGradient>
  </defs>
  <g id="Group_5025" data-name="Group 5025" transform="translate(3363 21018)">
    <g id="Rectangle_1116" data-name="Rectangle 1116" transform="translate(-3360 -21015)" fill="none" stroke="#24549d" stroke-width="1" stroke-dasharray="5">
      <rect width="80" height="80" rx="40" stroke="none"/>
      <rect x="0.5" y="0.5" width="79" height="79" rx="39.5" fill="none"/>
    </g>
    <rect id="Rectangle_932" data-name="Rectangle 932" width="80" height="80" rx="40" transform="translate(-3363 -21018)" fill="url(#linear-gradient)"/>
    <path id="Group_5256" data-name="Group 5256" d="M18.929,72.756l6.6-6.05a1.277,1.277,0,0,1,.858-.333H34.4a1.268,1.268,0,0,1,.905.381l4.82,4.693H50.181a.637.637,0,0,0,.635-.635v-1.27a.637.637,0,0,0-.635-.635H41.169L37.1,64.943a3.778,3.778,0,0,0-2.692-1.12H26.393a3.774,3.774,0,0,0-2.247.794,3.823,3.823,0,0,0-2.326-.818H16.3a3.844,3.844,0,0,0-2.7,1.12L9.639,68.9h-9A.637.637,0,0,0,0,69.533V70.8a.637.637,0,0,0,.635.635H10.687L15.4,66.73a1.275,1.275,0,0,1,.9-.373h5.518c.071.175.024.056.087.23l-4.685,4.3a5.446,5.446,0,0,0,7.36,8.027l1.81-1.659,9.973,8.091a1.272,1.272,0,0,1,.183,1.787l-.754.929A1.268,1.268,0,0,1,34,88.239L32.586,87.1l-3.3,4.049a1.679,1.679,0,0,1-2.334.27l-2.43-2.072L23.7,90.359a3.813,3.813,0,0,1-5.288.627L11.275,84.15H.635A.637.637,0,0,0,0,84.785v1.27a.637.637,0,0,0,.635.635h9.623l6.471,6.193a6.37,6.37,0,0,0,8.019-.016l.572.492a4.236,4.236,0,0,0,5.947-.611l1.739-2.136a3.813,3.813,0,0,0,4.764-.953l.754-.929a3.807,3.807,0,0,0,.834-2.041H50.181a.637.637,0,0,0,.635-.635v-1.27a.637.637,0,0,0-.635-.635H38.652a4.027,4.027,0,0,0-.7-.778l-9.679-7.861,2.255-2.072a1.27,1.27,0,1,0-1.715-1.874l-5.963,5.463a3,3,0,0,1-4.1-.175A2.908,2.908,0,0,1,18.929,72.756Z" transform="translate(-3348 -21056.801)" fill="#fff"/>
  </g>
</svg>
