<svg xmlns="http://www.w3.org/2000/svg" xmlns:xlink="http://www.w3.org/1999/xlink" width="80" height="80" viewBox="0 0 80 80"><defs><linearGradient id="a" y1="0.159" x2="0.86" y2="1" gradientUnits="objectBoundingBox"><stop offset="0" stop-color="#c2e4f8"/><stop offset="1" stop-color="#458aba"/></linearGradient></defs><g transform="translate(-756 24399)"><rect width="80" height="80" rx="40" transform="translate(756 -24399)" fill="url(#a)"/><path d="M17.789-13.992a5.581,5.581,0,0,1,3.375,1.9A5.413,5.413,0,0,1,22.5-8.437v3.094a2.976,2.976,0,0,1-.914,2.18,2.976,2.976,0,0,1-2.18.914h-8.3A3.08,3.08,0,0,1,10.02-.633,2.939,2.939,0,0,1,8.156,0H-8.156A2.939,2.939,0,0,1-10.02-.633,3.08,3.08,0,0,1-11.11-2.25h-8.3a2.976,2.976,0,0,1-2.18-.914,2.976,2.976,0,0,1-.914-2.18V-8.437a5.413,5.413,0,0,1,1.336-3.656,5.581,5.581,0,0,1,3.375-1.9A6.449,6.449,0,0,1-19.125-18a6.509,6.509,0,0,1,1.969-4.781A6.468,6.468,0,0,1-12.41-24.75a6.7,6.7,0,0,1,4.816,1.969A9.588,9.588,0,0,1-6.4-24.4a9.6,9.6,0,0,1,2.953-1.934A8.935,8.935,0,0,1,0-27a8.935,8.935,0,0,1,3.445.668A9.6,9.6,0,0,1,6.4-24.4a9.587,9.587,0,0,1,1.2,1.617,6.7,6.7,0,0,1,4.81-1.967,6.468,6.468,0,0,1,4.746,1.969A6.509,6.509,0,0,1,19.125-18a6.449,6.449,0,0,1-1.336,4.008ZM12.375-22.5a4.4,4.4,0,0,0-2.109.527,4.555,4.555,0,0,0-1.617,1.441A9.42,9.42,0,0,1,9-18a9.42,9.42,0,0,1-.352,2.531,4.555,4.555,0,0,0,1.617,1.441,4.4,4.4,0,0,0,2.109.527,4.348,4.348,0,0,0,3.2-1.3,4.348,4.348,0,0,0,1.3-3.2,4.348,4.348,0,0,0-1.3-3.2A4.348,4.348,0,0,0,12.375-22.5ZM0-24.75a6.509,6.509,0,0,0-4.781,1.969A6.509,6.509,0,0,0-6.75-18a6.509,6.509,0,0,0,1.969,4.781A6.509,6.509,0,0,0,0-11.25a6.509,6.509,0,0,0,4.781-1.969A6.509,6.509,0,0,0,6.75-18a6.509,6.509,0,0,0-1.969-4.781A6.509,6.509,0,0,0,0-24.75ZM-12.375-22.5a4.348,4.348,0,0,0-3.2,1.3,4.348,4.348,0,0,0-1.3,3.2,4.348,4.348,0,0,0,1.3,3.2,4.348,4.348,0,0,0,3.2,1.3,4.4,4.4,0,0,0,2.109-.527,4.555,4.555,0,0,0,1.617-1.441A9.42,9.42,0,0,1-9-18a9.42,9.42,0,0,1,.352-2.531,4.555,4.555,0,0,0-1.617-1.441,4.4,4.4,0,0,0-2.11-.528ZM-11.25-6.75a5.43,5.43,0,0,1,.879-2.988,5.715,5.715,0,0,1,2.285-2.074H-9.7a6.506,6.506,0,0,1-2.672.563,6.506,6.506,0,0,1-2.672-.562h-1.828a3.255,3.255,0,0,0-2.391.984,3.255,3.255,0,0,0-.984,2.391v3.094a.814.814,0,0,0,.246.6.814.814,0,0,0,.6.246h8.156ZM9-3.094V-6.75a3.255,3.255,0,0,0-.984-2.391,3.255,3.255,0,0,0-2.391-.984H4.359A8.952,8.952,0,0,1-.035-9a8.563,8.563,0,0,1-4.324-1.125H-5.625a3.255,3.255,0,0,0-2.391.984A3.255,3.255,0,0,0-9-6.75v3.656a.814.814,0,0,0,.246.6.814.814,0,0,0,.6.246H8.156a.814.814,0,0,0,.6-.246A.814.814,0,0,0,9-3.094Zm11.25-2.25V-8.437a3.255,3.255,0,0,0-.984-2.391,3.255,3.255,0,0,0-2.391-.984H15.047a6.506,6.506,0,0,1-2.672.563A6.506,6.506,0,0,1,9.7-11.812H8.086a5.715,5.715,0,0,1,2.285,2.074A5.43,5.43,0,0,1,11.25-6.75V-4.5h8.156a.814.814,0,0,0,.6-.246.814.814,0,0,0,.244-.6Z" transform="translate(796 -24345)" fill="#fff"/></g></svg>