<svg xmlns="http://www.w3.org/2000/svg" width="14" height="16" viewBox="0 0 14 16">
  <path id="Path_1018" data-name="Path 1018" d="M6-8.125a.362.362,0,0,0-.109-.266A.362.362,0,0,0,5.625-8.5h-.75a.362.362,0,0,0-.266.109.362.362,0,0,0-.109.266v6.75a.362.362,0,0,0,.109.266A.362.362,0,0,0,4.875-1h.75a.362.362,0,0,0,.266-.109A.362.362,0,0,0,6-1.375ZM9.125-8.5a.362.362,0,0,1,.266.109.362.362,0,0,1,.109.266v6.75a.362.362,0,0,1-.109.266A.362.362,0,0,1,9.125-1h-.75a.362.362,0,0,1-.266-.109A.362.362,0,0,1,8-1.375v-6.75a.362.362,0,0,1,.109-.266A.362.362,0,0,1,8.375-8.5Zm4.125-3H10.938L9.875-13.281a1.526,1.526,0,0,0-.562-.531A1.541,1.541,0,0,0,8.563-14H5.438a1.541,1.541,0,0,0-.75.188,1.526,1.526,0,0,0-.562.531L3.063-11.5H.75a.723.723,0,0,0-.531.219A.723.723,0,0,0,0-10.75v.375a.362.362,0,0,0,.109.266A.362.362,0,0,0,.375-10H1V.5a1.447,1.447,0,0,0,.438,1.063A1.447,1.447,0,0,0,2.5,2h9a1.447,1.447,0,0,0,1.063-.437A1.447,1.447,0,0,0,13,.5V-10h.625a.362.362,0,0,0,.266-.109A.362.362,0,0,0,14-10.375v-.375a.723.723,0,0,0-.219-.531A.723.723,0,0,0,13.25-11.5Zm-8.437,0,.563-.906a.184.184,0,0,1,.156-.094H8.469a.184.184,0,0,1,.156.094l.563.906ZM11.5-10V.313a.18.18,0,0,1-.062.125A.18.18,0,0,1,11.313.5H2.688A.18.18,0,0,1,2.563.438.18.18,0,0,1,2.5.313V-10Z" transform="translate(0 14)" fill="#c31126"/>
</svg>
