<svg xmlns="http://www.w3.org/2000/svg" width="39.418" height="25" viewBox="0 0 39.418 25"><g transform="translate(-389.814 -555.808)"><g transform="translate(389.814 557.766)"><g transform="translate(4.117 13.253)"><circle cx="3.694" cy="3.694" r="3.694" transform="translate(0.458 0.458)" fill="#fff"/><path d="M401.539,592.093a4.152,4.152,0,1,1,4.152-4.152A4.157,4.157,0,0,1,401.539,592.093Zm0-7.388a3.237,3.237,0,1,0,3.236,3.236A3.24,3.24,0,0,0,401.539,584.7Z" transform="translate(-397.387 -583.789)"/></g><g transform="translate(1.376)"><rect width="21.331" height="17.79" transform="translate(0.458 0.458)" fill="#fff"/><path d="M414.592,578.116H392.345V559.41h22.247Zm-21.331-.916h20.415V560.326H393.261Z" transform="translate(-392.345 -559.41)"/></g><g transform="translate(28.76 13.253)"><circle cx="3.694" cy="3.694" r="3.694" transform="translate(0.458 0.458)" fill="#fff"/><path d="M446.87,592.093a4.152,4.152,0,1,1,4.152-4.152A4.157,4.157,0,0,1,446.87,592.093Zm0-7.388a3.237,3.237,0,1,0,3.237,3.236A3.24,3.24,0,0,0,446.87,584.7Z" transform="translate(-442.718 -583.789)"/></g><g transform="translate(22.707 10.481)"><path d="M432.426,579.532H446.2a2.478,2.478,0,0,1,1.312,2.061c.281,1.687.656,5.248.656,5.248H432.426Z" transform="translate(-431.968 -579.074)" fill="#005cb1"/><path d="M448.294,586.915H431.583v-8.226l14.391.028a2.92,2.92,0,0,1,1.607,2.417c.28,1.681.644,5.129.66,5.275ZM432.5,586h14.776c-.115-1.042-.385-3.438-.6-4.714a2.206,2.206,0,0,0-.963-1.679H432.5Z" transform="translate(-431.583 -578.689)"/></g><g transform="translate(22.707 3.288)"><path d="M432.426,566.3h7.192a4.576,4.576,0,0,1,3.936,2.882l1.055,4.311H432.426Z" transform="translate(-431.968 -565.843)" fill="#fff"/><path d="M444.807,573.567H431.583v-8.108h7.651a5,5,0,0,1,4.361,3.169l.02.061Zm-12.308-.916h11.142l-.908-3.713a4.089,4.089,0,0,0-3.512-2.564H432.5Z" transform="translate(-431.583 -565.459)"/></g><g transform="translate(26.854 3.19)"><path d="M439.416,566.1s3.138.752,4.072,7.3" transform="translate(-439.305 -565.652)" fill="#fff"/><path d="M442.941,573.092c-.87-6.1-3.7-6.917-3.73-6.924l.218-.89c.14.034,3.452.9,4.419,7.684Z" transform="translate(-439.211 -565.278)"/></g><g transform="translate(23.335 5.698)"><line x2="10.6" transform="translate(0 0.458)" fill="#fff"/><rect width="10.6" height="0.916" transform="translate(0)"/></g><g transform="translate(31 10.482)"><path d="M446.906,579.532s2.819.17,3.488,7.114" transform="translate(-446.868 -579.075)" fill="#005cb1"/><path d="M449.907,586.306c-.614-6.37-3.045-6.7-3.07-6.7l.065-.913c.132.008,3.218.277,3.917,7.527Z" transform="translate(-446.837 -578.691)"/></g><g transform="translate(0 14.737)"><circle cx="3.694" cy="3.694" r="3.694" transform="translate(0.458 0.458)" fill="#fff"/><path d="M393.966,594.823a4.152,4.152,0,1,1,4.152-4.152A4.157,4.157,0,0,1,393.966,594.823Zm0-7.388a3.236,3.236,0,1,0,3.236,3.236A3.24,3.24,0,0,0,393.966,587.435Z" transform="translate(-389.814 -586.519)"/></g><g transform="translate(24.482 14.737)"><circle cx="3.694" cy="3.694" r="3.694" transform="translate(0.458 0.458)" fill="#fff"/><path d="M439,594.823a4.152,4.152,0,1,1,4.152-4.152A4.157,4.157,0,0,1,439,594.823Zm0-7.388a3.236,3.236,0,1,0,3.236,3.236A3.24,3.24,0,0,0,439,587.435Z" transform="translate(-434.849 -586.519)"/></g><g transform="translate(2.256 0.927)"><path d="M394.125,573.361s.007-.085.021-.24c.151-1.662-.6-9.815,3.563-10.826,2.507-.609,16.371-1.18,16.371-1.18H393.964" transform="translate(-393.964 -561.115)" fill="#cbced0"/></g></g><g transform="translate(413.448 565.123)" opacity="0.3"><path d="M433.288,576.09v-3.148L443,576.09Z" transform="translate(-433.288 -572.942)" fill="#939a9c"/></g><g transform="translate(416.909 561.9)" opacity="0.3"><path d="M445.267,567.134l.778,1.844-6.391-1.964Z" transform="translate(-439.654 -567.015)" fill="#939a9c"/></g><g transform="translate(412.521 560.994)"><path d="M444.807,573.456H431.583v-8.108h7.651a5,5,0,0,1,4.361,3.169l.02.061Zm-12.308-.915h11.142l-.908-3.713a4.087,4.087,0,0,0-3.512-2.565H432.5Z" transform="translate(-431.583 -565.348)"/></g><g transform="translate(391.251 555.808)"><path d="M393.187,558.35l6.178-1.812,19.684.207-4.531,1.813Z" transform="translate(-392.79 -556.141)" fill="#fff"/><path d="M414.186,558.621h0l-21.332-.207a.4.4,0,0,1-.108-.777l6.178-1.812a.355.355,0,0,1,.116-.016l19.684.207a.4.4,0,0,1,.143.766l-4.531,1.812A.4.4,0,0,1,414.186,558.621Zm-18.657-.975,18.583.18,2.6-1.039-17.621-.185Z" transform="translate(-392.457 -555.808)"/></g><g transform="translate(417.052 556.411)"><line y2="4.99" transform="translate(0.458 0)" fill="#fff"/><rect width="0.916" height="4.99" transform="translate(0 0)"/></g></g></svg>