<svg xmlns="http://www.w3.org/2000/svg" width="30" height="30" viewBox="0 0 30 30"><g transform="translate(20351 -15074)"><path d="M-1.094-12.25a.633.633,0,0,0-.465.191.633.633,0,0,0-.191.465V-7H-4.156a.493.493,0,0,0-.492.342.5.5,0,0,0,.109.588L-.383-1.914A.525.525,0,0,0,0-1.75a.525.525,0,0,0,.383-.164L4.539-6.07a.5.5,0,0,0,.109-.588A.493.493,0,0,0,4.156-7H1.75v-4.594a.633.633,0,0,0-.191-.465.633.633,0,0,0-.465-.191ZM7-1.969a.633.633,0,0,0-.191-.465.633.633,0,0,0-.465-.191H2.324L.984-1.285A1.343,1.343,0,0,1,0-.875a1.343,1.343,0,0,1-.984-.41l-1.34-1.34h-4.02a.633.633,0,0,0-.465.191A.633.633,0,0,0-7-1.969V1.094a.633.633,0,0,0,.191.465.633.633,0,0,0,.465.191H6.344a.633.633,0,0,0,.465-.191A.633.633,0,0,0,7,1.094ZM3.609.438A.525.525,0,0,1,3.445.82a.529.529,0,0,1-.766,0,.529.529,0,0,1,0-.766.529.529,0,0,1,.766,0A.525.525,0,0,1,3.609.438Zm1.75,0A.525.525,0,0,1,5.2.82a.529.529,0,0,1-.766,0,.529.529,0,0,1,0-.766.529.529,0,0,1,.766,0A.525.525,0,0,1,5.359.438Z" transform="translate(-20336 15094)" fill="#24549d"/><rect width="30" height="30" transform="translate(-20351 15074)" fill="none"/></g></svg>