<svg xmlns="http://www.w3.org/2000/svg" width="30" height="30" viewBox="0 0 30 30">
  <g id="Group_5266" data-name="Group 5266" transform="translate(19941 4837)">
    <g id="Group_5261" data-name="Group 5261" transform="translate(-21302 -5351)">
      <g id="Group_11" data-name="Group 11" transform="translate(456 22)">
        <path id="_" data-name="" d="M14.438-4.375a1.266,1.266,0,0,1,.93.383,1.266,1.266,0,0,1,.383.93v3.5a1.266,1.266,0,0,1-.383.93,1.266,1.266,0,0,1-.93.383H1.313a1.266,1.266,0,0,1-.93-.383A1.266,1.266,0,0,1,0,.438v-3.5a1.266,1.266,0,0,1,.383-.93,1.266,1.266,0,0,1,.93-.383H3.828L2.57-5.633A1.291,1.291,0,0,1,2.2-6.576a1.325,1.325,0,0,1,.383-.916A1.221,1.221,0,0,1,3.5-7.875H5.25v-3.062a1.266,1.266,0,0,1,.383-.93,1.266,1.266,0,0,1,.93-.383H9.188a1.266,1.266,0,0,1,.93.383,1.266,1.266,0,0,1,.383.93v3.063h1.75a1.254,1.254,0,0,1,.943.383,1.325,1.325,0,0,1,.383.916,1.248,1.248,0,0,1-.4.943L11.922-4.375ZM3.5-6.562,7.875-2.187,12.25-6.562H9.188v-4.375H6.563v4.375Zm10.938,7v-3.5H10.609l-1.8,1.8a1.266,1.266,0,0,1-.93.383,1.266,1.266,0,0,1-.93-.383l-1.8-1.8H1.313v3.5Zm-2.406-1.75a.633.633,0,0,0,.191.465.633.633,0,0,0,.465.191.633.633,0,0,0,.465-.191.633.633,0,0,0,.191-.465.633.633,0,0,0-.191-.465.633.633,0,0,0-.465-.191.633.633,0,0,0-.465.191A.633.633,0,0,0,12.031-1.312Z" transform="translate(912.125 512)" fill="#24549d"/>
        <g id="Rectangle_14" data-name="Rectangle 14" transform="translate(905 492)" fill="none" stroke="#24549d" stroke-width="1">
          <rect width="30" height="30" rx="15" stroke="none"/>
          <rect x="0.5" y="0.5" width="29" height="29" rx="14.5" fill="none"/>
        </g>
      </g>
    </g>
  </g>
</svg>
