<svg xmlns="http://www.w3.org/2000/svg" xmlns:xlink="http://www.w3.org/1999/xlink" width="83" height="83" viewBox="0 0 83 83">
  <defs>
    <linearGradient id="linear-gradient" x1="0.151" y1="0.165" x2="0.816" y2="0.906" gradientUnits="objectBoundingBox">
      <stop offset="0" stop-color="#c2e4f8"/>
      <stop offset="1" stop-color="#458aba"/>
    </linearGradient>
  </defs>
  <g id="Group_5024" data-name="Group 5024" transform="translate(3125 20884)">
    <g id="Rectangle_1116" data-name="Rectangle 1116" transform="translate(-3122 -20881)" fill="none" stroke="#24549d" stroke-width="1" stroke-dasharray="5">
      <rect width="80" height="80" rx="40" stroke="none"/>
      <rect x="0.5" y="0.5" width="79" height="79" rx="39.5" fill="none"/>
    </g>
    <rect id="Rectangle_932" data-name="Rectangle 932" width="80" height="80" rx="40" transform="translate(-3125 -20884)" fill="url(#linear-gradient)"/>
    <path id="Path_1018" data-name="Path 1018" d="M1.688-24.75a1.627,1.627,0,0,0-.492-1.2A1.627,1.627,0,0,0,0-26.437a1.627,1.627,0,0,0-1.2.492,1.627,1.627,0,0,0-.492,1.2,1.627,1.627,0,0,0,.492,1.2,1.627,1.627,0,0,0,1.2.492,1.627,1.627,0,0,0,1.2-.492A1.627,1.627,0,0,0,1.688-24.75ZM17.438-9a1.627,1.627,0,0,1-.492,1.2,1.627,1.627,0,0,1-1.2.492,1.627,1.627,0,0,1-1.2-.492A1.627,1.627,0,0,1,14.063-9a1.627,1.627,0,0,1,.492-1.2,1.627,1.627,0,0,1,1.2-.492,1.627,1.627,0,0,1,1.2.492A1.627,1.627,0,0,1,17.438-9Zm-31.5,0a1.627,1.627,0,0,1-.492,1.2,1.627,1.627,0,0,1-1.2.492,1.627,1.627,0,0,1-1.2-.492A1.627,1.627,0,0,1-17.437-9a1.627,1.627,0,0,1,.492-1.2,1.627,1.627,0,0,1,1.2-.492,1.627,1.627,0,0,1,1.2.492A1.627,1.627,0,0,1-14.062-9Zm2.953-12.8a1.627,1.627,0,0,1,1.2.492,1.627,1.627,0,0,1,.492,1.2,1.627,1.627,0,0,1-.492,1.2,1.627,1.627,0,0,1-1.2.492,1.627,1.627,0,0,1-1.2-.492,1.627,1.627,0,0,1-.492-1.2,1.627,1.627,0,0,1,.492-1.2A1.627,1.627,0,0,1-11.109-21.8Zm22.219,0a1.627,1.627,0,0,1,1.2.492,1.627,1.627,0,0,1,.492,1.2,1.627,1.627,0,0,1-.492,1.2,1.627,1.627,0,0,1-1.2.492,1.627,1.627,0,0,1-1.2-.492,1.627,1.627,0,0,1-.492-1.2,1.627,1.627,0,0,1,.492-1.2A1.627,1.627,0,0,1,11.109-21.8ZM6.117-20.461a1.167,1.167,0,0,0-.035-.844.952.952,0,0,0-.633-.562,1.258,1.258,0,0,0-.879.035.962.962,0,0,0-.562.668L.422-11.25a4.467,4.467,0,0,0-3.445,1.2A4.242,4.242,0,0,0-4.5-6.785,4.391,4.391,0,0,0-3.2-3.551,4.348,4.348,0,0,0,0-2.25a4.348,4.348,0,0,0,3.2-1.3,4.348,4.348,0,0,0,1.3-3.2,4.4,4.4,0,0,0-.527-2.109,4.555,4.555,0,0,0-1.441-1.617ZM2.25-6.75a2.162,2.162,0,0,1-.668,1.582A2.162,2.162,0,0,1,0-4.5a2.162,2.162,0,0,1-1.582-.668A2.162,2.162,0,0,1-2.25-6.75a2.162,2.162,0,0,1,.668-1.582A2.162,2.162,0,0,1,0-9a2.162,2.162,0,0,1,1.582.668A2.162,2.162,0,0,1,2.25-6.75ZM20.25-9a19.918,19.918,0,0,0-2.742-10.2A19.554,19.554,0,0,0,10.2-26.508,19.918,19.918,0,0,0,0-29.25a19.918,19.918,0,0,0-10.2,2.742A19.554,19.554,0,0,0-17.508-19.2,19.918,19.918,0,0,0-20.25-9,19.746,19.746,0,0,0-17.93.422,3.221,3.221,0,0,0-16.7,1.758a3.381,3.381,0,0,0,1.793.492H14.906A3.381,3.381,0,0,0,16.7,1.758,3.221,3.221,0,0,0,17.93.422,19.746,19.746,0,0,0,20.25-9ZM18-9A17.2,17.2,0,0,1,15.891-.633,1,1,0,0,1,14.906,0H-14.906a1,1,0,0,1-.984-.633A17.2,17.2,0,0,1-18-9a17.462,17.462,0,0,1,2.426-9.035,18.216,18.216,0,0,1,6.539-6.539A17.462,17.462,0,0,1,0-27a17.462,17.462,0,0,1,9.035,2.426,18.216,18.216,0,0,1,6.539,6.539A17.462,17.462,0,0,1,18-9Z" transform="translate(-3085 -20830)" fill="#fff"/>
  </g>
</svg>
