<svg xmlns="http://www.w3.org/2000/svg" width="30" height="30" viewBox="0 0 30 30"><g transform="translate(21804 24272)"><rect width="30" height="30" transform="translate(-21804 -24272)" fill="none"/><g transform="translate(-22231.016 -24499.436)"><path d="M453.372,247.561l-5.367-5.369a6.229,6.229,0,1,0-3.088,3.143l5.34,5.341a2.2,2.2,0,0,0,3.115-3.115Zm-14.482-4.475a4.828,4.828,0,1,1,6.827,0A4.834,4.834,0,0,1,438.89,243.086Zm13.488,6.6a.8.8,0,0,1-1.127,0l-5.1-5.1a6.264,6.264,0,0,0,1.118-1.136l5.11,5.112A.8.8,0,0,1,452.378,249.682Z" fill="#fff"/><path d="M430.719,241.862h3a.7.7,0,0,0,0-1.407h-3a.7.7,0,0,0,0,1.407Z" fill="#fff"/><path d="M430.719,244.862h4.123a.7.7,0,0,0,0-1.407h-4.123a.7.7,0,0,0,0,1.407Z" fill="#fff"/><path d="M430.719,247.862h7.121a.7.7,0,1,0,0-1.406h-7.121a.7.7,0,1,0,0,1.406Z" fill="#fff"/><path d="M446.086,249.456H430.719a.7.7,0,1,0,0,1.406h15.367a.7.7,0,0,0,0-1.406Z" fill="#fff"/></g></g></svg>