<svg width="30" height="30" viewBox="0 0 30 30" fill="none" xmlns="http://www.w3.org/2000/svg">
<path d="M22.3555 14.3398C22.4102 14.3945 22.4375 14.4219 22.4375 14.4766C22.4375 14.5312 22.4102 14.5859 22.3828 14.6406L21.8359 15.3242C21.7812 15.3789 21.7266 15.4062 21.6719 15.4062C21.6172 15.4062 21.5625 15.4062 21.5352 15.3516L21.125 15.0234V20.4375C21.125 20.5742 21.0703 20.6836 20.9883 20.7656C20.9062 20.8477 20.7969 20.875 20.6875 20.875H16.0938C16.0391 20.875 15.9844 20.875 15.9297 20.8203C15.875 20.7656 15.875 20.7109 15.875 20.6562V17.1562H14.125V20.6562C14.125 20.7109 14.0977 20.7656 14.043 20.8203C13.9883 20.875 13.9609 20.875 13.9062 20.875H9.3125C9.17578 20.875 9.06641 20.8477 8.98438 20.7656C8.90234 20.6836 8.875 20.5742 8.875 20.4375V15.0234L8.46484 15.3516C8.41016 15.4062 8.35547 15.4062 8.30078 15.4062C8.24609 15.4062 8.19141 15.3789 8.16406 15.3242L7.61719 14.6406C7.5625 14.5859 7.5625 14.5312 7.5625 14.4766C7.5625 14.4219 7.58984 14.3945 7.64453 14.3398L14.3164 8.87109C14.5078 8.70703 14.7266 8.625 15 8.625C15.2461 8.625 15.4648 8.70703 15.6836 8.87109L19.8125 12.2344V10.5938C19.8125 10.5391 19.8125 10.5117 19.8672 10.457C19.9219 10.4023 19.9766 10.375 20.0312 10.375H20.9062C20.9609 10.375 20.9883 10.4023 21.043 10.457C21.0977 10.5117 21.125 10.5391 21.125 10.5938V13.3281L22.3555 14.3398ZM19.8125 19.5625V13.9297L15.1367 10.1016C15.0273 10.0469 14.9453 10.0469 14.8633 10.1016L10.1875 13.9297V19.5625H12.8125V16.0625C12.8125 16.0078 12.8125 15.9805 12.8672 15.9258C12.9219 15.8711 12.9766 15.8438 13.0312 15.8438H16.9688C17.0234 15.8438 17.0508 15.8711 17.1055 15.9258C17.1602 15.9805 17.1875 16.0078 17.1875 16.0625V19.5625H19.8125Z" fill="#24549D"/>
<path d="M29.5 15C29.5 6.99187 23.0081 0.5 15 0.5C6.99187 0.5 0.5 6.99187 0.5 15C0.5 23.0081 6.99187 29.5 15 29.5C23.0081 29.5 29.5 23.0081 29.5 15Z" stroke="#24549D"/>
</svg>
