<svg xmlns="http://www.w3.org/2000/svg" width="13.563" height="13.563" viewBox="0 0 13.563 13.563">
  <path id="Path_1024" data-name="Path 1024" d="M7-12.031a6.573,6.573,0,0,1,3.391.916,6.852,6.852,0,0,1,2.475,2.475,6.573,6.573,0,0,1,.916,3.391,6.573,6.573,0,0,1-.916,3.391A6.852,6.852,0,0,1,10.391.615,6.573,6.573,0,0,1,7,1.531,6.573,6.573,0,0,1,3.609.615,6.852,6.852,0,0,1,1.135-1.859,6.573,6.573,0,0,1,.219-5.25a6.573,6.573,0,0,1,.916-3.391,6.852,6.852,0,0,1,2.475-2.475A6.573,6.573,0,0,1,7-12.031ZM12.906-5.25a5.763,5.763,0,0,0-.793-2.967,5.879,5.879,0,0,0-2.16-2.146,5.811,5.811,0,0,0-2.967-.793,5.738,5.738,0,0,0-2.953.793A5.879,5.879,0,0,0,1.887-8.2a5.811,5.811,0,0,0-.793,2.967,5.738,5.738,0,0,0,.793,2.953A5.879,5.879,0,0,0,4.047-.137,5.811,5.811,0,0,0,7.014.656,5.738,5.738,0,0,0,9.967-.137,5.879,5.879,0,0,0,12.113-2.3,5.786,5.786,0,0,0,12.906-5.25ZM8.832-2.844a.34.34,0,0,0,.246.068A.3.3,0,0,0,9.3-2.9l.219-.328a.318.318,0,0,0,.068-.232.29.29,0,0,0-.123-.205L7.52-5.086V-9.078a.316.316,0,0,0-.1-.232.316.316,0,0,0-.232-.1H6.809a.316.316,0,0,0-.232.1.316.316,0,0,0-.1.232V-4.7a.269.269,0,0,0,.137.246Z" transform="translate(-0.219 12.031)" fill="#c31126"/>
</svg>
