<svg xmlns="http://www.w3.org/2000/svg" width="53" height="52" viewBox="0 0 53 52"><g transform="translate(-166 -1957)"><g transform="translate(169 1959)" fill="none" stroke="#fff" stroke-width="1" stroke-dasharray="5"><rect width="50" height="50" rx="25" stroke="none"/><rect x="0.5" y="0.5" width="49" height="49" rx="24.5" fill="none"/></g><rect width="50" height="50" rx="25" transform="translate(166 1957)" fill="#fff"/><path d="M17.031-14.258a.422.422,0,0,1,.313-.117.571.571,0,0,1,.352.117l1.094,1.133a.371.371,0,0,1,.156.313.486.486,0,0,1-.156.352L7.07-.742a.422.422,0,0,1-.312.117.571.571,0,0,1-.352-.117l-5.2-5.234a.371.371,0,0,1-.156-.312.486.486,0,0,1,.156-.352L2.3-7.734a.486.486,0,0,1,.352-.156.371.371,0,0,1,.313.156L6.758-3.945Z" transform="translate(181 1990)" fill="#24549d"/></g></svg>