<svg xmlns="http://www.w3.org/2000/svg" xmlns:xlink="http://www.w3.org/1999/xlink" width="83" height="83" viewBox="0 0 83 83">
  <defs>
    <linearGradient id="linear-gradient" x1="0.151" y1="0.165" x2="0.816" y2="0.906" gradientUnits="objectBoundingBox">
      <stop offset="0" stop-color="#c2e4f8"/>
      <stop offset="1" stop-color="#458aba"/>
    </linearGradient>
  </defs>
  <g id="Group_5023" data-name="Group 5023" transform="translate(3093 21025)">
    <g id="Rectangle_1116" data-name="Rectangle 1116" transform="translate(-3090 -21022)" fill="none" stroke="#24549d" stroke-width="1" stroke-dasharray="5">
      <rect width="80" height="80" rx="40" stroke="none"/>
      <rect x="0.5" y="0.5" width="79" height="79" rx="39.5" fill="none"/>
    </g>
    <rect id="Rectangle_932" data-name="Rectangle 932" width="80" height="80" rx="40" transform="translate(-3093 -21025)" fill="url(#linear-gradient)"/>
    <path id="Path_1017" data-name="Path 1017" d="M15.4-17.719a1.583,1.583,0,0,0,.809.7,1.733,1.733,0,0,0,1.09.07,8.243,8.243,0,0,0,2.391-1.266,1.705,1.705,0,0,0,.6-1.02,1.824,1.824,0,0,0-.176-1.16l-.211-.281a2.49,2.49,0,0,0,.422-.773h.352a1.632,1.632,0,0,0,1.09-.387,1.786,1.786,0,0,0,.6-.949,6.753,6.753,0,0,0,0-2.742,1.786,1.786,0,0,0-.6-.949,1.539,1.539,0,0,0-1.02-.387H20.32a2.49,2.49,0,0,0-.422-.773l.211-.281a1.824,1.824,0,0,0,.176-1.16,1.866,1.866,0,0,0-.527-1.02,6.686,6.686,0,0,0-2.391-1.336,1.553,1.553,0,0,0-1.125,0,1.514,1.514,0,0,0-.844.773l-.211.281h-.844l-.211-.281a1.514,1.514,0,0,0-.844-.773,1.553,1.553,0,0,0-1.125,0,8.5,8.5,0,0,0-2.391,1.336,1.866,1.866,0,0,0-.527,1.02,1.578,1.578,0,0,0,.176,1.09l.211.352a2.49,2.49,0,0,0-.422.773H8.578a1.632,1.632,0,0,0-1.09.387,1.786,1.786,0,0,0-.6.949,6.753,6.753,0,0,0,0,2.742,1.786,1.786,0,0,0,.6.949,1.632,1.632,0,0,0,1.09.387h.633a2.49,2.49,0,0,0,.422.773l-.211.281a1.824,1.824,0,0,0-.176,1.16,1.43,1.43,0,0,0,.6.949,7.369,7.369,0,0,0,2.391,1.336,1.733,1.733,0,0,0,1.09-.07,1.583,1.583,0,0,0,.809-.7L14.344-18a2.549,2.549,0,0,0,.844,0Zm.844-2.391-.7.141a4.289,4.289,0,0,1-1.547,0l-.7-.141-.7,1.266a4.167,4.167,0,0,1-1.336-.773l.773-1.266-.492-.492a5.13,5.13,0,0,1-.773-1.406l-.211-.633H9.07a3.909,3.909,0,0,1,0-1.477h1.477l.211-.7a5.5,5.5,0,0,1,.773-1.336l.492-.492-.773-1.336a7.269,7.269,0,0,1,1.336-.7l.7,1.266.7-.141a4.289,4.289,0,0,1,1.547,0l.7.141.7-1.266a5.137,5.137,0,0,1,1.336.7l-.7,1.336L18-26.93a5.5,5.5,0,0,1,.773,1.336l.211.7h1.477a3.909,3.909,0,0,1,0,1.477H18.984l-.211.7A5.5,5.5,0,0,1,18-21.375l-.422.492.7,1.266a5.5,5.5,0,0,1-1.336.773ZM-12.3.422a1.632,1.632,0,0,0,.387,1.09,1.786,1.786,0,0,0,.949.6,17.244,17.244,0,0,0,3.586.422A17.244,17.244,0,0,0-3.8,2.109a1.786,1.786,0,0,0,.949-.6A1.539,1.539,0,0,0-2.461.492v-2.25A17,17,0,0,0,.07-3.234l1.9,1.125a1.743,1.743,0,0,0,1.125.176,1.849,1.849,0,0,0,.984-.527Q7.453-6.047,8.016-8.719a1.432,1.432,0,0,0-.07-.984,1.6,1.6,0,0,0-.7-.773L5.273-11.742a10.389,10.389,0,0,0,0-2.953L7.031-15.82a1.572,1.572,0,0,0,.7-.844,1.553,1.553,0,0,0,0-1.125,15.907,15.907,0,0,0-1.406-3.2,18.119,18.119,0,0,0-2.25-2.988,1.537,1.537,0,0,0-.949-.527,1.824,1.824,0,0,0-1.16.176L.07-23.2A11.51,11.51,0,0,0-2.461-24.68v-2.18a1.632,1.632,0,0,0-.387-1.09,1.786,1.786,0,0,0-.949-.6,18.242,18.242,0,0,0-3.656-.422,16.281,16.281,0,0,0-3.516.422,1.786,1.786,0,0,0-.949.6,1.632,1.632,0,0,0-.387,1.09v2.18A13.289,13.289,0,0,0-14.836-23.2L-16.8-24.328a1.578,1.578,0,0,0-1.09-.176,1.537,1.537,0,0,0-.949.527,14.937,14.937,0,0,0-2.145,2.813,17.584,17.584,0,0,0-1.441,3.375,1.854,1.854,0,0,0,.07,1.125,1.572,1.572,0,0,0,.7.844l1.9,1.125a15.539,15.539,0,0,0,0,2.953l-1.9,1.125a1.572,1.572,0,0,0-.7.844,1.854,1.854,0,0,0-.07,1.125,17.584,17.584,0,0,0,1.441,3.375,14.937,14.937,0,0,0,2.145,2.813,1.537,1.537,0,0,0,.949.527,1.578,1.578,0,0,0,1.09-.176l1.969-1.125A11.51,11.51,0,0,0-12.3-1.758ZM-10.055,0V-3.3l-.7-.281a9.357,9.357,0,0,1-3.234-1.9l-.633-.492-2.883,1.688a12.9,12.9,0,0,1-2.672-4.57l2.883-1.687-.141-.773a10.339,10.339,0,0,1,0-3.8l.141-.773-2.883-1.617a12.787,12.787,0,0,1,2.672-4.641l2.883,1.688.633-.492a9.357,9.357,0,0,1,3.234-1.9l.7-.281v-3.3a12.832,12.832,0,0,1,5.344,0v3.3l.7.281a9.357,9.357,0,0,1,3.234,1.9l.633.492,2.883-1.687A13.681,13.681,0,0,1,5.7-17.578L2.813-15.891l.141.773a9.962,9.962,0,0,1,0,3.727l-.141.844L5.7-8.859a13.681,13.681,0,0,1-2.953,4.57L-.141-5.977l-.633.492a9.357,9.357,0,0,1-3.234,1.9l-.7.211V0A12.832,12.832,0,0,1-10.055,0Zm2.742-7.383A5.614,5.614,0,0,0-3.2-9.105a5.614,5.614,0,0,0,1.723-4.113A5.614,5.614,0,0,0-3.2-17.332a5.655,5.655,0,0,0-4.148-1.723,5.54,5.54,0,0,0-4.113,1.723,5.673,5.673,0,0,0-1.687,4.113,5.673,5.673,0,0,0,1.688,4.113A5.581,5.581,0,0,0-7.312-7.383Zm0-9.422A3.452,3.452,0,0,1-4.781-15.75a3.452,3.452,0,0,1,1.055,2.531,3.452,3.452,0,0,1-1.055,2.531A3.452,3.452,0,0,1-7.312-9.633a3.452,3.452,0,0,1-2.531-1.055A3.452,3.452,0,0,1-10.9-13.219,3.452,3.452,0,0,1-9.844-15.75,3.452,3.452,0,0,1-7.312-16.8ZM15.4,3.727a1.423,1.423,0,0,0,.809.668,1.913,1.913,0,0,0,1.09.035,6.48,6.48,0,0,0,2.391-1.266,1.705,1.705,0,0,0,.6-1.02,1.824,1.824,0,0,0-.176-1.16L19.9.7A2.8,2.8,0,0,0,20.32,0h.352a1.632,1.632,0,0,0,1.09-.387,1.806,1.806,0,0,0,.6-1.02,6.416,6.416,0,0,0,0-2.672,1.806,1.806,0,0,0-.6-1.02,1.539,1.539,0,0,0-1.02-.387H20.32a2.49,2.49,0,0,0-.422-.773l.211-.281a1.824,1.824,0,0,0,.176-1.16,1.537,1.537,0,0,0-.527-.949,6.686,6.686,0,0,0-2.391-1.336,1.553,1.553,0,0,0-1.125,0,1.572,1.572,0,0,0-.844.7l-.211.352a2.549,2.549,0,0,0-.844,0l-.211-.352a1.572,1.572,0,0,0-.844-.7,1.553,1.553,0,0,0-1.125,0A6.686,6.686,0,0,0,9.773-8.648a1.537,1.537,0,0,0-.527.949,1.824,1.824,0,0,0,.176,1.16l.211.281a2.49,2.49,0,0,0-.422.773H8.578a1.632,1.632,0,0,0-1.09.387,1.786,1.786,0,0,0-.6.949,6.753,6.753,0,0,0,0,2.742,1.806,1.806,0,0,0,.6,1.02A1.632,1.632,0,0,0,8.578,0h.633a2.8,2.8,0,0,0,.422.7L9.422.984a1.824,1.824,0,0,0-.176,1.16,1.705,1.705,0,0,0,.6,1.02A6.48,6.48,0,0,0,12.234,4.43a1.913,1.913,0,0,0,1.09-.035,1.423,1.423,0,0,0,.809-.668l.211-.281h.844Zm.844-2.461-.7.141a4.289,4.289,0,0,1-1.547,0l-.7-.141-.7,1.266a5.137,5.137,0,0,1-1.336-.7L12.023.492,11.531,0a5.5,5.5,0,0,1-.773-1.336l-.211-.7H9.07a3.909,3.909,0,0,1,0-1.477h1.477l.211-.633a5.5,5.5,0,0,1,.773-1.336l.492-.562L11.25-7.312a5.5,5.5,0,0,1,1.336-.773l.7,1.266.7-.141a4.289,4.289,0,0,1,1.547,0l.7.141.7-1.266a4.167,4.167,0,0,1,1.336.773l-.7,1.266L18-5.484a4.167,4.167,0,0,1,.773,1.336l.211.633h1.477a3.909,3.909,0,0,1,0,1.477H18.984l-.211.7A5.5,5.5,0,0,1,18,0l-.422.492.7,1.336a7.269,7.269,0,0,1-1.336.7Zm.633-4.078a2.162,2.162,0,0,1-.668,1.582,2.162,2.162,0,0,1-1.582.668,2.162,2.162,0,0,1-1.582-.668,2.162,2.162,0,0,1-.668-1.582,2.162,2.162,0,0,1,.668-1.582,2.162,2.162,0,0,1,1.582-.668,2.162,2.162,0,0,1,1.582.668A2.162,2.162,0,0,1,16.875-2.812Zm0-21.375a2.162,2.162,0,0,1-.668,1.582,2.162,2.162,0,0,1-1.582.668,2.162,2.162,0,0,1-1.582-.668,2.2,2.2,0,0,1-.668-1.617,2.089,2.089,0,0,1,.668-1.582,2.223,2.223,0,0,1,1.582-.633,2.223,2.223,0,0,1,1.582.633A2.13,2.13,0,0,1,16.875-24.187Z" transform="translate(-3053 -20971)" fill="#fff"/>
  </g>
</svg>
