<svg xmlns="http://www.w3.org/2000/svg" xmlns:xlink="http://www.w3.org/1999/xlink" viewBox="0 0 257.15 109.79"><defs><style>.cls-1{fill:none;}.cls-2{clip-path:url(#clip-path);}.cls-3{fill:#f2ebeb;}</style><clipPath id="clip-path" transform="translate(0 0)"><rect class="cls-1" width="150.05" height="110.11"/></clipPath></defs><g id="Layer_2" data-name="Layer 2"><g id="Layer_1-2" data-name="Layer 1"><g class="cls-2"><g id="_3" data-name="3"><path class="cls-3" d="M60.76,71.3c.2,0,.52.06,1,.09C61.45,71.37,61.11,71.33,60.76,71.3Z" transform="translate(0 0)"/><path class="cls-3" d="M62.31,32.86l.06,0c1.11,0,1.26,0,1.36-.08h-.11l-.15,0,0,0C62.62,32.76,62.46,32.76,62.31,32.86Z" transform="translate(0 0)"/><path class="cls-3" d="M63.09,71.25c1,0,1.88.1.08,0l-.17,0Z" transform="translate(0 0)"/><path class="cls-3" d="M64.11,32.79c-.27,0-.32,0-.38,0l.39,0A.09.09,0,0,0,64.11,32.79Z" transform="translate(0 0)"/><path class="cls-3" d="M62.41,109.76l-2-.15C59.47,109.85,59.64,109.72,62.41,109.76Z" transform="translate(0 0)"/><path class="cls-3" d="M62.48,109.69c-.15.13.18.13,0,0Z" transform="translate(0 0)"/><path class="cls-3" d="M30.36,40.59v0c-1.36-.6-2.69-1.22-4-1.85-.21.2-.41.39-.59.58-.13-2.1-1.3.4-1.49-1.24-1.05.06-3.49-.29-2.33,2l-1.15-.76c-.14.19.11.85.62,1.5,1.24.61,2.51,1.21,3.82,1.8a2.29,2.29,0,0,0-.06-.4,1.84,1.84,0,0,0,.31.52l.31.13c.44-.06.84-1.12,1.63-.41a1.89,1.89,0,0,0,.51,1.33c3.06,1.3,6.3,2.51,9.69,3.59a1.38,1.38,0,0,0,.79-.41c1.64-.14-.62-2.14-.76-3.44-2.5-.9-4.93-1.87-7.27-2.91ZM36.86,44c.37.56,1.12,1.16.13,1.19l.23-.1A4.93,4.93,0,0,1,36.86,44c-.17-.26-.26-.51,0-.69A2.36,2.36,0,0,0,36.86,44Z" transform="translate(0 0)"/><path class="cls-3" d="M80.54,105.8c-.19-1.55.82-2.53.59-3.92a50.9,50.9,0,0,1-18,3.79,92.32,92.32,0,0,1-28.17-5.79c-.11.44-.21.75-.62.19a2.8,2.8,0,0,1,0-.41C24.84,96.23,16.11,91.94,7.84,88.4c1-1.28-1-2.13-1.41-3.18a13.76,13.76,0,0,0-2.14-.37c-.47,1.25-1.1,1-.94,3.51,1.62.32,1.33-.63,2.72-.2l-.6,1.36c.54.6,1.2-1.22,1.65.09a.92.92,0,0,1,.1,1.13c.58.29.92.6.84,1,3.49,1.82,7.42,3.83,11.68,5.85.12-1.19-2.16-2.07-.92-2.45,1.33.88,2.75,1.07,3.8,2.53-.32-.94.76-.44,1.34-.76l.33-.91c.05.53-.1.79-.33.91l-.64,1.72.93.86-.27,0c10.77,4.78,23.32,9.12,36.45,10.13.25-.07.57-.15,1-.27-.69.49-.45.11.52.11a1.92,1.92,0,0,1,.58.24,2.12,2.12,0,0,1,.82-.34c2.26-.09,4.42-.28,6.49-.55l.13-1,.41.9a67.31,67.31,0,0,0,11-2.43Zm-1.3.39c-.5-.83-.44-1.3-.95-2.14l1.2.29Z" transform="translate(0 0)"/><path class="cls-3" d="M78.24,65.27c-.89.41-.91,2.16-.4,3l-1.81-2c-.54.91-.76,1-1.71.38l.12-.92a.82.82,0,0,1-.59,0,56.74,56.74,0,0,1-11.38,1.72,88.37,88.37,0,0,1-21.62-4.09c-.25.57.22,2-.74.54l.33,1.2a.52.52,0,0,1,.09.33l-.09-.33c-.33-.59-1.58-1.08-1.71-.1.57.37,1.47,3,1.9,1.26.08.65-.54.68-1,.76A87.68,87.68,0,0,0,60.76,71.3c-.19,0-.27-.06-.28-.08a8.23,8.23,0,0,0,2.61,0H63c-.16,0-.45-.06-.89-.09l1.06.07c1.47-.1,3-.26,4.48-.5a6.27,6.27,0,0,0-.39-1.64c-.14-.17-.29-.35-.43-.55a1.28,1.28,0,0,1,.43.55c.56.65,1.1,1,1.51.47l-.17-.35c.74.38,1.3.73,1.84,1a90.59,90.59,0,0,0,8.88-2.34l-1-1.32.89-.43C79,65.53,78.43,65.39,78.24,65.27Zm-5.43,3.45c.5-.68-.61-1.67.24-1.85C73.56,67.7,73.48,68.4,72.81,68.72Z" transform="translate(0 0)"/><path class="cls-3" d="M22.06,58l-1.52-1c.41,1.45-.39,1.32-1,1.44l3,1.5-.26-.53c.46-.11,1.27.76,1.9,1.32l.76.36a.7.7,0,0,0,.06-.38.79.79,0,0,1,0,.4c1.49.7,3,1.4,4.57,2.08l.81-.69.27.61c2.25-.26,5.17.44,6.09-.17l1.68,1.37c-.8-1.56,1-.75,1.73-1.14a126.79,126.79,0,0,1-17.59-7.06C22.42,56.76,22.44,57.57,22.06,58Z" transform="translate(0 0)"/><path class="cls-3" d="M13,51.24l-.23-.76-.31-.2C8.87,49,4.42,47.55,5.19,46.94c-2.07-.63-4.6-.46-3.22.15.74-.31,1.65,0,1.6.4a.1.1,0,0,1,.05.08l.17,0-.16,0c0,.38-1,1.1-1.43.35h0L3,50.37l1.52,1v.24a42.09,42.09,0,0,1,4.6,1.51l-.2-.59,1.34.89-.31.14.14.08,3.53,1.78c-.4-1.64-1.32-.67-2.17-1.72.75-1,1.94,1,2.67,1.77,1.17.53.34-1,.72-.78l.95,1.83,1.74.89a.57.57,0,0,1,.08-.13c1.08,1.21,1.64-1.43,2,.8.28-.57.08-2.21-.74-2.25,1.19-1.22,1.78,2.18,3.38,1-.17-1-.81-1-1.31-1.57a78.64,78.64,0,0,1-7.59-4.41Zm-6.94-.83-1.33-.88,0-.23,1.33.88Z" transform="translate(0 0)"/><path class="cls-3" d="M52.08,87.69c.18,1.5,1.39,1.79,1.86,2.2.7.09,1.4.15,2.09.2a2.23,2.23,0,0,0,0-1.26C54.51,86.54,53.45,88.34,52.08,87.69Z" transform="translate(0 0)"/><path class="cls-3" d="M1.33,48.78c.5.15.42-.14.21-.52a2.52,2.52,0,0,0-.29.16Z" transform="translate(0 0)"/><path class="cls-3" d="M37.54,66.31l1.76.62.07-.5C38.3,64.47,38.07,65.73,37.54,66.31Z" transform="translate(0 0)"/><path class="cls-3" d="M35.84,65.7l.89.33.07-.54C36.19,65,35.9,65.2,35.84,65.7Z" transform="translate(0 0)"/><path class="cls-3" d="M12.49,70.21c-.58-.39-1.15-.78-1.68-1.16a13.33,13.33,0,0,1-2.73-.79,3.4,3.4,0,0,1,.79,1.86c-.6.08-.44,1.33-.7,2.35a1.75,1.75,0,0,1,.36.36l1.57.77a1,1,0,0,0,.17,0c-.26-1.17,1.14-.75,1.32-.63a.71.71,0,0,0-.18-1.1C12,72.1,12.06,70.82,12.49,70.21Zm-1.34,1.43.12.11C11.06,71.62,10.9,71.58,11.15,71.64Z" transform="translate(0 0)"/><path class="cls-3" d="M51.63,89.59c.74.11,1.46.2,2.18.29l-1.88-1A5.1,5.1,0,0,0,51.63,89.59Z" transform="translate(0 0)"/><path class="cls-3" d="M22.56,79.65l1.15.52a8.46,8.46,0,0,1-.32-.92Z" transform="translate(0 0)"/><path class="cls-3" d="M20.6,76.89C18.94,73.78,19,78.32,18,76.41c-.64,0-.66.35-.52.81,1.66.79,3.34,1.6,5.06,2.4l.18-1.34A9.5,9.5,0,0,1,25,77.17c-1.38-.65-2.71-1.31-4-2C20.51,75.57,20.07,75.88,20.6,76.89Z" transform="translate(0 0)"/><path class="cls-3" d="M30.93,63.75l-.29-.66a7.7,7.7,0,0,0-.86.17Z" transform="translate(0 0)"/><path class="cls-3" d="M109.71,74.67c-.84-.8-1.71-3.93-3.14-3l2-1.18c-.56,1.14,1,1.68,1.49,1.25l-.86-1.33c.89,1.08,1.49-.28,1.17-1a1.7,1.7,0,0,0-.14-.24c-.93.38-1.84.77-2.74,1.16-.24.71-1.09,1.71-3.82,3l.46,1a1.66,1.66,0,0,0-1.06-.77c-.26.12-.54.23-.83.35l-.08,0a1.34,1.34,0,0,0,0,1.1l.79.27-.37,1.26.09-.69a2.38,2.38,0,0,0-1.89-1.25C89.84,80.21,76,86.25,63,86.69l-1.3,0a.63.63,0,0,1-.52,0H61c.15,2,.78,1.92,2.18,2.1-.09.68.23,1.15-.59,1.77.19,0,.26,0,.11,0,1,0,2.86,0,1.25-.11a67.13,67.13,0,0,0,7-.67,1.65,1.65,0,0,0,0-.57l.15.54a65.5,65.5,0,0,0,9.21-2c.32-.45.67-.77,1.36-.43a68.38,68.38,0,0,0,7.67-3,4.25,4.25,0,0,0,.14-.61,2.19,2.19,0,0,1-.56-.43l.57.38s0,0,0,0a4.19,4.19,0,0,0,.63.26l.58-.28c-.18-.16-.39-.28-.09-.56,1,.65,1.18-.42,1.94-.37a93.65,93.65,0,0,0,8.73-5.17C105.38,76.71,106.78,75.63,109.71,74.67ZM105.86,74l.09.81-1.08-1.21Z" transform="translate(0 0)"/><path class="cls-3" d="M194.23,88.28c1.55.58,1.68-1.29,2.66-1.81-2.24-.93-4.41-1.83-6-2.63l-.58-.19,0,.23-1,.07.81-.39c-11.72-3.8-22.72-7.85-37.32-6.63q-1.47.13-2.94.33c-.49.67-1,1.14-2,.62.71,1,1.18.52,1.85,1.72L149.43,81A95.42,95.42,0,0,1,161,80.76c.33-.4.94-.35,1-.53l-.07.57c.48,0,1,.06,1.44.09-.46-.52-.92-.88-.8-1.79l2.28,1.51a1.09,1.09,0,0,1-.18.39A65.09,65.09,0,0,1,186,86.85a1.69,1.69,0,0,1,.77.34l1.05.49,1.65.57s0,0,0,0v.05l1,.35a13.84,13.84,0,0,1,2.27.12.62.62,0,0,1,.76-.14,1.84,1.84,0,0,1-.76.14,1.48,1.48,0,0,0-.32.61l2.07.79.06-.08a1.44,1.44,0,0,0-.35-.49l.94,0,.08-.07C195,88.58,194.56,88.75,194.23,88.28Zm-43-8.13c-.35-.48-1.56-.78-1-1.67C150.75,78.85,151.68,79.71,151.21,80.15ZM161.27,77c-.07.33-.2,1.43-1,.32.29-.76.62-.37,1-.32,0-.09,0-.12.07,0Zm28.08,10.52c.06,0,.09.18.11.35A1.53,1.53,0,0,0,189.35,87.56Z" transform="translate(0 0)"/><path class="cls-3" d="M254.53,67.33A73.73,73.73,0,0,1,233,63.49a1,1,0,0,1-1.45.48,2.71,2.71,0,0,1,.38-.82c-7.62-2.51-15.27-5.82-24.06-9a32.24,32.24,0,0,0-7.34-4l.15.65-1.17-1.08c-3.56-1.5-7.45-2.94-10.43-4.18l-2.48-.84-.33,1.64c-1.11-1-1.26.16-2.4-.59.88-.17.55-1.13.35-1.85-4.47-1.5-8.36-2.67-12.1-3.54,0,0,0,.08,0,.13l.38.26c-.69.55-.81,1.47-1.61,1.2l-.77-2c-.59.45-.92.2-1.18-.24l-.88-.15a2.76,2.76,0,0,1,.19.42l-.21-.42q-1.66-.3-3.36-.51c-1,1.2-1.84.47-2.78-.29-1.39-.11-2.82-.18-4.3-.22-.39.26-.58.76-.16,1.81-1.24-1.57-3-.49-4.17.27l.16-1.17c-.49-.78-1.2.25-1.18.87a.88.88,0,0,1,.2.25l-.2-.12a.57.57,0,0,1,0-.13c-.7-.66-1.81.61-2.59-.59.72,0,.83-.66,1-1.11l-1.78.08a87,87,0,0,0-19.11,4.19l.65,1.22c-.38-.25-.95-.63-.82,0l-1-.81c-6.79,2.3-13,5.1-16.72,7.57a59.41,59.41,0,0,1-10,3.42.37.37,0,0,1-.24.51l-.18-.4-.87.22-1.74,1c.52.46,1,.68,1.43.07l-1,1.35.19.12L97.89,61l2-.8a8.11,8.11,0,0,1-.57-.81c1.46,1.47.5-2.19,1.9-.25l-.87.88,4.32-1.75c0-.3.29-.62.79-1,0-.2,0-.41,0-.64l.67.23a32.65,32.65,0,0,1,5.79-2.11c7.47-4.32,18.66-8.48,29.78-10.78l0-.29.16.25,1.08-.22c-.15-.82.83-.74,1.49-.28,2.65-.48,5.28-.84,7.83-1.06,5-.7,11.56-.22,19.3,1.45,0-.08.09-.13.16-.13a1.45,1.45,0,0,1,.12.19c2.56.55,5.24,1.24,8,2a.59.59,0,0,1,.45-.06v.19c3,.87,6,1.87,9.25,3,1.93.7,3.82,1.39,5.65,2.08.57-1.2,1.33-1.68,3.22.17l-.44.88c4.45,1.71,8.6,3.43,12.5,5.27,9.41,6.6,23.21,12.85,37,13.5.63.08,1.06.14,1.34.19,0,0,0-.08.06-.12-.39,0,4.41.28,4.07.33,2-.13.86-1.36.8-2.35C255.63,68.14,253.29,67.6,254.53,67.33Zm-100.06-26,.7-.55.5.85Zm5.09-.91-.86-1.32,1.23.06C159.87,39.6,159.62,39.93,159.56,40.39Zm34.42,9-.07-1.06,1,.17Z" transform="translate(0 0)"/><path class="cls-3" d="M248.83,71.18c.17.13,1.06.17,0,0Z" transform="translate(0 0)"/><path class="cls-3" d="M236.94,84.16l-1.74-.5-.07.53C235.74,84.93,236.35,84.17,236.94,84.16Z" transform="translate(0 0)"/><path class="cls-3" d="M252.81,71.4h0Z" transform="translate(0 0)"/><path class="cls-3" d="M211.25,73c-7-2.5-11.73-6-20.71-7.86a82.44,82.44,0,0,0-30.8-7.35v0l-1,.07.54-.15a79.5,79.5,0,0,0-9.94.26A121.17,121.17,0,0,0,126,63.45c0,.36,0,.76,0,1.21l-.47-1-.79.26a6.27,6.27,0,0,1,0,2c-2.14-4-1.07,1-2.29,1.3a4.19,4.19,0,0,0,2.12.09l.28.82,1-.41c-.37-.9-.65-2,.17-2.43a3.85,3.85,0,0,1,.94,2c.89-.33,1.79-.65,2.71-1a1.31,1.31,0,0,1-.38-.66l1.48-.27c.18.6-.38.51-.54.73a84.27,84.27,0,0,1,19-4.31,82.47,82.47,0,0,1,39.8,6.78c8.74,2.05,11.65,5.08,16,7.84,0,0,.09,0,.2.09.31-.8-.51-.84-.64-1.43l3.29.16a3.62,3.62,0,0,1-.68,2.06l.12.15,3.51,1.37c.06-.65.36-1.44-1.29-2a2,2,0,0,0,.06,1c-1.14-.75-.13-.58-1-1.45l.86-.18c-.33-.73-.89-1.1-.61-1.67,1.61,2,2.78-1.68,4.37,0l-.2-.28a1.11,1.11,0,0,1,.23,0C212.57,73.87,211.89,73.45,211.25,73Zm-30.52-9.55-.23-1.41c.48,1.07,1.37.65,1.72,1.15C181.8,63.19,181.46,64.21,180.73,63.48Zm14.2,5.38c-.36-1.31.82-.68,1-.9l0-.21a.27.27,0,0,1,0,.21l.14,1.66Z" transform="translate(0 0)"/><path class="cls-3" d="M250.18,52.18a0,0,0,0,0,0,0S250.17,52.17,250.18,52.18Z" transform="translate(0 0)"/><path class="cls-3" d="M252.92,71.39h0Z" transform="translate(0 0)"/><path class="cls-3" d="M251.59,52.38a4,4,0,0,1-1.41-.2C250.05,52.26,249.41,52.27,251.59,52.38Z" transform="translate(0 0)"/><path class="cls-3" d="M220.35,82.53l.13,0,0-.07Z" transform="translate(0 0)"/><path class="cls-3" d="M253,71.39h0Z" transform="translate(0 0)"/><path class="cls-3" d="M241.56,47c.25.41.53.71.9.53-.45.42-.92-.08-1.32-.61C231,44.7,220.63,39.82,207.86,35.12a8.53,8.53,0,0,0-1.31-1.5,3.45,3.45,0,0,1-1.64-1.17h.2c-3.16-2.26-7.87-4.16-11.84-5.68-2.65-1.06-5.62-2.09-8.74-3l-.22.1,0-.17a112.38,112.38,0,0,0-19.63-4.1,1.26,1.26,0,0,0,.14.26l.37.13c-.15.07-.26,0-.37-.13l-.42-.15a.33.33,0,0,0,0-.14c-.92-.1-1.84-.18-2.75-.25l-.12.24-.21-.26c-1.67-.12-3.3-.17-4.88-.16.31.25.64.45,1,.21.17,1.87-1.73.62-1.15,2.51.34.48.63-.08,1,.4a8.73,8.73,0,0,0-.16,1h.58l.1-.13a1.12,1.12,0,0,0-.05.13l.67,0-.79-2,1,.41,0,1.62a75.45,75.45,0,0,1,25.36,4.91c.72-.8,1.41-1.92,2.63-1.85.36,2,.73-.78,1.61.32l.59,1.89c-1.06-1.45-1.75-.91-2.28,0l.38.25a4.72,4.72,0,0,1-.46.45c.76.35,1.5.71,2.23,1.1a71.62,71.62,0,0,1,20.6,8.28C221.84,45,235,51,250.13,52.1c.05,0,.06,0,.06,0a8.09,8.09,0,0,1,1.86-.16c.13,0,4.13-1,2.67-1.83,2.17-1.39-3.28-1.89-4-2A49.64,49.64,0,0,1,241.56,47Z" transform="translate(0 0)"/><path class="cls-3" d="M147.18,77.62l.31.83a4.25,4.25,0,0,0,.27-.91Z" transform="translate(0 0)"/><path class="cls-3" d="M140.51,24.75c-.16-.37-.34-.48-.29-.94.45.73,1.07.05,1.11.79l.53-.1a2.12,2.12,0,0,0,.32-1.42c-.19-.11-.41,0-.61-.15l.73-.76.07,1c-.1-.82,2.82.6,1.86-1.54l.79,1.79c.13-.93,1.27-.17,1.9-.26-.95-.62,0-1.28-.16-1.87,1.3,1.12,2.4-.92,3.44-1a1.35,1.35,0,0,0-.32-.86A120.66,120.66,0,0,0,120,26.8c.12.66.54,1.84-.42,1.2.25-.12,0-.63,0-1-4,1.49-7.54,3.05-10.58,4.51-2.12,1-3.41,2.32-6.17,3.45a2.65,2.65,0,0,0,.4,1.07,3.78,3.78,0,0,0-3.63.87c-.14-.17-.27-.35-.4-.53-.94.42-1.87.85-2.79,1.28.06.47.2,1-.76.91a1.46,1.46,0,0,0,.35.61l.64.18c.16,0,.29,0,.34.1l-.34-.1a.72.72,0,0,1-.64-.18,6.47,6.47,0,0,1-1.5-.63l-1.21.56a1,1,0,0,1,0,.17l-.28,0-.73.33c-.29.58.12,1.67-1.29,1.44,0,.06.05.1.07.16a7.19,7.19,0,0,0,1.07.6.86.86,0,0,1-1.07-.6c-.43-.23-.78-.31-.76.38l-.49-.85-1.92.85a2.81,2.81,0,0,1,0,.29,1.29,1.29,0,0,1,.08.53,1.22,1.22,0,0,0,.84,1c.63-.09-.17-1.88.94-.9l-.08.71c-.08,3.71,1.35-.87,2.53,1.17a3.53,3.53,0,0,0-.19-.47l-.16,0a.12.12,0,0,1,.16,0,2.64,2.64,0,0,1,.9.68c4.14-1.69,8.34-3.55,12.84-5.45-.45-1.39,4.09-2.61,6.63-3.56a98.13,98.13,0,0,1,28.25-10.77C140.56,24.7,140.52,24.69,140.51,24.75Zm-47.64,19-.48-1.07,1.49-.28C94.52,43.85,93.31,43.55,92.87,43.76Zm2.37-.69c-.41,0-.54-.62-.86-1.33l1.14.76C95.65,43.08,95.46,43,95.24,43.07Zm.47-2a2.71,2.71,0,0,1-1.4-1.94C94.75,40.47,96,40.31,95.71,41.11Z" transform="translate(0 0)"/><path class="cls-3" d="M87.78,41.57l-.59.26.43,1a.55.55,0,0,0,.33-.45,3.08,3.08,0,0,1-.08-.53A2.5,2.5,0,0,0,87.78,41.57Z" transform="translate(0 0)"/><path class="cls-3" d="M122.55,64.58c-1.66.56-3.31,1.15-4.94,1.75.86,1.07,1.2,2.67,2.22,3.88l1.72-.77c0-1.58-.45-1,.78-1.12a2.57,2.57,0,0,0-.22-1.17h0a1.71,1.71,0,0,1-.19-1.87A3.51,3.51,0,0,0,122.55,64.58Zm-4.49,1.66,1-.07.07,1.06Z" transform="translate(0 0)"/><path class="cls-3" d="M146.82,81.23l1-.1A1.77,1.77,0,0,0,146.82,81.23Z" transform="translate(0 0)"/><path class="cls-3" d="M135.74,81.23l-.32,2.41c.81-.25,1.61-.48,2.42-.7,0-.1,0-.2,0-.32.88-.43,3.06-1.25,3.49-3,.42,1.53,1.74-.61,2.23,2,1.75-1-1.08-1.55-.62-3.27-1,.2-2.06.42-3.09.65l.5.25-1.48.27,0-.3c-1.5.35-3,.73-4.44,1.13C134.67,81.53,135.05,81.77,135.74,81.23Z" transform="translate(0 0)"/><path class="cls-3" d="M155.13,20.6V19.12l-.76,0C154.22,19.83,154,20.41,155.13,20.6Z" transform="translate(0 0)"/><path class="cls-3" d="M1.25,11.93c.43.72,3,1.43,4.85,2.11L6,13.84c.82,0,1.61.31,1.38-1.1l1.6,2.06c.2-3.13,2.82,2.13,5,1.3.16.36-2.28,0-1.58,1l.19.12a2.82,2.82,0,0,1-1.12.11c1.28.74,2.61,1.49,4,2.25L14.1,18l1.17.53L14.85,17l.57.38.1,2.26A117.38,117.38,0,0,0,35,28v-.22l.3.31a100.75,100.75,0,0,0,25.57,4.71c-.58,0-1,.09.14.25l0-.34L61,33l.72.08-.11,0a1.34,1.34,0,0,1,0-.21h-.33l.23,0h.11v0h0c.07-.34.32-.27.62,0l1.37-.1,1.65-2.2L65,30.35c1.09-1.3,3.7-.39,4.21-2.17a54.77,54.77,0,0,1-6.82.85,76.39,76.39,0,0,1-16.59-2.41l.76,1.22c-.56-.68-1.84.52-2.16-1.33.28.1.43,0,.49-.13A130.46,130.46,0,0,1,13.39,13.11c-.23.79-.26,1.8-1.24.81,1.67.36.67-.61.07-1.5l-1-.62c-2.5-1.42-6.75-2.45-5.49-3.26-1.66-1-4.38-.42-2.38.71C.09,10.35-1.14,11.14,1.25,11.93Zm35.82,15.2.25-.05c0,.1-.11.1-.25.05l-1.46.33C35.61,26.28,36.6,27,37.07,27.13ZM15.35,16.29l-1.23-1.57C14.71,14.86,15.83,15.85,15.35,16.29ZM3.65,10.81l0,.23-1-.17Z" transform="translate(0 0)"/><path class="cls-3" d="M129.7,42.87l-.45.15C129.51,43.19,129.69,43.28,129.7,42.87Z" transform="translate(0 0)"/><path class="cls-3" d="M201.11,88.28c-.36,1.47-2.79-.36-2.13,1.64a7.12,7.12,0,0,0-2.26-1.75,15.43,15.43,0,0,1-1.44,1.27l0,.07h-.11a7.41,7.41,0,0,0-.6.64l2,.81c1.15,0,2.71-.37,1.83-.13a2.22,2.22,0,0,1-.31.75c3.31,1.37,6.63,2.82,10.47,4.4l2,1.08c.86-.49,2.08-.7,2.61-1.76a1.33,1.33,0,0,0,1.89.4c-2.59-1.1-5.14-2.24-7.64-3.37C206.88,91.09,204.25,89.68,201.11,88.28Z" transform="translate(0 0)"/><path class="cls-3" d="M69.72,29.43c1.14.75,2.08-.13,2.43-1.17.09.83.67,1.21.29,2.46.66-.31,1.08-.29.66-1.83-.26-1.18,1.7-.38,2.72-.2l-1.14.75.79,1L76.78,30a1,1,0,0,0,0-1L76.61,29c.85-.18,3.32-.06,2.65-1.26.68-.63.89.64,1.22,1.2l1.37-.46c-.43-.57-.91-1.1-1.32-.9l1.07-.3.5,1.12c1.18-.41,2.38-.83,3.58-1.27a1.07,1.07,0,0,1-.3-.36,3.87,3.87,0,0,0,1.28-.38,3.08,3.08,0,0,0-.45.55c4.36-1.59,8.89-3.35,13.75-5.11l-.81-.53c.44-.21,1-1.11,1.3-.4l-.22.1.39.59,1.43-.51-.11-.45,1.26-.17a1.48,1.48,0,0,0,0,.21l2.44-.84c1-1,4.82-2.2,7.95-3.49C124.34,11.11,137,5.09,153,4.29c7.26-1.55,21.79.93,35.68,6.63a52.44,52.44,0,0,1,6.45,2.13c-.1-.17-.18-.42-.36-.44s-.2.13-.25.09a.32.32,0,0,1,.25-.09c.26-.18.62-.44,1,.15a1.24,1.24,0,0,1-.34.4c1.73.7,3.35,1.45,5,2.21a6,6,0,0,0,.22-.59,1.39,1.39,0,0,1-.19-.15l.19.13v0c2.07,1.76,3.27-1,5-.88-3.23-2.22-9.47-4.67-16.25-6.85A91.18,91.18,0,0,0,177.9,3.13l-.17,0,.48,1.07c-1-1.91-.85.19-1.43-.19l-.47-1.07.23-.14c-7.93-2-17.19-3.44-24.92-2.46-14.23.91-28,6-38.53,10.92a1.89,1.89,0,0,1,.16.48,1,1,0,0,1-1.42.11l-.58.28a13.16,13.16,0,0,1,2.17,1.48c-1.11.53.32,2.23-1,2.86L112,15.14c-.53.91-1.67,1.67-2.61,1l.29.94-2-.79c-.24-.33.6-1.48.37-2.29l-1.12.44,0,0a36.82,36.82,0,0,0-4.13,1.62c-12,5.18-22.7,10-33.26,12C69.87,28.53,70.37,29,69.72,29.43ZM175.11,4.14c.14-.19.32-.11.48,0s.22.06.31.26c-.08,0-.19-.17-.31-.26a.63.63,0,0,0-.37.18l.4.64-1-.16a4.11,4.11,0,0,0,.61-.48Zm-52.2,3.41c.94-.89,3.23,2.14,4.08.44.36,2-1.07.3-1.13,2.28-.9-2.61-1.7.37-3-1A5.64,5.64,0,0,0,122.91,7.55Zm-.69,2.06-.22.1-.41-1.53Zm-13.69,8c-.22.11-.63.08-.5.68-.17-1.88-1.07.28-1.68-1.38Z" transform="translate(0 0)"/><path class="cls-3" d="M1.51,50.21c0,.31.59.6,1.43.91L1.27,49.24l-.17,0C1.34,49.61,1.73,49.92,1.51,50.21Z" transform="translate(0 0)"/><path class="cls-3" d="M39.55,44.66l-.66.32c1,.16.61,1.65,1.68,1.37a9.19,9.19,0,0,0,.52-1.7C40,44.31,39,44,37.93,43.59Z" transform="translate(0 0)"/><path class="cls-3" d="M163.35,80.65l.11.25.82.07C164,80.76,163.74,80.35,163.35,80.65Z" transform="translate(0 0)"/><path class="cls-3" d="M96.77,59.69c-.75,1-1.8-.45-2.58.8l.18-1.39c-1.78-.67-.25,1.85-2.46,1.39l.66,1.19-.95-.63c-.12.93.43,3-.9,2.16l.26.51c2.17-.84,4.35-1.72,6.53-2.6A2,2,0,0,1,96.77,59.69Z" transform="translate(0 0)"/><path class="cls-3" d="M113.62,73.47c.31-.19.62-.39,1-.58a1.34,1.34,0,0,1-.67-.34A1.36,1.36,0,0,1,113.62,73.47Z" transform="translate(0 0)"/><path class="cls-3" d="M92.27,101.84l.77-.39s0,0,0,0a2.14,2.14,0,0,0-.46-.26A.61.61,0,0,0,92.27,101.84Z" transform="translate(0 0)"/><path class="cls-3" d="M132.34,83.5c-.16-.35-1-.63-.48-1.07.79.28,1.83.21,2-.94a1.41,1.41,0,0,0-.7-.77l-1.89.55a1.91,1.91,0,0,1-1.58.49l-1.2.4.09.1-.68.09a96.35,96.35,0,0,0-16,7c-3.2,1.27-5.07,2.74-9.85,3.57-4.09,1.72-7.81,3.41-11.33,5a.25.25,0,0,0,0,.07c.88-.42,1.45,0,2.18.7l-.63.08c0,.24.16.37.35.49l-1.45,0c.5.84,1.2.29,1,1.91a.56.56,0,0,1,.44,0l.2-.1.26.36,0,0c1.13-.58,2.23-1.16,3.3-1.76-.31-.71-.77-1.65.51-1.44a1.07,1.07,0,0,1,.32,1q2.25-1.29,4.38-2.59l1-.32c-.45-.62-.86-1.38-.41-1.87,1.9,1.26,1.23-1.45,2.65-1.26-.15,1.16-1.47,1.79-2.23,2.8l.19.26c3.89-1.33,5.47-2.4,9.41-3.65,8.4-3.13,15.65-6.57,23.13-8.89A2.23,2.23,0,0,0,132.34,83.5ZM93.58,101.1l-.23-1.41.54.62Zm13.47-7.93c-.29-2.47,2.33-.47,2.87-1.37C109,92.91,108.76,94.3,107.05,93.17Z" transform="translate(0 0)"/><path class="cls-3" d="M79.54,64.1l.08.07c-.84.71-.06,2.1.43,3.47q2.72-.87,5.46-1.86a.31.31,0,0,1-.26-.39l.23-.11c-1-1.45-1.44-1.71-2.54-1.17l.33,1a3.49,3.49,0,0,0-2.58-1.2l.16.36-.32-.46Z" transform="translate(0 0)"/><path class="cls-3" d="M84.26,104.21a5.79,5.79,0,0,0-2.11.4,2.19,2.19,0,0,1,.12,1.37c1.17-.38,2.3-.79,3.41-1.22a2.92,2.92,0,0,0-1.41-.55v0Z" transform="translate(0 0)"/><path class="cls-3" d="M81.44,101.76c.46.25.84,0,1.7,0l1.12,2.48h0c.1-.68.41-1.46,1.22-1.43.13-.92-.61-1.65-1-2.13l.66-.41C83.93,100.77,82.68,101.28,81.44,101.76Z" transform="translate(0 0)"/><path class="cls-3" d="M87,65.22a.78.78,0,0,0-.34.13Z" transform="translate(0 0)"/><path class="cls-3" d="M113.17,73.74c-.67.19-1.66-.13-2.32.05a3.63,3.63,0,0,1-.27.61c.73-.21,1.54-.41,2.5-.6Z" transform="translate(0 0)"/><path class="cls-3" d="M89.83,63.64a1.55,1.55,0,0,0-.11.56l.75-.29C90.27,63.68,90.05,63.53,89.83,63.64Z" transform="translate(0 0)"/><path class="cls-3" d="M249,109.6s0-.09.12-.14h-.83Z" transform="translate(0 0)"/><path class="cls-3" d="M252.26,107.63a3.17,3.17,0,0,1,.82-1.88,60.9,60.9,0,0,1-7.66-.65c-1,1.23-1.34,3.89-3.63,2.37l.86,1.32h-.19a58.22,58.22,0,0,0,6.88.61l-.18.07c2.78,0,2.81-.12,2.2.06C254.35,109.64,254.17,109,252.26,107.63Zm-5.26-.48c-.21.11-.47.45-1-.16l1.14-.76.51,2.35Z" transform="translate(0 0)"/><path class="cls-3" d="M254.88,90.14l-.22,0A.27.27,0,0,0,254.88,90.14Z" transform="translate(0 0)"/><path class="cls-3" d="M252.35,86.83a49.9,49.9,0,0,1-5.59-.54h-.1l-2-.33a1.69,1.69,0,0,0,0,.23.38.38,0,0,1-.1-.25c-2.36-.43-4.81-1-7.28-1.69a1.39,1.39,0,0,1,.51.66c-.42,0-.47.44-.73.78,0,1.74,1.15.76,1.34,2.39-.15,1.16-.75-.5-1.14-.75-.81-1.25-2.66-1.62-2.07-3.68-1.16-.35-2.33-.72-3.48-1.11a.59.59,0,0,0,0,.08c-.36.1-.66-.11-1-.42l-2-.71.27.88A2.65,2.65,0,0,1,227.5,81l-1.28-.5c-.38.41-.65.41-1.2.23a2.85,2.85,0,0,1,.44-.52l-1.11-.47c-.3.23-.44.6,0,1.31-1.15-2.27-3.28-.17-3.67-1.94-.8-.27-.29.57-.19,1.39a1.17,1.17,0,0,0-1.17-.52l.18-1.39c-1.46-1.48-.12.92-1.68.14a3.67,3.67,0,0,1,.11-1.93c-1.48-.74-2.88-1.51-4.2-2.28.12.45,0,1.31.67,2-1.68-1.38-2,1.41-3.25,1.11.32.72.76.5,1.14.75v1l7.41,2.92a2.54,2.54,0,0,0-.34-1l1.07-.29.23,1.41c.89-.42,1.64-1.45,2.66-1.27,1.11,2.29-.06,1.89-1.06,2.13,9.59,3.68,18.15,6.53,26,7,.87,0,.72,0,.4,0,2.93.06,2,.38,5.94-.16-.19-.09.36-.84,2.49-1.78C254.55,87.14,254.06,86.24,252.35,86.83Zm-35.58-7.77c-.53.41-.57-.14-.8-.6a.59.59,0,0,1-.32-.39,1,1,0,0,1,.32.39C216.4,78.66,217,78.26,216.77,79.06Zm.48,1.07c0-.23.28-.57-.07-1L218,80.4Zm30.58,8.2c-.32-2.24,1.32-2.16,2.4-.93C250.18,89.38,248.72,87.9,247.83,88.33Z" transform="translate(0 0)"/><path class="cls-3" d="M6.54,71.52A10.71,10.71,0,0,1,8,72.34C7.54,71.15,7.11,71.38,6.54,71.52Z" transform="translate(0 0)"/><path class="cls-3" d="M249,109.6c.09.14.72.16,0,0Z" transform="translate(0 0)"/><path class="cls-3" d="M143,43.71l.72-.14C143.41,43.27,143.16,43.12,143,43.71Z" transform="translate(0 0)"/><path class="cls-3" d="M196.76,51.73l1.19.46.12-.87C197.76,51.61,197,51.37,196.76,51.73Z" transform="translate(0 0)"/><path class="cls-3" d="M213.12,18.24a1.13,1.13,0,0,1-.75,0l.16.35c-1.18-.52-2.35-1-2.75.46l-1-1.69-.95.88c-.47-1.08,1.46,0,.44-1.73-1.34-.74-2,.24-2.83,1,1.54.62,3.21,1.23,5.12,1.83,8.86,6,25,12.52,39.65,13.37-2.47,0-1.79.11,2.11.11,0,.18.66-.23.43.09,3.38-.33,3-1-.47-2.31,3.38-.63,3.93-1.65-2-1.52C236.93,29.2,225,23.89,213.12,18.24Z" transform="translate(0 0)"/><path class="cls-3" d="M199.85,88a2.34,2.34,0,0,1-.11-.3l-1.08-.47A1,1,0,0,0,199.85,88Z" transform="translate(0 0)"/><path class="cls-3" d="M248.72,90.33h-.63C247.85,90.37,248.38,90.35,248.72,90.33Z" transform="translate(0 0)"/><path class="cls-3" d="M59.93,52.24Z" transform="translate(0 0)"/><path class="cls-3" d="M15.67,37.39a4.85,4.85,0,0,0,.47.71l2.14,1.11c.3-1.14,1-1.88.26-3.19a1.54,1.54,0,0,0,1.67-.34l-2.3-1.19C16.82,35,15.62,35.41,15.67,37.39Z" transform="translate(0 0)"/><path class="cls-3" d="M82.89,45.7l.21-1.62c-.2-.14-.34-.3-.46-.37l-1.75.66C81.68,45.39,82.74,44,82.89,45.7Z" transform="translate(0 0)"/><path class="cls-3" d="M86.93,44.86c-1.78-.68-2.44-.37-3.6.63L84,46.68c.73.75.33-2.54,1.48-.27-.09,1.91-1.48.35-2,.57l-.21.73c0-.47.06-.67.21-.73l.16-.55c-1.49-1.23-2.12.36-3,.55a1.05,1.05,0,0,0,.1.3l.36.28c.5.07,1.19-.48,1,.66a5.22,5.22,0,0,1-1-.66.45.45,0,0,1-.36-.28c-.61-.46-1.15-.81-1.33-.35.13.57.54.59.9,1.08L79.07,48l.16.36-1.52-1,.28,1c-.71-.48-.8-2.1-1.3-2.46L76,46c-.44.75-2.82,1.11-3.2,2.56l-.64-1.44c-.17.62-.7.57-1.34.17-.93.19-1.87.36-2.82.5a.72.72,0,0,0-.1.29l-.18-.24c-1.69.24-3.41.41-5.18.49-2.25-.07-4.42-.24-6.55-.49a2.51,2.51,0,0,1,.11.23l-1.28-.21c-.16.15-.39.18-.75-.13l.75.13.12-.13c-1.19-.15-2.34-.33-3.49-.54a13.09,13.09,0,0,0,.51,2.41c.19.13.41,0,.26-.33l.48,1.07a5.28,5.28,0,0,0-1.6.28,95,95,0,0,0,11,1.22,5.14,5.14,0,0,0-1.26.19c-.16,0-.22,0-.22,0a6.36,6.36,0,0,1-1.17,0c-.64.1-.09.15.48.18h0c.69,0,1.4,0,0,0-.09,0-.09-.1.94-.12a3,3,0,0,0,.73,0h.54l-.37,0L62,52c3.56.08,1.48,0,.93-.17A79.65,79.65,0,0,0,86.34,47a.67.67,0,0,1-.29-.23C86.47,46.81,86.59,45.89,86.93,44.86Zm-33.86,4c1,.4.9,1.09,1.44,1.71Zm9.72,1.66c-1-.41-1.89,1.77-2.59.8,2,.33.43-3.24,2.71-1.73Zm13.69-1.75c-.48-1.07,0-1.51.56-1.13C77,48.08,77.05,49.12,76.48,48.75Z" transform="translate(0 0)"/><path class="cls-3" d="M91.09,45.24l1.4-.56A1.09,1.09,0,0,0,91.09,45.24Z" transform="translate(0 0)"/><path class="cls-3" d="M78.93,64.3l-.23.07A.23.23,0,0,0,78.93,64.3Z" transform="translate(0 0)"/><path class="cls-3" d="M4.41,89.74l.65.2,0-.21A4.32,4.32,0,0,0,4.41,89.74Z" transform="translate(0 0)"/><path class="cls-3" d="M87.49,103.35c.1.82-1-1.44-1.65-1.6.35,1.16.14,1.94.38,2.79.89-.35,1.76-.71,2.61-1.09-.61-.47-1.4-.89-2-1.29C86.5,103,88.15,103,87.49,103.35Z" transform="translate(0 0)"/></g></g></g></g></svg>