<svg xmlns="http://www.w3.org/2000/svg" width="12.25" height="12.25" viewBox="0 0 12.25 12.25"><path d="M11.922-5.742a.316.316,0,0,1,.232.1.316.316,0,0,1,.1.232v.328a.316.316,0,0,1-.1.232.316.316,0,0,1-.232.1h-5.3v5.3a.316.316,0,0,1-.1.232.316.316,0,0,1-.232.1H5.961a.316.316,0,0,1-.232-.1.316.316,0,0,1-.1-.232v-5.3H.328a.316.316,0,0,1-.232-.1A.316.316,0,0,1,0-5.086v-.328a.316.316,0,0,1,.1-.232.316.316,0,0,1,.232-.1h5.3v-5.3a.316.316,0,0,1,.1-.232.316.316,0,0,1,.232-.1h.328a.316.316,0,0,1,.232.1.316.316,0,0,1,.1.232v5.3Z" transform="translate(0 11.375)" fill="#002350"/></svg>