<svg xmlns="http://www.w3.org/2000/svg" width="42.836" height="30.5" viewBox="0 0 42.836 30.5">
  <g id="Group_5259" data-name="Group 5259" transform="translate(-368.88 -384.473)">
    <g id="Group_3153" data-name="Group 3153" transform="translate(373.725 409.381)">
      <ellipse id="Ellipse_22" data-name="Ellipse 22" cx="18.995" cy="2.795" rx="18.995" ry="2.795" transform="translate(0 0)" fill="#ddf1fc"/>
    </g>
    <g id="Group_3154" data-name="Group 3154" transform="translate(404.755 390.747)">
      <rect id="Rectangle_1054" data-name="Rectangle 1054" width="4.046" height="19.73" transform="translate(0.187 0.187)" fill="#fff"/>
      <path id="Path_869" data-name="Path 869" d="M474.859,422.373h-4.046a.187.187,0,0,1-.187-.187v-19.73a.187.187,0,0,1,.187-.187h4.046a.187.187,0,0,1,.187.187v19.73A.187.187,0,0,1,474.859,422.373ZM471,422h3.672V402.642H471Z" transform="translate(-470.626 -402.268)"/>
    </g>
    <g id="Group_3155" data-name="Group 3155" transform="translate(382.946 384.472)">
      <path id="Path_870" data-name="Path 870" d="M409.3,411.008v-19.73L420.157,385l10.956,6.275v19.73Z" transform="translate(-409.118 -384.816)" fill="#fff"/>
      <path id="Path_871" data-name="Path 871" d="M430.769,410.852H408.961a.187.187,0,0,1-.187-.187v-19.73a.187.187,0,0,1,.093-.162L419.72,384.5a.186.186,0,0,1,.186,0l10.956,6.275a.187.187,0,0,1,.094.162v19.73A.187.187,0,0,1,430.769,410.852Zm-21.621-.374h21.434V391.043l-10.768-6.167-10.666,6.166Z" transform="translate(-408.774 -384.472)"/>
    </g>
    <g id="Group_3156" data-name="Group 3156" transform="translate(393.799 384.473)">
      <path id="Path_872" data-name="Path 872" d="M455.086,391.278,444.458,385h-4.373l10.956,6.275Z" transform="translate(-439.897 -384.817)" fill="#fff"/>
      <path id="Path_873" data-name="Path 873" d="M454.742,391.122H450.7a.189.189,0,0,1-.093-.025l-10.956-6.275a.187.187,0,0,1,.093-.349h4.374a.185.185,0,0,1,.1.026l10.628,6.274a.187.187,0,0,1-.1.348Zm-4-.374h3.311l-9.994-5.9h-3.619Z" transform="translate(-439.554 -384.473)"/>
    </g>
    <g id="Group_3157" data-name="Group 3157" transform="translate(389.529 389.798)">
      <rect id="Rectangle_1055" data-name="Rectangle 1055" width="3.954" height="0.863" transform="translate(0.187 0.187)" fill="#fff"/>
      <path id="Path_874" data-name="Path 874" d="M431.585,400.814h-3.954a.187.187,0,0,1-.187-.187v-.863a.187.187,0,0,1,.187-.187h3.954a.187.187,0,0,1,.187.187v.863A.187.187,0,0,1,431.585,400.814Zm-3.767-.374H431.4v-.489h-3.579Z" transform="translate(-427.444 -399.577)"/>
    </g>
    <g id="Group_3158" data-name="Group 3158" transform="translate(394.421 389.798)">
      <rect id="Rectangle_1056" data-name="Rectangle 1056" width="2.309" height="0.863" transform="translate(0.187 0.187)" fill="#fff"/>
      <path id="Path_875" data-name="Path 875" d="M443.812,400.814H441.5a.187.187,0,0,1-.187-.187v-.863a.187.187,0,0,1,.187-.187h2.308a.187.187,0,0,1,.187.187v.863A.187.187,0,0,1,443.812,400.814Zm-2.121-.374h1.934v-.489H441.69Z" transform="translate(-441.316 -399.577)"/>
    </g>
    <g id="Group_3159" data-name="Group 3159" transform="translate(389.049 400.361)">
      <rect id="Rectangle_1057" data-name="Rectangle 1057" width="6.372" height="2.023" transform="translate(0.187 0.187)" fill="#fff"/>
      <path id="Path_876" data-name="Path 876" d="M432.642,431.934h-6.372a.187.187,0,0,1-.187-.187v-2.023a.187.187,0,0,1,.187-.187h6.372a.187.187,0,0,1,.187.187v2.023A.187.187,0,0,1,432.642,431.934Zm-6.185-.374h6V429.91h-6Z" transform="translate(-426.082 -429.536)"/>
    </g>
    <g id="Group_3162" data-name="Group 3162" transform="translate(387.916 402.385)">
      <g id="Group_3160" data-name="Group 3160" transform="translate(0 0)">
        <rect id="Rectangle_1058" data-name="Rectangle 1058" width="5.934" height="4.046" transform="translate(0.187 0.187)" fill="#fff"/>
        <path id="Path_877" data-name="Path 877" d="M429.178,439.695h-6.309v-4.421h6.309Zm-5.934-.374h5.56v-3.672h-5.56Z" transform="translate(-422.869 -435.274)"/>
      </g>
      <g id="Group_3161" data-name="Group 3161" transform="translate(4.249 0.187)">
        <line id="Line_119" data-name="Line 119" y2="4.046" transform="translate(0.187 0)" fill="#fff"/>
        <rect id="Rectangle_1059" data-name="Rectangle 1059" width="0.374" height="4.046"/>
      </g>
    </g>
    <g id="Group_3165" data-name="Group 3165" transform="translate(393.851 402.385)">
      <g id="Group_3163" data-name="Group 3163" transform="translate(0 0)">
        <rect id="Rectangle_1060" data-name="Rectangle 1060" width="5.934" height="4.046" transform="translate(0.187 0.187)" fill="#fff"/>
        <path id="Path_878" data-name="Path 878" d="M445.821,439.695h-5.934a.187.187,0,0,1-.187-.187v-4.046a.187.187,0,0,1,.187-.187h5.934a.187.187,0,0,1,.187.187v4.046A.187.187,0,0,1,445.821,439.695Zm-5.747-.374h5.56v-3.672h-5.56Z" transform="translate(-439.7 -435.274)"/>
      </g>
      <g id="Group_3164" data-name="Group 3164" transform="translate(4.249 0)">
        <line id="Line_120" data-name="Line 120" y2="4.046" transform="translate(0.187 0.187)" fill="#fff"/>
        <path id="Path_879" data-name="Path 879" d="M451.937,439.695a.187.187,0,0,1-.187-.187v-4.046a.187.187,0,1,1,.374,0v4.046A.187.187,0,0,1,451.937,439.695Z" transform="translate(-451.75 -435.274)"/>
      </g>
    </g>
    <g id="Group_3168" data-name="Group 3168" transform="translate(387.916 406.431)">
      <g id="Group_3166" data-name="Group 3166" transform="translate(0)">
        <rect id="Rectangle_1061" data-name="Rectangle 1061" width="5.934" height="4.046" transform="translate(0.187 0.187)" fill="#fff"/>
        <path id="Path_880" data-name="Path 880" d="M429.178,451.171h-6.309V446.75h6.309Zm-5.934-.374h5.56v-3.672h-5.56Z" transform="translate(-422.869 -446.75)"/>
      </g>
      <g id="Group_3167" data-name="Group 3167" transform="translate(4.249 0.187)">
        <line id="Line_121" data-name="Line 121" y2="4.046" transform="translate(0.187)" fill="#fff"/>
        <rect id="Rectangle_1062" data-name="Rectangle 1062" width="0.374" height="4.046" transform="translate(0 0)"/>
      </g>
    </g>
    <g id="Group_3171" data-name="Group 3171" transform="translate(393.851 406.431)">
      <g id="Group_3169" data-name="Group 3169">
        <rect id="Rectangle_1063" data-name="Rectangle 1063" width="5.934" height="4.046" transform="translate(0.187 0.187)" fill="#fff"/>
        <path id="Path_881" data-name="Path 881" d="M445.821,451.171h-5.934a.187.187,0,0,1-.187-.187v-4.046a.187.187,0,0,1,.187-.187h5.934a.187.187,0,0,1,.187.187v4.046A.187.187,0,0,1,445.821,451.171Zm-5.747-.374h5.56v-3.672h-5.56Z" transform="translate(-439.7 -446.75)"/>
      </g>
      <g id="Group_3170" data-name="Group 3170" transform="translate(4.249)">
        <line id="Line_122" data-name="Line 122" y2="4.046" transform="translate(0.187 0.187)" fill="#fff"/>
        <path id="Path_882" data-name="Path 882" d="M451.937,451.171a.187.187,0,0,1-.187-.187v-4.046a.187.187,0,0,1,.374,0v4.046A.187.187,0,0,1,451.937,451.171Z" transform="translate(-451.75 -446.75)"/>
      </g>
    </g>
    <g id="Group_3173" data-name="Group 3173" transform="translate(406.836 391.15)">
      <g id="Group_3172" data-name="Group 3172">
        <path id="Path_883" data-name="Path 883" d="M476.529,422.71s.849-.451.849-4.039v-15.26h1.088l-.013,19.3h-1.923Z" transform="translate(-476.529 -403.411)" fill="#cbced0"/>
      </g>
    </g>
    <g id="Group_3174" data-name="Group 3174" transform="translate(397.342 384.868)">
      <path id="Path_884" data-name="Path 884" d="M449.6,385.594s9.736,5.853,9.78,5.853h1.105l-9.912-5.853Z" transform="translate(-449.602 -385.594)" fill="#cbced0"/>
    </g>
    <g id="Group_3175" data-name="Group 3175" transform="translate(389.687 402.385)">
      <rect id="Rectangle_1064" data-name="Rectangle 1064" width="1.367" height="2.522" transform="translate(0.187 0.187)" fill="#005cb1"/>
      <path id="Path_885" data-name="Path 885" d="M429.447,438.17h-1.367a.187.187,0,0,1-.187-.187v-2.522a.187.187,0,0,1,.187-.187h1.367a.187.187,0,0,1,.187.187v2.522A.187.187,0,0,1,429.447,438.17Zm-1.18-.374h.993v-2.147h-.993Z" transform="translate(-427.892 -435.274)"/>
    </g>
    <g id="Group_3176" data-name="Group 3176" transform="translate(395.422 402.385)">
      <rect id="Rectangle_1065" data-name="Rectangle 1065" width="1.367" height="2.522" transform="translate(0.187 0.187)" fill="#005cb1"/>
      <path id="Path_886" data-name="Path 886" d="M445.71,438.17h-1.367a.187.187,0,0,1-.187-.187v-2.522a.187.187,0,0,1,.187-.187h1.367a.187.187,0,0,1,.187.187v2.522A.187.187,0,0,1,445.71,438.17Zm-1.18-.374h.993v-2.147h-.993Z" transform="translate(-444.155 -435.274)"/>
    </g>
    <g id="Group_3177" data-name="Group 3177" transform="translate(395.19 406.431)">
      <rect id="Rectangle_1066" data-name="Rectangle 1066" width="1.367" height="2.522" transform="translate(0.187 0.187)" fill="#005cb1"/>
      <path id="Path_887" data-name="Path 887" d="M445.053,449.646h-1.367a.187.187,0,0,1-.187-.187v-2.522a.187.187,0,0,1,.187-.187h1.367a.187.187,0,0,1,.187.187v2.522A.187.187,0,0,1,445.053,449.646Zm-1.18-.374h.993v-2.148h-.993Z" transform="translate(-443.499 -446.75)"/>
    </g>
    <g id="Group_3178" data-name="Group 3178" transform="translate(389.452 406.431)">
      <rect id="Rectangle_1067" data-name="Rectangle 1067" width="1.367" height="2.522" transform="translate(0.187 0.187)" fill="#005cb1"/>
      <path id="Path_888" data-name="Path 888" d="M428.78,449.646h-1.367a.187.187,0,0,1-.187-.187v-2.522a.187.187,0,0,1,.187-.187h1.367a.187.187,0,0,1,.187.187v2.522A.187.187,0,0,1,428.78,449.646Zm-1.18-.374h.993v-2.148H427.6Z" transform="translate(-427.225 -446.75)"/>
    </g>
    <g id="Group_3179" data-name="Group 3179" transform="translate(386.659 392.752)">
      <path id="Path_889" data-name="Path 889" d="M434.132,408.132l-.29.023c-2.013.165-13.331-.2-13.672,4.051-.227,2.818-.329,13.446-.329,13.446l-.536-.06V408.508l.955-.552" transform="translate(-419.304 -407.956)" fill="#cbced0"/>
    </g>
    <g id="Group_3180" data-name="Group 3180" transform="translate(386.439 392.563)">
      <path id="Path_890" data-name="Path 890" d="M433.694,425.705H418.866a.187.187,0,0,1-.187-.187V408.139a.721.721,0,0,1,.721-.72h13.761a.721.721,0,0,1,.72.72v17.379A.187.187,0,0,1,433.694,425.705Zm-14.641-.374h14.453V408.139a.346.346,0,0,0-.346-.346H419.4a.347.347,0,0,0-.346.346Z" transform="translate(-418.679 -407.419)"/>
    </g>
    <g id="Group_3205" data-name="Group 3205" transform="translate(368.88 398.906)">
      <g id="Group_3181" data-name="Group 3181" transform="translate(9.302 0)">
        <path id="Path_891" data-name="Path 891" d="M411.274,426.735l-1.825-.8H398.092l-2.3.8Z" transform="translate(-395.605 -425.753)" fill="#fff"/>
        <path id="Path_892" data-name="Path 892" d="M410.93,426.579H395.449a.187.187,0,0,1-.061-.364l2.3-.8a.191.191,0,0,1,.061-.01H409.1a.19.19,0,0,1,.075.016l1.825.8a.187.187,0,0,1-.075.359Zm-14.368-.374h13.47l-.966-.421H397.779Z" transform="translate(-395.262 -425.409)"/>
      </g>
      <g id="Group_3182" data-name="Group 3182" transform="translate(15.428 0)">
        <path id="Path_893" data-name="Path 893" d="M413.447,425.94l-.281.8h3.113l-.254-.8Z" transform="translate(-412.979 -425.753)" fill="#005cb1"/>
        <path id="Path_894" data-name="Path 894" d="M415.935,426.579h-3.113a.187.187,0,0,1-.176-.25l.281-.8a.188.188,0,0,1,.177-.125h2.577a.187.187,0,0,1,.178.13l.254.8a.187.187,0,0,1-.178.244Zm-2.848-.374h2.592l-.135-.421h-2.308Z" transform="translate(-412.635 -425.409)"/>
      </g>
      <g id="Group_3204" data-name="Group 3204" transform="translate(0 0.102)">
        <g id="Group_3183" data-name="Group 3183" transform="translate(9.163 0.693)">
          <rect id="Rectangle_1068" data-name="Rectangle 1068" width="15.752" height="12.258" rx="0.727" transform="translate(0.187 0.187)" fill="#fff"/>
          <path id="Path_895" data-name="Path 895" d="M410.551,440.3h-15.24a.444.444,0,0,1-.443-.444V428.108a.444.444,0,0,1,.443-.443h15.24a.444.444,0,0,1,.444.443v11.746A.444.444,0,0,1,410.551,440.3Zm-15.24-12.258a.069.069,0,0,0-.069.069v11.746a.069.069,0,0,0,.069.069h15.24a.069.069,0,0,0,.069-.069V428.108a.069.069,0,0,0-.069-.069Z" transform="translate(-394.868 -427.665)"/>
        </g>
        <g id="Group_3185" data-name="Group 3185" transform="translate(9.35 10.749)">
          <g id="Group_3184" data-name="Group 3184">
            <path id="Path_896" data-name="Path 896" d="M395.4,456.183s.368,1.337,3.3,1.337h12.456l-.24,1.213-15.23-.051-.282-.787Z" transform="translate(-395.399 -456.183)" fill="#cbced0"/>
          </g>
        </g>
        <g id="Group_3186" data-name="Group 3186" transform="translate(15.428 0.693)">
          <path id="Path_897" data-name="Path 897" d="M413.166,428.2V433.1h3.113V428.2Z" transform="translate(-412.979 -428.008)" fill="#005cb1"/>
          <path id="Path_898" data-name="Path 898" d="M415.935,432.945h-3.113a.187.187,0,0,1-.187-.187v-4.906a.187.187,0,0,1,.187-.187h3.113a.187.187,0,0,1,.187.187v4.906A.187.187,0,0,1,415.935,432.945Zm-2.926-.374h2.739v-4.531h-2.739Z" transform="translate(-412.635 -427.665)"/>
        </g>
        <g id="Group_3187" data-name="Group 3187" transform="translate(9.167 0.688)">
          <path id="Path_899" data-name="Path 899" d="M410.561,440.282h-15.24a.444.444,0,0,1-.443-.443V428.094a.444.444,0,0,1,.443-.444h15.24a.444.444,0,0,1,.443.444v11.746A.444.444,0,0,1,410.561,440.282Zm-15.24-12.258a.069.069,0,0,0-.069.069v11.746a.069.069,0,0,0,.069.069h15.24a.069.069,0,0,0,.069-.069V428.094a.069.069,0,0,0-.069-.069Z" transform="translate(-394.878 -427.65)"/>
        </g>
        <g id="Group_3203" data-name="Group 3203">
          <g id="Group_3188" data-name="Group 3188" transform="translate(0.519 0.759)">
            <path id="Path_900" data-name="Path 900" d="M370.884,434.83l2.88-6.3a.307.307,0,0,1,.42-.105l6.355,2.926,1.911,5.1-9.653,3.827-1.914-5.21Z" transform="translate(-370.696 -428.193)" fill="#cbced0"/>
            <path id="Path_901" data-name="Path 901" d="M372.344,440.183l-1.992-5.421v-.316l2.9-6.338a.5.5,0,0,1,.676-.194l6.418,2.955,2,5.348Zm-1.617-5.487,1.837,5,9.3-3.689-1.82-4.86-6.285-2.894a.125.125,0,0,0-.182.033l-2.852,6.245Z" transform="translate(-370.352 -427.85)"/>
          </g>
          <g id="Group_3189" data-name="Group 3189">
            <rect id="Rectangle_1069" data-name="Rectangle 1069" width="8.493" height="8.109" rx="3.79" transform="translate(0 3.158) rotate(-21.83)" fill="#fff"/>
            <path id="Path_902" data-name="Path 902" d="M373.034,436.561a1.526,1.526,0,0,1-1.416-.957l-2.021-5.047a1.525,1.525,0,0,1,.848-1.981l5.4-2.164a1.523,1.523,0,0,1,1.98.848l2.022,5.047a1.525,1.525,0,0,1-.848,1.981l-5.4,2.164A1.519,1.519,0,0,1,373.034,436.561Zm3.38-9.884a1.146,1.146,0,0,0-.427.083l-5.4,2.165a1.148,1.148,0,0,0-.639,1.494l2.021,5.047a1.149,1.149,0,0,0,1.494.639l5.4-2.164a1.149,1.149,0,0,0,.639-1.494L377.48,427.4a1.152,1.152,0,0,0-1.067-.722Z" transform="translate(-369.273 -426.089)"/>
          </g>
          <g id="Group_3190" data-name="Group 3190" transform="translate(0.497 0.444)">
            <path id="Path_903" data-name="Path 903" d="M370.441,430.941s-.076-.824.456-1.13l3.58-1.487,2.239-.881a1.2,1.2,0,0,1,1.466.436l.079.091a1.682,1.682,0,0,0-.488-.783,1.129,1.129,0,0,0-1.253-.079l-5.562,2.258A1.113,1.113,0,0,0,370.441,430.941Z" transform="translate(-370.289 -426.957)" fill="#cbced0"/>
          </g>
          <g id="Group_3191" data-name="Group 3191" transform="translate(2.298 3.08)">
            <path id="Path_904" data-name="Path 904" d="M378.96,435.432l-3.408,1.365-.154-.385,4.94-1.979.154.385-1.532.614" transform="translate(-375.398 -434.434)" fill="#005cb1"/>
          </g>
          <g id="Group_3192" data-name="Group 3192" transform="translate(2.796 4.155)">
            <path id="Path_905" data-name="Path 905" d="M380.372,438.482l-3.408,1.365-.154-.385,4.94-1.979.154.385-1.532.614" transform="translate(-376.81 -437.483)" fill="#005cb1"/>
          </g>
          <g id="Group_3193" data-name="Group 3193" transform="translate(3.262 5.26)">
            <path id="Path_906" data-name="Path 906" d="M381.694,441.616l-3.408,1.365-.154-.385,4.94-1.979.154.385-1.532.614" transform="translate(-378.132 -440.617)" fill="#005cb1"/>
          </g>
          <g id="Group_3194" data-name="Group 3194" transform="translate(1.885 2.933)">
            <path id="Path_907" data-name="Path 907" d="M376.188,434.728l-1.808.724-.154-.385,2.621-1.05.154.385-.813.326" transform="translate(-374.226 -434.018)" fill="#005cb1"/>
          </g>
          <g id="Group_3195" data-name="Group 3195" transform="translate(0.214 0.244)">
            <path id="Path_908" data-name="Path 908" d="M373.034,436.648a1.527,1.527,0,0,1-1.416-.957l-2.021-5.047a1.525,1.525,0,0,1,.848-1.981l5.4-2.164a1.523,1.523,0,0,1,1.98.848l2.022,5.047a1.525,1.525,0,0,1-.848,1.981l-5.4,2.165A1.518,1.518,0,0,1,373.034,436.648Zm3.379-9.885a1.148,1.148,0,0,0-.427.083l-5.4,2.164a1.148,1.148,0,0,0-.639,1.494l2.021,5.047a1.15,1.15,0,0,0,1.494.639l5.4-2.164a1.149,1.149,0,0,0,.639-1.494l-2.021-5.047a1.152,1.152,0,0,0-1.067-.722Z" transform="translate(-369.487 -426.389)"/>
          </g>
          <g id="Group_3196" data-name="Group 3196" transform="translate(0.503 3.705)">
            <path id="Path_909" data-name="Path 909" d="M380.509,436.76l1.984,5.3a.711.711,0,0,1-.417.916l-8.383,3.138a.73.73,0,0,1-.975-.474l-1.866-5.158s-.079-.307.107-.316l6.265,2.97,1.057-2.037,2.034-4.3A.146.146,0,0,1,380.509,436.76Z" transform="translate(-370.649 -436.551)" fill="#fff"/>
            <path id="Path_910" data-name="Path 910" d="M373.07,446.009a.893.893,0,0,1-.374-.081.964.964,0,0,1-.5-.567l-1.866-5.158a.556.556,0,0,1,.043-.445.3.3,0,0,1,.231-.121l.047,0,6.144,2.912.973-1.877,2.049-4.329a.333.333,0,0,1,.435-.087l.06.034,2.008,5.364a.9.9,0,0,1-.526,1.156l-8.383,3.138A.985.985,0,0,1,373.07,446.009Zm-2.385-5.946a.264.264,0,0,0,.006.03l1.861,5.141a.6.6,0,0,0,.3.355.558.558,0,0,0,.431.007l8.383-3.139a.525.525,0,0,0,.307-.675l-1.907-5.094-1.96,4.148-1.143,2.2Z" transform="translate(-370.306 -436.207)"/>
          </g>
          <g id="Group_3197" data-name="Group 3197" transform="translate(3.035 7.206)">
            <path id="Path_911" data-name="Path 911" d="M378.018,452.587l2.565-5.523a.679.679,0,0,1,.785-.372.871.871,0,0,1,.143.054l5.436,2.525-.039.032a.666.666,0,0,1-.127.077c-.043.014-8.438,3.162-8.438,3.162A.826.826,0,0,1,378.018,452.587Z" transform="translate(-377.831 -446.479)" fill="#fff"/>
            <path id="Path_912" data-name="Path 912" d="M377.68,452.43a.2.2,0,0,1-.163-.087.186.186,0,0,1-.012-.179l2.565-5.523a.855.855,0,0,1,1-.474,1.085,1.085,0,0,1,.173.065l5.436,2.524a.187.187,0,0,1,.04.315l-.039.032a.743.743,0,0,1-.188.11c-.115.041-8.347,3.128-8.43,3.159A.965.965,0,0,1,377.68,452.43Zm3.159-5.92a.5.5,0,0,0-.429.29l-2.416,5.2c1.843-.691,7.079-2.654,8.18-3.066l-5.085-2.362a.67.67,0,0,0-.113-.043A.519.519,0,0,0,380.838,446.51Z" transform="translate(-377.487 -446.135)"/>
          </g>
          <g id="Group_3198" data-name="Group 3198" transform="translate(2.718 9.38)">
            <path id="Path_913" data-name="Path 913" d="M377.609,455.59l5.655-2.168,2.8-1.122s.148.494-.548.7l-4.008,1.507-3.8,1.428-.3.117a.613.613,0,0,1-.656-.156.926.926,0,0,1-.163-.319S376.921,455.861,377.609,455.59Z" transform="translate(-376.59 -452.3)" fill="#cbced0"/>
          </g>
          <g id="Group_3199" data-name="Group 3199" transform="translate(3.052 12.415)">
            <rect id="Rectangle_1070" data-name="Rectangle 1070" width="0.903" height="0.374" transform="translate(0 0.819) rotate(-65.072)"/>
          </g>
          <g id="Group_3200" data-name="Group 3200" transform="translate(11.188 9.418)">
            <rect id="Rectangle_1071" data-name="Rectangle 1071" width="0.374" height="0.974" transform="translate(0 0.339) rotate(-65.088)"/>
          </g>
          <g id="Group_3201" data-name="Group 3201" transform="translate(1.91 7.427)">
            <path id="Path_914" data-name="Path 914" d="M374.4,447.02l2.96,1.406.1-.208-3.165-1.457Z" transform="translate(-374.297 -446.762)" fill="#cbced0"/>
          </g>
          <g id="Group_3202" data-name="Group 3202" transform="translate(7.851 4.476)">
            <path id="Path_915" data-name="Path 915" d="M391.147,441.714l1.614-3.323.113.288-1.49,3.138Z" transform="translate(-391.147 -438.392)" fill="#cbced0"/>
          </g>
        </g>
      </g>
    </g>
  </g>
</svg>
