<svg xmlns="http://www.w3.org/2000/svg" xmlns:xlink="http://www.w3.org/1999/xlink" width="80" height="80" viewBox="0 0 80 80"><defs><linearGradient id="a" y1="0.159" x2="0.86" y2="1" gradientUnits="objectBoundingBox"><stop offset="0" stop-color="#c2e4f8"/><stop offset="1" stop-color="#458aba"/></linearGradient></defs><g transform="translate(-855 24494)"><rect width="80" height="80" rx="40" transform="translate(855 -24494)" fill="url(#a)"/><path d="M28.012,6.735,21.87.593a2.017,2.017,0,0,0-2.857,0L12.865,6.742a2.021,2.021,0,0,0,0,2.851l6.148,6.148a2.017,2.017,0,0,0,2.857,0l6.148-6.148a2.023,2.023,0,0,0-.006-2.857Zm-7.571,7.577L14.293,8.164l6.142-6.148,6.148,6.148Zm-6.41,1.556A3.057,3.057,0,0,0,9.28,15.62a3.1,3.1,0,0,0-.159,3.91l1.824,2.507a.552.552,0,0,1-.867.682L6.123,18.044V9.3a3.174,3.174,0,0,0-3.01-3.17A3.052,3.052,0,0,0,0,9.184V20.053a3.065,3.065,0,0,0,.67,1.913l6.825,8.527a3.676,3.676,0,0,1,.644,1.722.51.51,0,0,0,.51.44h1.02a.5.5,0,0,0,.51-.555,5.664,5.664,0,0,0-1.091-2.883L2.264,20.69a1.009,1.009,0,0,1-.223-.638V9.184a1.021,1.021,0,1,1,2.041.045v9.548L8.2,23.72c2.354,2.819,6.174-.172,4.516-2.7a.224.224,0,0,1-.032-.051l-1.952-2.692a1.021,1.021,0,1,1,1.652-1.2l2.7,3.725a6.181,6.181,0,0,1,1.244,3.7v7.654a.512.512,0,0,0,.51.51h1.02a.512.512,0,0,0,.51-.51V24.5a8.177,8.177,0,0,0-1.633-4.9ZM40.82,9.184a3.061,3.061,0,0,0-3.113-3.061,3.174,3.174,0,0,0-3.01,3.17v8.744l-3.954,4.675a.552.552,0,0,1-.867-.682L31.7,19.523a3.1,3.1,0,0,0-.159-3.91,3.06,3.06,0,0,0-4.752.249l-2.7,3.725a8.2,8.2,0,0,0-1.633,4.9v7.654a.512.512,0,0,0,.51.51h1.02a.512.512,0,0,0,.51-.51V24.492a6.181,6.181,0,0,1,1.244-3.7l2.7-3.725a1.021,1.021,0,1,1,1.652,1.2L28.14,20.958a.224.224,0,0,0-.032.051c-1.665,2.532,2.162,5.53,4.516,2.7l4.12-4.943V9.223a1.021,1.021,0,1,1,2.041-.045V20.046a1.009,1.009,0,0,1-.223.638l-6.825,8.527a5.721,5.721,0,0,0-1.091,2.883.5.5,0,0,0,.51.555h1.02a.51.51,0,0,0,.51-.44,3.585,3.585,0,0,1,.644-1.722l6.825-8.527a3.065,3.065,0,0,0,.67-1.913Z" transform="translate(875 -24470)" fill="#fff"/></g></svg>