<svg xmlns="http://www.w3.org/2000/svg" width="13.563" height="13.563" viewBox="0 0 13.563 13.563">
  <path id="Path_1018" data-name="Path 1018" d="M13.453-12.031a.316.316,0,0,1,.232.1.316.316,0,0,1,.1.232v4.375a.316.316,0,0,1-.1.232.316.316,0,0,1-.232.1H9.078a.316.316,0,0,1-.232-.1.316.316,0,0,1-.1-.232V-7.6a.316.316,0,0,1,.1-.232.316.316,0,0,1,.232-.1H12.2a5.722,5.722,0,0,0-2.133-2.311A5.716,5.716,0,0,0,7-11.1a5.7,5.7,0,0,0-2.844.738,5.9,5.9,0,0,0-2.119,2.01,5.715,5.715,0,0,0-.889,2.8.287.287,0,0,1-.1.205.316.316,0,0,1-.232.1H.547a.316.316,0,0,1-.232-.1.351.351,0,0,1-.1-.26A6.836,6.836,0,0,1,1.244-8.832,6.693,6.693,0,0,1,3.691-11.17a6.69,6.69,0,0,1,3.336-.861,6.524,6.524,0,0,1,3.363.916,6.812,6.812,0,0,1,2.461,2.447V-11.7a.316.316,0,0,1,.1-.232.316.316,0,0,1,.232-.1Zm0,6.781a.316.316,0,0,1,.232.1.351.351,0,0,1,.1.26,6.836,6.836,0,0,1-1.025,3.227A6.693,6.693,0,0,1,10.309.67a6.69,6.69,0,0,1-3.336.861A6.524,6.524,0,0,1,3.609.615,6.812,6.812,0,0,1,1.148-1.832V1.2a.327.327,0,0,1-.328.328H.547a.316.316,0,0,1-.232-.1.316.316,0,0,1-.1-.232V-3.172a.316.316,0,0,1,.1-.232.316.316,0,0,1,.232-.1H4.922a.316.316,0,0,1,.232.1.316.316,0,0,1,.1.232V-2.9a.316.316,0,0,1-.1.232.316.316,0,0,1-.232.1H1.8A5.722,5.722,0,0,0,3.938-.26,5.716,5.716,0,0,0,7,.6,5.7,5.7,0,0,0,9.844-.137a5.9,5.9,0,0,0,2.119-2.01,5.715,5.715,0,0,0,.889-2.8.287.287,0,0,1,.1-.205.316.316,0,0,1,.232-.1Z" transform="translate(-0.219 12.031)" fill="#24549d"/>
</svg>
