<svg xmlns="http://www.w3.org/2000/svg" width="30" height="30" viewBox="0 0 30 30">
  <g id="Group_11" data-name="Group 11" transform="translate(-905 -492)">
    <path id="Path_1029" data-name="Path 1029" d="M6.672-12.031a.316.316,0,0,1,.232.1A.316.316,0,0,1,7-11.7v5.25a.316.316,0,0,1-.1.232.316.316,0,0,1-.232.1H1.422a.316.316,0,0,1-.232-.1.316.316,0,0,1-.1-.232v-.766a.316.316,0,0,1,.1-.232.316.316,0,0,1,.232-.1l3.473.082A5.373,5.373,0,0,0,2.926-9.748,5.218,5.218,0,0,0,0-10.609a5.187,5.187,0,0,0-2.68.725A5.432,5.432,0,0,0-4.635-7.93a5.187,5.187,0,0,0-.725,2.68,5.187,5.187,0,0,0,.725,2.68A5.432,5.432,0,0,0-2.68-.615,5.187,5.187,0,0,0,0,.109,5.282,5.282,0,0,0,1.928-.246,5.091,5.091,0,0,0,3.555-1.258.34.34,0,0,1,3.8-1.326a.347.347,0,0,1,.219.1l.547.547a.314.314,0,0,1,.082.232.273.273,0,0,1-.109.232A6.746,6.746,0,0,1,2.461,1.066,6.633,6.633,0,0,1,0,1.531,6.573,6.573,0,0,1-3.391.615,6.886,6.886,0,0,1-5.865-1.846a6.526,6.526,0,0,1-.916-3.391,6.675,6.675,0,0,1,.9-3.4,6.746,6.746,0,0,1,2.461-2.475,6.573,6.573,0,0,1,3.391-.916,6.688,6.688,0,0,1,3.254.82A6.775,6.775,0,0,1,5.66-9L5.578-11.7a.316.316,0,0,1,.1-.232.316.316,0,0,1,.232-.1Z" transform="translate(920 512)" fill="#24549d"/>
    <g id="Rectangle_14" data-name="Rectangle 14" transform="translate(905 492)" fill="none" stroke="#24549d" stroke-width="1">
      <rect width="30" height="30" rx="15" stroke="none"/>
      <rect x="0.5" y="0.5" width="29" height="29" rx="14.5" fill="none"/>
    </g>
  </g>
</svg>
