<svg xmlns="http://www.w3.org/2000/svg" width="13" height="13" viewBox="0 0 13 13"><g id="Group_5259" data-name="Group 5259" transform="translate(-613 -2324)"><rect id="Rectangle_1197" data-name="Rectangle 1197" width="13" height="13" transform="translate(613 2324)" fill="none"/><path id="Path_1029" data-name="Path 1029" d="M5.347-9.977a.307.307,0,0,1,.227-.085.415.415,0,0,1,.255.085l.795.823a.27.27,0,0,1,.114.227.353.353,0,0,1-.114.255L-1.891-.156a.307.307,0,0,1-.227.085.415.415,0,0,1-.255-.085l-3.775-3.8a.27.27,0,0,1-.114-.227.353.353,0,0,1,.114-.255l.795-.795A.353.353,0,0,1-5.1-5.351a.27.27,0,0,1,.227.114l2.753,2.753Z" transform="translate(619.262 2336.063)" fill="#c31126"/></g></svg>