<?xml version="1.0" encoding="utf-8"?>
<!-- Generator: Adobe Illustrator 16.0.0, SVG Export Plug-In . SVG Version: 6.00 Build 0)  -->
<!DOCTYPE svg PUBLIC "-//W3C//DTD SVG 1.1//EN" "http://www.w3.org/Graphics/SVG/1.1/DTD/svg11.dtd">
<svg version="1.1" id="Layer_1" xmlns="http://www.w3.org/2000/svg" xmlns:xlink="http://www.w3.org/1999/xlink" x="0px" y="0px"
	 width="228px" height="228px" viewBox="186 6 228 228" enable-background="new 186 6 228 228" xml:space="preserve">
<g>
	<path fill="#24549D" d="M300,79.68c-22.32,0-40.32,18.24-40.32,40.32c0,22.32,18.24,40.32,40.32,40.32s40.32-18,40.32-40.32
		S322.32,79.68,300,79.68z M300,139.92c-11.04,0-19.92-8.88-19.92-19.92s8.88-19.92,19.92-19.92s19.92,8.88,19.92,19.92
		S311.04,139.92,300,139.92z"/>
	<path fill="#24549D" d="M403.68,109.68H381.6c-4.8-37.2-34.08-66.48-71.279-71.28V16.32C310.32,10.56,305.76,6,300,6
		s-10.32,4.56-10.32,10.32V38.4c-37.2,4.8-66.48,34.08-71.28,71.28h-22.08c-5.76,0-10.32,4.56-10.32,10.32s4.56,10.32,10.32,10.32
		h22.08c4.8,37.2,34.08,66.48,71.28,71.28v22.08c0,5.76,4.56,10.32,10.32,10.32s10.32-4.561,10.32-10.32V201.6
		c37.199-4.8,66.479-34.08,71.279-71.28h22.08c5.761,0,10.32-4.56,10.32-10.32S409.44,109.68,403.68,109.68z M300,181.68
		c-34.08,0-61.68-27.6-61.68-61.68s27.6-61.68,61.68-61.68s61.68,27.6,61.68,61.68S334.08,181.68,300,181.68z"/>
</g>
</svg>
