<svg xmlns="http://www.w3.org/2000/svg" width="54" height="38" viewBox="0 0 54 38"><g transform="translate(11591 -21709)"><rect width="54" height="38" transform="translate(-11591 21709)" fill="none"/><g transform="translate(-11783.352 20817)"><g transform="translate(205.718 912.461)"><path d="M218.933,435.281l2.646-2.5h27.634l2.7,2.69Z" transform="translate(-218.752 -432.595)" fill="#fff"/><path d="M251.529,435.258h0l-32.985-.185a.18.18,0,0,1-.123-.311l2.645-2.505a.182.182,0,0,1,.124-.049h27.634a.18.18,0,0,1,.127.052l2.7,2.69a.181.181,0,0,1-.127.309ZM219,434.714l32.093.18-2.339-2.326H221.262Z" transform="translate(-218.364 -432.207)"/></g><g transform="translate(205.898 919.791)"><ellipse cx="16.968" cy="1.143" rx="16.968" ry="1.143" transform="translate(0)" fill="#ddf1fc"/></g><g transform="translate(206.37 900)"><g transform="translate(10.833 0)"><path d="M273.107,394.417l-2.118-.923H257.807l-2.668.923Z" transform="translate(-254.958 -393.313)" fill="#fff"/><path d="M272.719,394.209H254.75a.181.181,0,0,1-.059-.351l2.669-.923a.187.187,0,0,1,.059-.01H270.6a.182.182,0,0,1,.072.015l2.118.923a.181.181,0,0,1-.072.346Zm-16.895-.361h16.028l-1.29-.562H257.448Z" transform="translate(-254.569 -392.925)"/></g><g transform="translate(17.943 0)"><path d="M277.878,393.494l-.326.923h3.613l-.3-.923Z" transform="translate(-277.371 -393.313)" fill="#005cb1"/><path d="M280.776,394.209h-3.613a.181.181,0,0,1-.17-.241l.326-.923a.18.18,0,0,1,.17-.12h2.992a.181.181,0,0,1,.172.126l.3.923a.18.18,0,0,1-.172.236Zm-3.358-.361h3.111l-.18-.562h-2.732Z" transform="translate(-276.982 -392.925)"/></g><g transform="translate(0 0.082)"><g transform="translate(10.672 0.841)"><rect width="18.284" height="14.228" rx="0.937" transform="translate(0.18 0.181)" fill="#fff"/><path d="M272.228,410.423H254.539a.479.479,0,0,1-.478-.478V396.312a.479.479,0,0,1,.478-.478h17.689a.478.478,0,0,1,.478.478v13.633A.478.478,0,0,1,272.228,410.423ZM254.539,396.2a.117.117,0,0,0-.117.117v13.633a.117.117,0,0,0,.117.117h17.689a.117.117,0,0,0,.117-.117V396.312a.117.117,0,0,0-.117-.117Z" transform="translate(-254.061 -395.834)"/></g><g transform="translate(10.853 12.476)"><path d="M254.63,432.51s.427,1.552,3.826,1.552h14.457l-.279,1.407-17.677-.059-.328-.914Z" transform="translate(-254.63 -432.51)" fill="#cbced0"/></g><g transform="translate(17.943 0.841)"><path d="M277.551,396.4V402.1h3.613V396.4Z" transform="translate(-277.371 -396.223)" fill="#005cb1"/><path d="M280.776,401.889h-3.613a.18.18,0,0,1-.181-.181v-5.694a.181.181,0,0,1,.181-.181h3.613a.18.18,0,0,1,.181.181v5.694A.18.18,0,0,1,280.776,401.889Zm-3.433-.361H280.6V396.2h-3.253Z" transform="translate(-276.982 -395.834)"/></g><g transform="translate(10.682 0.842)"><path d="M272.253,410.412H254.564a.472.472,0,0,1-.472-.472V396.307a.472.472,0,0,1,.472-.472h17.689a.472.472,0,0,1,.472.472V409.94A.472.472,0,0,1,272.253,410.412Zm-17.689-14.227a.123.123,0,0,0-.123.123V409.94a.123.123,0,0,0,.123.123h17.689a.123.123,0,0,0,.123-.123V396.307a.123.123,0,0,0-.123-.123Z" transform="translate(-254.092 -395.835)"/></g><g transform="translate(0 0)"><g transform="translate(0.639 0.917)"><path d="M223,404.128l3.343-7.314a.357.357,0,0,1,.488-.122l7.376,3.4,2.218,5.925-11.2,4.442L223,404.408Z" transform="translate(-222.822 -396.461)" fill="#cbced0"/><path d="M224.73,410.3l-2.3-6.252,0-.352,3.359-7.349a.537.537,0,0,1,.735-.208l7.436,3.424,2.306,6.16Zm-1.935-6.315,2.147,5.843,10.867-4.309-2.13-5.689-7.308-3.365c-.163-.083-.238.017-.257.05l-3.318,7.262Z" transform="translate(-222.433 -396.074)"/></g><rect width="9.857" height="9.412" rx="4.706" transform="translate(0 3.666) rotate(-21.83)" fill="#fff"/><path d="M225.4,405.911a1.734,1.734,0,0,1-1.609-1.087l-2.346-5.858a1.733,1.733,0,0,1,.963-2.251l6.271-2.512a1.731,1.731,0,0,1,2.251.963l2.346,5.858a1.733,1.733,0,0,1-.963,2.251h0l-6.271,2.512A1.719,1.719,0,0,1,225.4,405.911Zm3.922-11.472a1.368,1.368,0,0,0-.509.1l-6.271,2.512a1.373,1.373,0,0,0-.763,1.782l2.347,5.858a1.372,1.372,0,0,0,1.782.762l6.271-2.512h0a1.372,1.372,0,0,0,.763-1.782l-2.346-5.858a1.374,1.374,0,0,0-1.272-.862Z" transform="translate(-221.032 -393.793)"/><g transform="translate(0.565 0.537)"><path d="M222.374,399.449s-.082-.957.537-1.309l4.166-1.7,2.605-1.006a1.4,1.4,0,0,1,1.7.517l.091.106a1.954,1.954,0,0,0-.561-.912,1.312,1.312,0,0,0-1.454-.1l-6.472,2.579A1.292,1.292,0,0,0,222.374,399.449Z" transform="translate(-222.201 -394.875)" fill="#cbced0"/></g><g transform="translate(2.667 3.575)"><path d="M232.962,405.61l-3.955,1.584-.179-.447,5.733-2.3.179.447-1.778.712" transform="translate(-228.827 -404.451)" fill="#005cb1"/></g><g transform="translate(3.245 4.823)"><path d="M234.784,409.545l-3.955,1.584-.179-.447,5.733-2.3.179.447-1.778.712" transform="translate(-230.649 -408.386)" fill="#005cb1"/></g><g transform="translate(3.786 6.106)"><path d="M236.488,413.588l-3.955,1.584-.179-.447,5.733-2.3.179.447-1.778.712" transform="translate(-232.354 -412.429)" fill="#005cb1"/></g><g transform="translate(2.188 3.405)"><path d="M229.593,404.74l-2.1.841-.179-.447,3.043-1.219.179.447-.944.378" transform="translate(-227.315 -403.915)" fill="#005cb1"/></g><g transform="translate(0.285 0.32)"><path d="M225.4,406.025a1.734,1.734,0,0,1-1.609-1.088l-2.346-5.858a1.733,1.733,0,0,1,.963-2.251l6.271-2.512a1.734,1.734,0,0,1,2.251.963l2.346,5.858a1.731,1.731,0,0,1-.963,2.251l-6.271,2.512A1.719,1.719,0,0,1,225.4,406.025Zm3.921-11.472a1.367,1.367,0,0,0-.508.1l-6.271,2.512a1.372,1.372,0,0,0-.763,1.782l2.347,5.858a1.372,1.372,0,0,0,1.782.763l6.271-2.512a1.371,1.371,0,0,0,.762-1.782l-2.346-5.858A1.373,1.373,0,0,0,229.318,394.553Z" transform="translate(-221.317 -394.192)"/></g><g transform="translate(0.62 4.337)"><path d="M234.169,407.451l2.3,6.151a.825.825,0,0,1-.484,1.063l-9.73,3.643a.846.846,0,0,1-1.131-.549l-2.166-5.987s-.091-.356.124-.367l7.272,3.447,1.227-2.365,2.361-5A.17.17,0,0,1,234.169,407.451Z" transform="translate(-222.762 -407.244)" fill="#fff"/><path d="M225.545,418.16a1,1,0,0,1-.419-.091,1.081,1.081,0,0,1-.557-.638l-2.166-5.987a.609.609,0,0,1,.045-.483.31.31,0,0,1,.24-.126l.045,0,7.156,3.392,1.146-2.21L233.41,407a.35.35,0,0,1,.457-.091l.058.032,2.327,6.213a1.008,1.008,0,0,1-.59,1.3l-9.73,3.643A1.1,1.1,0,0,1,225.545,418.16Zm-2.811-6.926a.539.539,0,0,0,.014.1l2.161,5.97a.73.73,0,0,0,.369.433.683.683,0,0,0,.529.009l9.73-3.643a.645.645,0,0,0,.378-.83l-2.244-5.993-2.312,4.893-1.31,2.525Z" transform="translate(-222.373 -406.855)"/></g><g transform="translate(3.559 8.401)"><path d="M232.207,427.1l2.978-6.41a.789.789,0,0,1,.91-.431,1.026,1.026,0,0,1,.166.063l6.309,2.93-.046.037a.767.767,0,0,1-.147.089c-.05.017-9.794,3.67-9.794,3.67A.945.945,0,0,1,232.207,427.1Z" transform="translate(-232.027 -420.053)" fill="#fff"/><path d="M231.824,426.9a.181.181,0,0,1-.169-.257l2.978-6.41a.957.957,0,0,1,1.121-.53,1.218,1.218,0,0,1,.195.073l6.309,2.93a.181.181,0,0,1,.038.3l-.045.037a.851.851,0,0,1-.206.121c-.128.046-9.69,3.631-9.786,3.667A1.1,1.1,0,0,1,231.824,426.9Zm3.665-6.871a.619.619,0,0,0-.529.358l-2.842,6.118h0c2.109-.791,8.575-3.215,9.658-3.62L235.8,420.1a.869.869,0,0,0-.137-.052A.657.657,0,0,0,235.489,420.026Z" transform="translate(-231.638 -419.664)"/></g><g transform="translate(3.119 10.88)"><path d="M231.441,431.31l6.608-2.525,3.278-1.306s.172.574-.641.814L236,430.048l-4.44,1.662-.356.137a.719.719,0,0,1-.766-.179,1.075,1.075,0,0,1-.19-.37S230.638,431.626,231.441,431.31Z" transform="translate(-230.251 -427.479)" fill="#cbced0"/></g><g transform="translate(3.576 14.426)"><rect width="1.048" height="0.361" transform="translate(0 0.951) rotate(-65.103)"/></g><g transform="translate(13.001 10.964)"><rect width="0.361" height="1.131" transform="translate(0 0.328) rotate(-65.091)"/></g><g transform="translate(2.18 8.62)"><path d="M227.419,420.677l3.489,1.654.124-.27-3.742-1.706Z" transform="translate(-227.29 -420.356)" fill="#cbced0"/></g><g transform="translate(9.104 5.129)"><path d="M249.117,413.3l1.89-3.952.16.4-1.74,3.693Z" transform="translate(-249.117 -409.352)" fill="#cbced0"/></g></g></g></g><g transform="translate(205.718 914.973)"><rect width="32.985" height="2.879" transform="translate(0.18 0.181)" fill="#fff"/><path d="M251.529,443.367H218.544a.18.18,0,0,1-.18-.181v-2.879a.181.181,0,0,1,.18-.181h32.985a.181.181,0,0,1,.18.181v2.879A.18.18,0,0,1,251.529,443.367Zm-32.8-.361h32.623v-2.518H218.725Z" transform="translate(-218.364 -440.127)"/></g><g transform="translate(205.898 916.285)"><g transform="translate(0 0)"><path d="M218.975,444.262s.77.938,6.894.938h26.048v.81H218.933l.043-.548Z" transform="translate(-218.933 -444.262)" fill="#cbced0"/></g></g><g transform="translate(205.739 914.973)"><path d="M251.6,443.367H218.612a.18.18,0,0,1-.181-.181v-2.879a.181.181,0,0,1,.181-.181H251.6a.181.181,0,0,1,.18.181v2.879A.18.18,0,0,1,251.6,443.367Zm-32.8-.361h32.624v-2.518H218.792Z" transform="translate(-218.431 -440.127)"/></g><g transform="translate(210.961 916.758)"><circle cx="1.971" cy="1.971" r="1.971" transform="translate(0.18 0.181)" fill="#fff"/><path d="M237.043,450.06a2.151,2.151,0,1,1,2.151-2.151A2.154,2.154,0,0,1,237.043,450.06Zm0-3.941a1.79,1.79,0,1,0,1.79,1.79A1.792,1.792,0,0,0,237.043,446.118Z" transform="translate(-234.892 -445.757)"/></g><g transform="translate(230.516 916.758)"><circle cx="1.971" cy="1.971" r="1.971" transform="translate(0.181 0.181)" fill="#fff"/><path d="M298.684,450.06a2.151,2.151,0,1,1,2.151-2.151A2.154,2.154,0,0,1,298.684,450.06Zm0-3.941a1.79,1.79,0,1,0,1.79,1.79A1.792,1.792,0,0,0,298.684,446.118Z" transform="translate(-296.533 -445.757)"/></g><g transform="translate(202.316 902.473)"><line x1="3.407" y1="12.951" transform="translate(0.175 0.046)" fill="#fff"/><rect width="0.361" height="13.391" transform="translate(0 0.092) rotate(-14.741)"/></g><g transform="translate(198.352 900.6)"><rect width="4.12" height="1.999" rx="1" transform="translate(0.18 0.181)" fill="#fff"/><path d="M199.087,397.177H195.68a.537.537,0,0,1-.537-.537v-1.287a.537.537,0,0,1,.537-.537h3.408a.538.538,0,0,1,.537.537v1.287A.538.538,0,0,1,199.087,397.177Zm-3.408-2a.176.176,0,0,0-.176.175v1.287a.176.176,0,0,0,.176.176h3.408a.176.176,0,0,0,.175-.176v-1.287a.176.176,0,0,0-.175-.175Z" transform="translate(-195.143 -394.817)"/></g><g transform="translate(198.601 900.871)"><path d="M195.925,396.835l2.7-1.162h-2.612l-.087,1.269" transform="translate(-195.925 -395.673)" fill="#cbced0"/></g><g transform="translate(199.793 901.238)"><path d="M202.519,396.947l-2.834,1.382,2.794-.119.034-1.379" transform="translate(-199.685 -396.831)" fill="#cbced0"/></g><g transform="translate(198.352 900.6)"><path d="M199.087,397.177H195.68a.537.537,0,0,1-.537-.537v-1.287a.537.537,0,0,1,.537-.537h3.408a.538.538,0,0,1,.537.537v1.287A.538.538,0,0,1,199.087,397.177Zm-3.408-2a.176.176,0,0,0-.176.175v1.287a.176.176,0,0,0,.176.176h3.408a.176.176,0,0,0,.175-.176v-1.287a.176.176,0,0,0-.175-.175Z" transform="translate(-195.143 -394.817)"/></g></g></g></svg>