<svg xmlns="http://www.w3.org/2000/svg" width="80" height="80" viewBox="0 0 80 80">
  <g id="Group_5258" data-name="Group 5258" transform="translate(-2366 22616)">
    <g id="Group_5257" data-name="Group 5257">
      <g id="Group_5256" data-name="Group 5256">
        <path id="Path_541" data-name="Path 541" d="M253.976,273.92a3.871,3.871,0,1,0-3.871-3.871A3.876,3.876,0,0,0,253.976,273.92Zm0-5.162a1.29,1.29,0,1,1-1.29,1.291A1.293,1.293,0,0,1,253.976,268.758Z" transform="translate(2152.024 -22834.436)" fill="#fff"/>
        <path id="Path_542" data-name="Path 542" d="M273.331,251.984a6.441,6.441,0,0,1-.862,3.225L274.7,256.5a9.032,9.032,0,1,0-15.644,0l2.232-1.293a6.452,6.452,0,1,1,12.042-3.225Z" transform="translate(2152.024 -22834.436)" fill="#fff"/>
        <path id="Path_540" data-name="Path 540" d="M287.524,218.436h-67.1a6.458,6.458,0,0,0-6.451,6.451v46.452a6.459,6.459,0,0,0,6.451,6.452H263.8l.254.763L261,280.588a1.292,1.292,0,0,0-.55,1.326l1.29,6.452a1.312,1.312,0,0,0,.145.387l5.161,9.033a1.293,1.293,0,0,0,1.121.65h14.194a1.29,1.29,0,0,0,1.12-.65l5.161-9.033a1.271,1.271,0,0,0,.171-.64v-7.742a1.3,1.3,0,0,0-.217-.716l-1.244-1.864h.17a6.459,6.459,0,0,0,6.452-6.452V224.887A6.459,6.459,0,0,0,287.524,218.436Zm-24.516,38.709v5.162h-41.29V226.178h64.516v36.129H270.75v-5.162a3.871,3.871,0,0,0-7.742,0Zm23.226,30.625-4.62,8.085h-12.7l-4.685-8.2-1.081-5.4,1.748-1.163.756,2.268,2.448-.817L265.589,275V257.145a1.29,1.29,0,0,1,2.58,0v15.484a1.291,1.291,0,0,0,2.364.717l2.2-3.3h1.2l2.2,3.3a1.294,1.294,0,0,0,1.074.574h1.89l2.2,3.3a1.294,1.294,0,0,0,1.074.574h1.89l1.981,2.972Zm5.161-16.431a3.876,3.876,0,0,1-3.871,3.871h-4.471l-2.2-3.3a1.292,1.292,0,0,0-1.074-.574h-1.89l-2.2-3.3a1.294,1.294,0,0,0-1.074-.574H272.04a1.293,1.293,0,0,0-1.073.574l-.217.325v-3.48h16.774a1.291,1.291,0,0,0,1.291-1.29v-38.71a1.291,1.291,0,0,0-1.291-1.29h-67.1a1.291,1.291,0,0,0-1.29,1.29V263.6a1.291,1.291,0,0,0,1.29,1.29h42.581V275.21H220.427a3.876,3.876,0,0,1-3.87-3.871V224.887a3.876,3.876,0,0,1,3.87-3.871h67.1a3.877,3.877,0,0,1,3.871,3.871Z" transform="translate(2152.024 -22834.436)" fill="#fff"/>
      </g>
    </g>
  </g>
</svg>
