<svg xmlns="http://www.w3.org/2000/svg" width="63.719" height="80" viewBox="0 0 63.719 80">
  <g id="Group_2871" data-name="Group 2871" transform="translate(-490.667 -216.793)">
    <path id="Path_552" data-name="Path 552" d="M511.881,291.783h5.009a1.174,1.174,0,1,0,0-2.349h-5.009a1.174,1.174,0,1,0,0,2.349Z" fill="#fff"/>
    <path id="Path_553" data-name="Path 553" d="M514.542,220.55h-.156a1.174,1.174,0,1,0,0,2.348h.156a1.174,1.174,0,1,0,0-2.348Z" fill="#fff"/>
    <path id="Path_554" data-name="Path 554" d="M519.552,220.55H519.4a1.174,1.174,0,1,0,0,2.348h.157a1.174,1.174,0,1,0,0-2.348Z" fill="#fff"/>
    <path id="Path_555" data-name="Path 555" d="M509.532,220.55h-.156a1.174,1.174,0,1,0,0,2.348h.156a1.174,1.174,0,0,0,0-2.348Z" fill="#fff"/>
    <path id="Path_556" data-name="Path 556" d="M554.378,241.635a1.187,1.187,0,0,0-1.167-1.046H538.1V222.977a6.191,6.191,0,0,0-6.184-6.184H496.851a6.191,6.191,0,0,0-6.184,6.184v67.632a6.191,6.191,0,0,0,6.184,6.184H531.92a6.191,6.191,0,0,0,6.184-6.184V273h15.107a1.175,1.175,0,0,0,1.175-1.174V241.763A1.085,1.085,0,0,0,554.378,241.635Zm-3.891,1.3-17.6,18.636a1.343,1.343,0,0,1-1.935,0l-17.6-18.636Zm-14.732,47.672a3.839,3.839,0,0,1-3.835,3.835H496.851a3.839,3.839,0,0,1-3.835-3.835v-3.836h42.739Zm0-6.184H493.016V226.656h30.763a1.174,1.174,0,0,0,0-2.349H493.016v-1.33a3.84,3.84,0,0,1,3.835-3.836H531.92a3.84,3.84,0,0,1,3.835,3.836v1.33h-6.34a1.174,1.174,0,0,0,0,2.349h6.34v13.933H510.628a1.188,1.188,0,0,0-1.174,1.174v30.059A1.174,1.174,0,0,0,510.628,273h25.127Zm16.282-13.777H511.8V244.717l17.443,18.468a3.679,3.679,0,0,0,5.349,0l17.443-18.469Z" fill="#fff"/>
  </g>
</svg>
