<svg xmlns="http://www.w3.org/2000/svg" width="80" height="80" viewBox="0 0 80 80">
  <g id="Group_2870" data-name="Group 2870" transform="translate(-313.976 -215.855)">
    <path id="Path_543" data-name="Path 543" d="M392.413,242.418h-5.625V234.6a1.562,1.562,0,0,0-1.562-1.562h-5.469V217.418a1.562,1.562,0,0,0-1.562-1.563H329.757a1.562,1.562,0,0,0-1.562,1.563v15.625h-5.469a1.562,1.562,0,0,0-1.563,1.562v7.813h-5.625a1.562,1.562,0,0,0-1.562,1.562v50.313a1.562,1.562,0,0,0,1.562,1.562h76.875a1.562,1.562,0,0,0,1.563-1.562V243.98A1.562,1.562,0,0,0,392.413,242.418ZM331.32,218.98h45.312v17.188H331.32Zm-7.032,17.188H328.2v1.562a1.562,1.562,0,0,0,1.562,1.563H378.2a1.562,1.562,0,0,0,1.562-1.563v-1.562h3.906v6.25H324.288Zm27.657,56.562H342.57V270.855h9.375Zm12.5,0H355.07V270.855h9.375Zm26.406-6.25H378.663a1.563,1.563,0,0,0,0,3.125h12.188v3.125H367.57V269.293a1.563,1.563,0,0,0-1.563-1.563h-25a1.562,1.562,0,0,0-1.562,1.563V292.73H317.1v-3.125h12.187a1.563,1.563,0,1,0,0-3.125H317.1V245.543h73.75Z" fill="#fff"/>
    <path id="Path_544" data-name="Path 544" d="M385.851,267.73h-12.5a1.563,1.563,0,0,0-1.563,1.563v12.5a1.562,1.562,0,0,0,1.563,1.562h12.5a1.562,1.562,0,0,0,1.562-1.562v-12.5A1.562,1.562,0,0,0,385.851,267.73Zm-1.563,12.5h-9.375v-9.375h9.375Z" fill="#fff"/>
    <path id="Path_545" data-name="Path 545" d="M357.726,264.605h28.125a1.562,1.562,0,0,0,1.562-1.562v-12.5a1.562,1.562,0,0,0-1.562-1.563H357.726a1.563,1.563,0,0,0-1.563,1.563v12.5A1.562,1.562,0,0,0,357.726,264.605Zm1.562-12.5h25v9.375h-25Z" fill="#fff"/>
    <path id="Path_546" data-name="Path 546" d="M321.788,264.605h28.125a1.562,1.562,0,0,0,1.563-1.562v-12.5a1.563,1.563,0,0,0-1.563-1.563H321.788a1.562,1.562,0,0,0-1.562,1.563v12.5A1.562,1.562,0,0,0,321.788,264.605Zm1.563-12.5h25v9.375h-25Z" fill="#fff"/>
    <path id="Path_547" data-name="Path 547" d="M321.788,283.355h12.5a1.562,1.562,0,0,0,1.563-1.562v-12.5a1.563,1.563,0,0,0-1.563-1.563h-12.5a1.562,1.562,0,0,0-1.562,1.563v12.5A1.562,1.562,0,0,0,321.788,283.355Zm1.563-12.5h9.375v9.375h-9.375Z" fill="#fff"/>
    <circle id="Ellipse_16" data-name="Ellipse 16" cx="1.563" cy="1.563" r="1.563" transform="translate(370.851 286.48)" fill="#fff"/>
    <circle id="Ellipse_17" data-name="Ellipse 17" cx="1.563" cy="1.563" r="1.563" transform="translate(333.976 286.48)" fill="#fff"/>
    <path id="Path_548" data-name="Path 548" d="M360.551,231.284c.077-.235.078-.435-.2-.435h-.306l-.269.821h.338A.548.548,0,0,0,360.551,231.284Z" fill="#fff"/>
    <path id="Path_549" data-name="Path 549" d="M346.99,223.865c0,.17.058.232.134.232s.2-.1.325-.19c.374-.277.494-.307.494-.43a.259.259,0,0,0-.25-.252.883.883,0,0,0-.406.207C347.206,223.5,346.989,223.635,346.99,223.865Z" fill="#fff"/>
    <path id="Path_550" data-name="Path 550" d="M362.981,232.9c.342,0,.491-.319.732-1.056s.3-1.057-.039-1.057-.491.319-.733,1.057S362.639,232.9,362.981,232.9Z" fill="#fff"/>
    <path id="Path_551" data-name="Path 551" d="M373.872,227.381a.5.5,0,0,0-.305-.021s.016-.011-.663.173a11.724,11.724,0,0,1-2.452.415,2.993,2.993,0,0,1-.344-.018c-.582-.065-.811-.3-.818-.61.075-.032.15-.064.226-.1.984-.438,1.9-1,1.961-1.554a.559.559,0,0,0,0-.058.6.6,0,0,0-.592-.511,1.066,1.066,0,0,0-.115-.006,2.665,2.665,0,0,0-1.984,1.964c-.005.041-.008.082-.009.124a3.925,3.925,0,0,1-1.346.4h-.01c-.06-.006-.171-.066-.169-.168,0-.011,0-.022,0-.034.017-.171.192-.337.461-.566.4-.344.7-.531.731-.762v-.03c0-.227-.168-.3-.317-.348s-.284-.09-.278-.246v-.01c.008-.086.107-.182.121-.295V225.1a.241.241,0,0,0-.219-.253l-.035,0c-.2,0-.409.161-.446.505l0,.022c-.395.3-.722.511-1.442.966a.531.531,0,0,0,.076-.2l0-.031a.23.23,0,0,0-.091-.195c-.045-.036-.075-.053-.075-.092v-.023a.093.093,0,0,1,.029-.062.115.115,0,0,0,.039-.072v-.016a.242.242,0,0,0-.235-.189l-.047,0c-.861,0-3.427,1.506-3.588,1.58a.208.208,0,0,1-.072.023h-.011l.008-.009c.007-.009.02-.021.04-.041a1.827,1.827,0,0,0,.585-.952c0-.026,0-.053,0-.079a.381.381,0,0,0-.379-.411c-.03,0-.063,0-.1,0a1.572,1.572,0,0,0-.609.168,2.382,2.382,0,0,1-.378.163h-.007c-.018,0-.019-.006-.022-.022v-.011a.242.242,0,0,1,.047-.1,5.537,5.537,0,0,0,.592-.926v-.009a.206.206,0,0,0-.2-.216l-.048,0a2.933,2.933,0,0,0-.91.617c-.443.36-1,.829-1.575,1.262a5.169,5.169,0,0,1-1.242.809h-.014c-.042-.006-.066-.024-.068-.09l0-.024a1.356,1.356,0,0,1,.283-.511,1.564,1.564,0,0,0,.282-.439v-.011a.221.221,0,0,0-.172-.195h-.013c-.075,0-.175.024-.361.2a4.642,4.642,0,0,1-1.829,1.2h-.021c-.062-.008-.092-.04-.094-.122a.206.206,0,0,1,0-.035,1.774,1.774,0,0,1,.795-.94,2.284,2.284,0,0,1,1.419-.476,1.007,1.007,0,0,1,.11.018.826.826,0,0,0,.086.015.23.23,0,0,0,.132-.016.12.12,0,0,0,.062-.1l0-.029c0-.1-.139-.234-.486-.274a1.918,1.918,0,0,0-.194-.009,4.48,4.48,0,0,0-2.458,1.207c-.253.173-.727.462-1.461.909a4.793,4.793,0,0,0,.538-1.337.485.485,0,0,0,0-.064c0-.123-.031-.253-.144-.269h-.017a.209.209,0,0,0-.176.083,9.27,9.27,0,0,1-.721.775,3.08,3.08,0,0,1-1.309.833h-.016c-.059-.007-.082-.046-.084-.1a.262.262,0,0,1,0-.028c.027-.271.489-.748,1.05-1.126a2.769,2.769,0,0,1,1.719-.57c.079.006.136-.029.144-.083v-.007a.162.162,0,0,0-.087-.14.989.989,0,0,0-.416-.127,1.724,1.724,0,0,0-.188-.009,4.413,4.413,0,0,0-2.141.819c-.218.118-.659.4-1.076.642a3.917,3.917,0,0,1-.917.461h-.021c-.043-.008-.049-.016-.052-.064v-.019a1.547,1.547,0,0,1,.283-.51,1.539,1.539,0,0,0,.292-.532v-.025a.334.334,0,0,0-.317-.326.3.3,0,0,0-.052,0,2.434,2.434,0,0,0-.833.382c-.153.091-.341.209-.5.305l-.2.119c-.026.015-.049.026-.065.034l-.02.009-.005,0h-.006c-.018,0-.018-.005-.02-.023v-.005c0-.035.053-.092.114-.161.432-.51.593-.729.619-.962a.554.554,0,0,0,0-.07.24.24,0,0,0-.247-.252c-.022,0-.045,0-.07,0a5.09,5.09,0,0,0-1.784.816c-.312.191-.7.444-1.024.65a2.945,2.945,0,0,1-.663.36h-.005a.03.03,0,0,1-.03-.035v0a.809.809,0,0,1,.211-.268c.377-.383,1.119-1,1.162-1.356l0-.028a.268.268,0,0,0-.238-.262h-.025a13.573,13.573,0,0,0-2.226.794c-.415.171-.845.355-1.252.533a10.777,10.777,0,0,1-.089-1.2,1.71,1.71,0,0,1,.011-.2,2.01,2.01,0,0,1,.081-.386c1.013-.638,1.964-1.241,2.737-1.765,1.117-.761,1.864-1.345,1.906-1.674l0-.023a.378.378,0,0,0-.387-.378.585.585,0,0,0-.1,0c-.993.006-4.217,1.809-4.844,3.873-.756.473-1.6,1-2.513,1.577a35.86,35.86,0,0,0-3.589,2.577c-1.142.954-2.04,1.894-2.114,2.547a.77.77,0,0,0,0,.082.581.581,0,0,0,.536.6.721.721,0,0,0,.081,0,.9.9,0,0,0,.654-.317.325.325,0,0,0,.056-.123v-.012a.071.071,0,0,0-.063-.075.179.179,0,0,0-.119.047.513.513,0,0,1-.318.131h-.016a.16.16,0,0,1-.138-.175.469.469,0,0,1,0-.064c.067-.637,1.178-1.757,2.573-2.9a47,47,0,0,1,4.276-3.07c.2-.127.4-.253.6-.377a1.856,1.856,0,0,0-.011.224,8.461,8.461,0,0,0,.093,1.387c-.348.159-.653.3-.881.422-.614.317-1.634.835-2.513,1.394s-1.621,1.153-1.678,1.646a.348.348,0,0,0,0,.056c0,.461.533.782,1.16.851a2.213,2.213,0,0,0,.259.014c1.814-.005,4.146-1.309,4.375-3.374a2.87,2.87,0,0,0,.017-.336c0-.246-.007-.45-.018-.629a17.2,17.2,0,0,1,2.761-1.111h.015c.033.006.049.013.052.066h0v0a1.063,1.063,0,0,1-.251.3c-.447.451-1.33,1.21-1.38,1.625v.033a.352.352,0,0,0,.274.341h.021c.334-.005.884-.565,2.83-1.8a2.918,2.918,0,0,1,1-.518h.017c.039.006.064.018.065.063v.014a3.3,3.3,0,0,1-.673.922,2.875,2.875,0,0,0-.7,1.045c0,.011,0,.023,0,.034a.228.228,0,0,0,.186.218h.018c.092,0,.234-.116.449-.291s.492-.414.826-.67a3.519,3.519,0,0,1,1.171-.707h.013c.03.005.034.014.036.037v.011a2.294,2.294,0,0,1-.363.6,1.985,1.985,0,0,0-.383.739.32.32,0,0,0,0,.043.206.206,0,0,0,.185.217l.028,0a8.927,8.927,0,0,0,2.324-1.2.175.175,0,0,1,.072-.03h0v0a.147.147,0,0,1-.029.054,1.436,1.436,0,0,0-.327.679.715.715,0,0,0-.006.093.4.4,0,0,0,.369.433l.059,0a4.077,4.077,0,0,0,1.6-.883.083.083,0,0,1,.043-.021h0c.006,0,0,0,.007.005a.15.15,0,0,1,0,.04v.015a.391.391,0,0,1-.031.109,6.3,6.3,0,0,1-.436.845q-.588.36-1.326.817c-2.048,1.276-4.35,2.934-4.475,4.019a.86.86,0,0,0,0,.087.416.416,0,0,0,.409.438h.007a.746.746,0,0,0,.1.005c.989-.005,2.955-1.5,4.385-3.191a16.268,16.268,0,0,0,1.55-2.239c.618-.4,1.121-.7,1.474-.891a.149.149,0,0,1,.066-.025l.01,0h0c0,.029-.014.075-.02.131a.868.868,0,0,0,0,.092.455.455,0,0,0,.41.5.554.554,0,0,0,.071,0,3.378,3.378,0,0,0,1.438-.663.2.2,0,0,1,.05-.026.206.206,0,0,1-.014.034.511.511,0,0,0-.059.183.551.551,0,0,0,0,.059.354.354,0,0,0,.323.361.347.347,0,0,0,.057,0c.5,0,1.009-.39,2-1.167l.959-.744a2.859,2.859,0,0,1,.506-.328s.147-.059.031.121l-2.984,3.636H356.17a.824.824,0,0,0-.733.532l-1.29,3.97a.383.383,0,0,0,.387.532H371.4a.821.821,0,0,0,.732-.532l1.29-3.97a.383.383,0,0,0-.387-.532H358.792c-.69.937-1.248,1.7-1.248,1.7-.351.444-.5.586-.712.59h-.025a.424.424,0,0,1-.382-.517,1.029,1.029,0,0,1,.112-.263.646.646,0,0,0-.042.115.317.317,0,0,0,.285.387h.019c.157,0,.27-.11.533-.442,0,0,2.7-3.673,2.863-3.865.75-.934,1.38-1.139,1.567-1.138a.1.1,0,0,1,.024,0c.067.01.093.042.1.119v.027c-.038.372-.867,1.566-1.73,1.476a.194.194,0,0,0-.106.011.093.093,0,0,0-.046.08.16.16,0,0,0,0,.031.312.312,0,0,0,.3.325.317.317,0,0,0,.043,0c.693,0,2.012-.891,3.264-1.479a.363.363,0,0,1,.115-.034h0c.008,0,.008,0,.009.006l0,0c-.017.029-.1.1-.142.154a1.288,1.288,0,0,0-.375.691c0,.029,0,.059,0,.09a.474.474,0,0,0,.439.509c.024,0,.05,0,.075,0,.639-.005,1.806-1.018,2.221-1.3a7.074,7.074,0,0,1,1.5-.886.415.415,0,0,0,.168.13c.058.033.1.059.1.139v.01c-.008.113-.276.313-.551.55a1.522,1.522,0,0,0-.6.866.6.6,0,0,0,0,.074.444.444,0,0,0,.444.454.753.753,0,0,0,.1.005,6.8,6.8,0,0,0,1.733-.462c.149.414.631.679,1.346.757a4.426,4.426,0,0,0,.489.025,9.135,9.135,0,0,0,2.714-.425s.571-.162.6-.35v-.01A.147.147,0,0,0,373.872,227.381Zm-3.863-1.331a1.942,1.942,0,0,1,.876-.521h.018c.041.006.067.021.068.069a.171.171,0,0,1,0,.032c-.027.285-.491.735-1.6,1.28A2.39,2.39,0,0,1,370.009,226.05Zm-25.462-3.541a5.587,5.587,0,0,1,1.927-1.088.075.075,0,0,1,.015,0c.051.008.076.035.078.1v.015c-.01.115-.182.311-.5.566-.56.452-1.57,1.1-2.944,1.967A5.725,5.725,0,0,1,344.547,222.509Zm-2.344,5.236c-.206,1.893-2.162,3.036-3.848,3.04-.078,0-.148,0-.212-.01-.328-.039-.451-.161-.454-.377a.355.355,0,0,1,0-.045c.05-.495,1-1.24,2.04-1.891a28.379,28.379,0,0,1,2.482-1.381c0,.092.007.2.007.32A3.234,3.234,0,0,1,342.2,227.745Zm9.244,2.2a15.524,15.524,0,0,1-2.36,2.368,4.12,4.12,0,0,1-1.443.88h-.021c-.064-.009-.106-.04-.109-.14,0-.011,0-.021,0-.033.055-.55,1.6-2.048,3.331-3.249.534-.371,1.039-.714,1.505-1.024C352.119,229.076,351.824,229.47,351.447,229.941Zm17.779.944.157-.478h1.959l-.157.478h-.676l-.786,2.4h-.608l.787-2.4Zm-3.581,1.511h.607c-.089.275-.153.506.181.506a.429.429,0,0,0,.412-.327c.17-.518-1.042-.55-.761-1.407a1.14,1.14,0,0,1,1.223-.809c.591,0,.8.263.561.865h-.592c.071-.215.107-.435-.139-.435a.416.416,0,0,0-.414.307c-.179.547,1.059.5.763,1.4a1.182,1.182,0,0,1-1.287.833C365.447,233.332,365.45,232.894,365.645,232.4Zm-3.319-.55c.25-.762.487-1.487,1.489-1.487s.764.725.514,1.487-.487,1.486-1.489,1.486S362.079,232.6,362.326,231.846Zm-2.738-1.439h1.094c.555,0,.662.335.49.861a1.1,1.1,0,0,1-1.086.845h-.45l-.385,1.172h-.607Zm5.913-4.244a1.808,1.808,0,0,1-.63.841,1.9,1.9,0,0,1-.947.519h-.012a.107.107,0,0,1-.093-.106v-.023a2.849,2.849,0,0,1,1.546-1.39h.019a.127.127,0,0,1,.117.131Z" fill="#fff"/>
  </g>
</svg>
