<svg xmlns="http://www.w3.org/2000/svg" width="206.426" height="88.133" viewBox="0 0 206.426 88.133">
  <g id="_3" data-name="3" transform="translate(-267.266 -493.998)" opacity="0.596">
    <path id="Path_390" data-name="Path 390" d="M328.028,565.3c.162.023.416.048.83.071C328.577,565.352,328.307,565.319,328.028,565.3Z" transform="translate(-11.985 -14.064)" fill="#ebdfdf"/>
    <path id="Path_391" data-name="Path 391" d="M329.571,526.839c.016.013.031.026.049.038.892.027,1.016-.03,1.094-.069l-.091,0-.118.015.016-.022C329.823,526.761,329.693,526.765,329.571,526.839Z" transform="translate(-12.29 -6.465)" fill="#ebdfdf"/>
    <path id="Path_392" data-name="Path 392" d="M330.342,565.245c.787.025,1.506.075.059-.026l-.134.012A.729.729,0,0,1,330.342,565.245Z" transform="translate(-12.427 -14.048)" fill="#ebdfdf"/>
    <path id="Path_393" data-name="Path 393" d="M331.3,526.783c-.217-.017-.256,0-.307.025.1,0,.2.011.317.019C331.308,526.811,331.306,526.8,331.3,526.783Z" transform="translate(-12.571 -6.466)" fill="#ebdfdf"/>
    <path id="Path_394" data-name="Path 394" d="M329.182,603.728c-.533-.028-1.062-.082-1.593-.123C326.816,603.8,326.957,603.693,329.182,603.728Z" transform="translate(-11.815 -21.62)" fill="#ebdfdf"/>
    <path id="Path_395" data-name="Path 395" d="M329.737,603.686c-.116.108.145.108,0,0Z" transform="translate(-12.316 -21.636)" fill="#ebdfdf"/>
    <path id="Path_396" data-name="Path 396" d="M295.733,534.087l0-.013c-1.091-.479-2.158-.978-3.212-1.481-.169.153-.33.31-.478.461-.105-1.684-1.037.321-1.2-.991-.839.047-2.794-.238-1.87,1.583l-.919-.607c-.111.149.088.684.5,1.207,1,.488,2.015.969,3.062,1.441a1.289,1.289,0,0,0-.044-.316,1.482,1.482,0,0,0,.25.412l.244.107c.358-.048.678-.9,1.309-.334a1.557,1.557,0,0,0,.409,1.074c2.463,1.041,5.057,2.013,7.784,2.88a1.131,1.131,0,0,0,.633-.328c1.315-.113-.5-1.722-.608-2.763q-3.015-1.081-5.842-2.336Zm5.219,2.773c.293.447.9.931.1.955l.184-.079a3.967,3.967,0,0,1-.285-.877c-.14-.209-.21-.411-.033-.551A1.813,1.813,0,0,0,300.953,536.86Z" transform="translate(-4.096 -7.508)" fill="#ebdfdf"/>
    <path id="Path_397" data-name="Path 397" d="M332.574,595.664c-.149-1.245.663-2.024.474-3.147a40.76,40.76,0,0,1-14.481,3.045,73.829,73.829,0,0,1-22.611-4.65c-.087.357-.17.6-.5.158a3.2,3.2,0,0,1,0-.336c-7.592-2.751-14.6-6.192-21.238-9.034.8-1.025-.846-1.707-1.13-2.557a10.952,10.952,0,0,0-1.72-.293c-.379,1-.882.834-.755,2.82,1.3.253,1.064-.508,2.186-.168l-.483,1.095c.436.484.964-.98,1.325.072a.728.728,0,0,1,.075.9c.466.235.743.483.676.764,2.806,1.46,5.96,3.079,9.378,4.7.1-.951-1.735-1.662-.742-1.963,1.071.707,2.215.86,3.056,2.027-.258-.75.608-.346,1.073-.605l.269-.731c.038.427-.086.629-.269.731l-.51,1.378.741.69a1.992,1.992,0,0,1-.217.03c8.647,3.844,18.725,7.324,29.262,8.132.2-.05.461-.117.764-.214-.557.392-.365.092.417.086a1.747,1.747,0,0,1,.466.194,1.873,1.873,0,0,1,.66-.273c1.813-.071,3.543-.223,5.211-.437l.106-.787.323.725a53.844,53.844,0,0,0,8.8-1.956Zm-1.039.318c-.408-.668-.36-1.042-.764-1.716l.958.232Z" transform="translate(-0.656 -16.737)" fill="#ebdfdf"/>
    <path id="Path_398" data-name="Path 398" d="M337.709,558.9c-.712.329-.728,1.732-.318,2.408l-1.456-1.574c-.43.734-.606.815-1.373.306l.1-.738a.68.68,0,0,1-.48-.027,45.6,45.6,0,0,1-9.129,1.383,70.938,70.938,0,0,1-17.359-3.283c-.2.461.176,1.576-.59.429l.263.967a.437.437,0,0,1,.072.268l-.072-.268c-.271-.473-1.272-.867-1.373-.083.458.3,1.178,2.394,1.525,1.017.062.515-.433.541-.818.61a70.59,70.59,0,0,0,16.977,3.424c-.153-.023-.22-.046-.226-.067a6.706,6.706,0,0,0,2.1.03c-.059,0-.121,0-.181-.006.035,0,.071-.006.107-.008-.129-.02-.36-.043-.712-.071l.846.059q1.767-.116,3.595-.4a4.791,4.791,0,0,0-.311-1.319c-.113-.133-.23-.28-.344-.437a1.017,1.017,0,0,1,.344.438c.452.529.887.816,1.211.383l-.132-.284c.6.309,1.045.588,1.476.811a72.011,72.011,0,0,0,7.131-1.878l-.847-1.06.712-.34C338.342,559.106,337.864,558.989,337.709,558.9Zm-4.354,2.766c.4-.544-.489-1.334.191-1.485C333.959,560.848,333.888,561.406,333.355,561.661Z" transform="translate(-7.64 -12.5)" fill="#ebdfdf"/>
    <path id="Path_399" data-name="Path 399" d="M288.821,551.6l-1.22-.8c.335,1.167-.31,1.063-.814,1.162q1.2.6,2.432,1.2l-.209-.428c.371-.084,1.023.612,1.523,1.063.2.1.411.191.615.288a.585.585,0,0,0,.047-.3.576.576,0,0,1-.019.316q1.8.849,3.671,1.67l.651-.555.219.5c1.8-.214,4.145.354,4.884-.136l1.349,1.094c-.643-1.248.761-.6,1.391-.914a100.978,100.978,0,0,1-14.12-5.669C289.113,550.622,289.13,551.275,288.821,551.6Z" transform="translate(-3.851 -11.063)" fill="#ebdfdf"/>
    <path id="Path_400" data-name="Path 400" d="M278.026,544.31l-.185-.6c-.079-.055-.165-.112-.242-.167-2.9-1.044-6.473-2.188-5.859-2.677-1.661-.5-3.692-.369-2.578.119.59-.248,1.325.025,1.279.318a.11.11,0,0,1,.046.069c.047.011.083.023.133.031l-.13.03c-.042.307-.788.888-1.15.284a.168.168,0,0,0-.019.006l.654,1.894,1.221.814v.193a33.568,33.568,0,0,1,3.694,1.207l-.161-.467,1.072.71-.242.114c.034.023.074.042.105.064.932.463,1.878.942,2.835,1.427-.316-1.314-1.055-.541-1.739-1.377.605-.811,1.557.831,2.145,1.421.939.425.274-.827.579-.628l.759,1.469,1.4.709a1.046,1.046,0,0,1,.064-.1c.865.975,1.316-1.147,1.579.645.226-.457.065-1.773-.594-1.808.959-.979,1.43,1.752,2.719.787-.136-.832-.656-.824-1.052-1.257a63.321,63.321,0,0,1-6.094-3.543Zm-5.564-.661-1.071-.71.026-.185,1.067.71Z" transform="translate(-0.311 -9.181)" fill="#ebdfdf"/>
    <path id="Path_401" data-name="Path 401" d="M319.349,581.678c.145,1.2,1.109,1.438,1.489,1.768.564.066,1.123.115,1.683.158a1.87,1.87,0,0,0,.035-1.01C321.3,580.75,320.444,582.2,319.349,581.678Z" transform="translate(-10.273 -17.284)" fill="#ebdfdf"/>
    <path id="Path_402" data-name="Path 402" d="M268.583,542.673c.4.121.336-.112.165-.415a1.38,1.38,0,0,0-.228.132Z" transform="translate(-0.247 -9.519)" fill="#ebdfdf"/>
    <path id="Path_403" data-name="Path 403" d="M304.8,560.125c.471.168.938.335,1.416.5l.052-.4C305.416,558.65,305.228,559.662,304.8,560.125Z" transform="translate(-7.405 -12.896)" fill="#ebdfdf"/>
    <path id="Path_404" data-name="Path 404" d="M303.106,559.6c.237.088.475.174.715.26l.056-.436C303.39,559.01,303.152,559.2,303.106,559.6Z" transform="translate(-7.069 -12.859)" fill="#ebdfdf"/>
    <path id="Path_405" data-name="Path 405" d="M278.884,563.829c-.467-.316-.921-.627-1.347-.933a11.2,11.2,0,0,1-2.188-.632,2.694,2.694,0,0,1,.628,1.492c-.482.063-.348,1.068-.562,1.88a1.535,1.535,0,0,1,.292.291c.412.2.837.413,1.258.621a1.28,1.28,0,0,0,.14-.024c-.206-.944.911-.607,1.063-.511a.565.565,0,0,0-.145-.88C278.47,565.347,278.542,564.318,278.884,563.829Zm-1.076,1.146a.927.927,0,0,0,.1.084C277.736,564.954,277.614,564.923,277.809,564.975Z" transform="translate(-1.594 -13.465)" fill="#ebdfdf"/>
    <path id="Path_406" data-name="Path 406" d="M318.9,583.44c.588.094,1.17.163,1.75.234l-1.509-.826A4.347,4.347,0,0,0,318.9,583.44Z" transform="translate(-10.185 -17.526)" fill="#ebdfdf"/>
    <path id="Path_407" data-name="Path 407" d="M289.824,573.567c.3.141.616.28.925.423a7.48,7.48,0,0,1-.257-.742Z" transform="translate(-4.45 -15.632)" fill="#ebdfdf"/>
    <path id="Path_408" data-name="Path 408" d="M287.228,570.558c-1.333-2.5-1.31,1.147-2.1-.386-.518-.028-.532.279-.417.645,1.326.641,2.68,1.29,4.062,1.933l.14-1.082a7.589,7.589,0,0,1,1.833-.89q-1.664-.777-3.209-1.581C287.156,569.492,286.807,569.741,287.228,570.558Z" transform="translate(-3.429 -14.833)" fill="#ebdfdf"/>
    <path id="Path_409" data-name="Path 409" d="M297.973,557.619l-.234-.527a4.506,4.506,0,0,0-.691.138C297.353,557.363,297.666,557.489,297.973,557.619Z" transform="translate(-5.875 -12.445)" fill="#ebdfdf"/>
    <path id="Path_410" data-name="Path 410" d="M367.359,567.593c-.674-.64-1.378-3.156-2.525-2.375l1.622-.944c-.45.914.82,1.349,1.2,1l-.7-1.071c.719.873,1.2-.221.938-.795-.037-.075-.071-.13-.108-.189-.745.309-1.481.619-2.2.931-.193.568-.873,1.375-3.07,2.383l.372.829a1.326,1.326,0,0,0-.852-.616c-.21.091-.43.182-.666.275-.02.011-.039.022-.059.031a1.054,1.054,0,0,0,0,.885l.633.219-.3,1.01.072-.552a1.937,1.937,0,0,0-1.516-1.007c-8.806,4.432-19.944,9.283-30.377,9.635-.348-.006-.7-.019-1.042-.032a.521.521,0,0,1-.419-.014l-.162-.006c.12,1.585.628,1.535,1.751,1.684-.072.541.181.922-.474,1.422.155,0,.21,0,.088-.015.807.036,2.3-.031,1.005-.088a55.187,55.187,0,0,0,5.634-.542,1.393,1.393,0,0,0,.017-.46l.12.439a53.458,53.458,0,0,0,7.393-1.638c.259-.36.539-.616,1.093-.345a55.419,55.419,0,0,0,6.152-2.4,3.011,3.011,0,0,0,.116-.5,1.776,1.776,0,0,1-.45-.342l.456.3c0,.014-.006.023-.006.038a2.977,2.977,0,0,0,.507.21c.158-.076.309-.153.464-.227-.145-.128-.308-.223-.071-.446.783.522.948-.34,1.561-.3a77.087,77.087,0,0,0,7.007-4.145C363.879,569.228,365,568.368,367.359,567.593Zm-3.093-.531.073.654-.869-.975Z" transform="translate(-12.022 -13.654)" fill="#ebdfdf"/>
    <path id="Path_411" data-name="Path 411" d="M452.33,580c1.243.469,1.353-1.036,2.136-1.451-1.795-.747-3.536-1.467-4.839-2.117-.156-.051-.311-.1-.467-.152l-.028.189-.83.053.649-.312c-9.41-3.051-18.234-6.3-29.954-5.318-.79.072-1.579.16-2.366.259-.392.543-.839.92-1.592.5.566.781.942.418,1.478,1.383l-.148,1.124a77.845,77.845,0,0,1,9.279-.2c.266-.322.754-.281.772-.423l-.057.454c.387.022.77.048,1.151.077-.362-.417-.731-.71-.635-1.436l1.826,1.209a.842.842,0,0,1-.14.31,52.409,52.409,0,0,1,17.178,4.7,1.288,1.288,0,0,1,.612.28c.282.129.563.253.848.389.454.15.884.306,1.32.459,0-.011.01-.017.01-.03l0,.033c.271.1.555.191.821.287a11.35,11.35,0,0,1,1.824.091.51.51,0,0,1,.612-.108,1.46,1.46,0,0,1-.612.108,1.194,1.194,0,0,0-.254.492c.559.21,1.113.423,1.658.638.015-.025.031-.043.046-.071a1.1,1.1,0,0,0-.279-.39l.758-.039c.023-.022.044-.039.066-.059C452.939,580.234,452.6,580.374,452.33,580Zm-34.536-6.524c-.278-.39-1.25-.627-.817-1.345C417.433,572.428,418.172,573.119,417.794,573.473Zm8.082-2.5c-.059.258-.162,1.141-.805.255.234-.614.5-.3.805-.255.019-.079.032-.1.055.01A.354.354,0,0,1,425.876,570.978Zm22.54,8.445c.051.033.074.137.091.275A1.663,1.663,0,0,0,448.416,579.422Z" transform="translate(-29.148 -15.132)" fill="#ebdfdf"/>
    <path id="Path_412" data-name="Path 412" d="M490.9,555.634a59.035,59.035,0,0,1-17.247-3.078.82.82,0,0,1-1.168.381,2.221,2.221,0,0,1,.309-.657c-6.122-2.013-12.265-4.669-19.314-7.246a25.491,25.491,0,0,0-5.9-3.217l.119.521-.939-.87c-2.854-1.2-5.977-2.357-8.373-3.352-.684-.235-1.339-.459-1.989-.681l-.261,1.321c-.9-.8-1.017.132-1.93-.472.71-.135.445-.91.283-1.49-3.592-1.2-6.712-2.142-9.713-2.842,0,.035.006.068.013.109l.305.2c-.556.444-.654,1.184-1.291.966l-.618-1.626c-.474.356-.74.16-.949-.2-.234-.044-.47-.079-.706-.121a3.433,3.433,0,0,1,.156.337l-.175-.339c-.891-.157-1.787-.295-2.695-.407-.771.962-1.473.38-2.232-.23-1.113-.092-2.26-.15-3.449-.18-.315.21-.464.611-.128,1.453-1-1.259-2.438-.393-3.35.217l.126-.936c-.387-.625-.957.2-.946.693a.846.846,0,0,1,.16.2l-.158-.1a.544.544,0,0,1,0-.1c-.561-.527-1.451.491-2.078-.469.575.03.666-.531.823-.89-.472.02-.937.036-1.429.064a69.749,69.749,0,0,0-15.341,3.357l.525.983c-.306-.2-.764-.506-.661-.031l-.78-.648a62.461,62.461,0,0,0-13.424,6.073,47.809,47.809,0,0,1-8,2.747.3.3,0,0,1-.193.412l-.145-.326c-.233.059-.457.12-.7.177-.455.262-.925.523-1.4.787.414.372.824.549,1.148.059l-.805,1.081.153.1-1.376,3.155c.528-.214,1.058-.426,1.585-.643a6.843,6.843,0,0,1-.454-.657c1.174,1.187.4-1.756,1.521-.2l-.7.707q1.735-.7,3.465-1.4c-.007-.238.238-.5.637-.77a3.839,3.839,0,0,0,.012-.514l.542.186a26.187,26.187,0,0,1,4.65-1.7,85.861,85.861,0,0,1,23.9-8.654l.03-.232.123.2c.289-.061.579-.115.868-.173-.118-.658.669-.6,1.2-.229,2.125-.381,4.232-.674,6.28-.853,4.027-.563,9.281-.173,15.5,1.164.034-.062.073-.1.125-.1a.9.9,0,0,1,.1.149q3.073.668,6.45,1.646a.453.453,0,0,1,.364-.044c-.007.055,0,.1-.007.148q3.565,1.046,7.426,2.43,2.335.844,4.539,1.67c.454-.958,1.065-1.347,2.584.138l-.352.709c3.575,1.375,6.9,2.751,10.034,4.228,7.554,5.3,18.631,10.315,29.659,10.839.507.064.849.115,1.08.151-.035-.026-.035-.058.045-.094-.312.04,3.539.222,3.27.263,1.638-.1.691-1.092.643-1.885C491.784,556.283,489.9,555.854,490.9,555.634Zm-80.321-20.895.557-.439.409.679Zm4.084-.729-.689-1.059.987.046C414.913,533.372,414.714,533.643,414.661,534.01Zm27.631,7.206-.054-.846.812.135Z" transform="translate(-19.31 -7.588)" fill="#ebdfdf"/>
    <path id="Path_413" data-name="Path 413" d="M516.1,565.176c.137.105.845.136,0,0Z" transform="translate(-49.083 -14.04)" fill="#ebdfdf"/>
    <path id="Path_414" data-name="Path 414" d="M503.845,578.062c-.464-.129-.927-.268-1.392-.406l-.059.427C502.884,578.68,503.377,578.065,503.845,578.062Z" transform="translate(-46.379 -16.501)" fill="#ebdfdf"/>
    <path id="Path_415" data-name="Path 415" d="M519.991,565.4c-.1,0-.21,0-.333,0C519.811,565.4,519.913,565.4,519.991,565.4Z" transform="translate(-49.784 -14.083)" fill="#ebdfdf"/>
    <path id="Path_416" data-name="Path 416" d="M460.992,564.015c-5.6-2.005-9.409-4.792-16.624-6.314a66.229,66.229,0,0,0-24.719-5.9l-.008.046-.835.051.427-.116a64.133,64.133,0,0,0-7.979.2,97.929,97.929,0,0,0-18.731,4.335c0,.3,0,.612-.017.975l-.381-.844-.635.21a5.258,5.258,0,0,1,.047,1.617c-1.722-3.2-.863.823-1.841,1.04a3.316,3.316,0,0,0,1.7.072l.225.655c.279-.11.562-.218.844-.326-.3-.725-.523-1.564.139-1.952a3.091,3.091,0,0,1,.75,1.618q1.079-.4,2.177-.775a1.093,1.093,0,0,1-.306-.525l1.191-.218c.147.482-.3.408-.435.589a67.247,67.247,0,0,1,15.25-3.461,66.182,66.182,0,0,1,31.948,5.436c7.011,1.646,9.351,4.08,12.879,6.3.022-.046.071-.036.162.067.253-.643-.407-.676-.515-1.149l2.643.135a2.9,2.9,0,0,1-.546,1.654l.1.12q1.426.553,2.818,1.1c.053-.521.287-1.161-1.036-1.589a1.639,1.639,0,0,0,.052.841c-.918-.6-.1-.466-.844-1.162l.686-.149c-.258-.58-.714-.881-.49-1.339,1.3,1.589,2.238-1.35,3.508.013l-.158-.218a1,1,0,0,1,.188-.03C462.057,564.687,461.512,564.35,460.992,564.015Zm-24.5-7.668-.183-1.131c.379.86,1.093.521,1.374.919C437.356,556.111,437.081,556.934,436.5,556.347Zm11.4,4.322c-.288-1.052.661-.548.792-.729l-.015-.168c.039.087.038.136.015.168l.12,1.336Z" transform="translate(-24.149 -11.389)" fill="#ebdfdf"/>
    <path id="Path_417" data-name="Path 417" d="M517.441,546.171a.022.022,0,0,0,.014-.022C517.442,546.156,517.438,546.164,517.441,546.171Z" transform="translate(-49.347 -10.287)" fill="#ebdfdf"/>
    <path id="Path_418" data-name="Path 418" d="M520.164,565.391c-.022,0-.052,0-.091,0C520.1,565.394,520.134,565.393,520.164,565.391Z" transform="translate(-49.866 -14.082)" fill="#ebdfdf"/>
    <path id="Path_419" data-name="Path 419" d="M518.543,546.339a3.25,3.25,0,0,1-1.138-.163C517.3,546.243,516.788,546.25,518.543,546.339Z" transform="translate(-49.31 -10.292)" fill="#ebdfdf"/>
    <path id="Path_420" data-name="Path 420" d="M487.616,576.523l.1.041-.026-.058A.437.437,0,0,0,487.616,576.523Z" transform="translate(-43.464 -16.275)" fill="#ebdfdf"/>
    <path id="Path_421" data-name="Path 421" d="M520.221,565.387a.257.257,0,0,1-.035,0A.191.191,0,0,0,520.221,565.387Z" transform="translate(-49.889 -14.081)" fill="#ebdfdf"/>
    <path id="Path_422" data-name="Path 422" d="M491.972,535.489c.2.323.422.564.718.426-.36.336-.734-.068-1.059-.5-8.11-1.775-16.46-5.692-26.716-9.465a6.956,6.956,0,0,0-1.048-1.2,2.831,2.831,0,0,1-1.319-.944q.081,0,.161,0a44.849,44.849,0,0,0-9.507-4.56c-2.128-.856-4.505-1.683-7.016-2.444l-.171.083c-.011-.053-.019-.1-.028-.143a91.126,91.126,0,0,0-15.757-3.29,1,1,0,0,0,.116.214l.291.1c-.118.055-.21.006-.291-.1l-.341-.12a.4.4,0,0,0,0-.116q-1.116-.119-2.213-.2l-.1.2c-.047-.064-.106-.136-.168-.213-1.337-.092-2.647-.138-3.915-.13.246.207.511.362.779.169.136,1.507-1.394.5-.924,2.019.274.385.5-.066.781.315a5.643,5.643,0,0,0-.132.773c.152,0,.309.008.462.01l.079-.108c-.01.038-.027.071-.04.109.181,0,.362.008.543.013l-.635-1.625.786.328-.033,1.3a60.625,60.625,0,0,1,20.358,3.935c.58-.641,1.135-1.535,2.11-1.483.29,1.607.586-.625,1.3.255l.467,1.516c-.847-1.162-1.4-.725-1.83,0l.308.2a4.546,4.546,0,0,1-.368.356q.913.42,1.792.882a57.639,57.639,0,0,1,16.531,6.648c10.2,5.141,20.751,10,32.909,10.873.034.015.047.026.048.037a6.615,6.615,0,0,1,1.49-.127c.1-.034,3.32-.836,2.143-1.474,1.744-1.109-2.631-1.512-3.192-1.634A39.707,39.707,0,0,1,491.972,535.489Z" transform="translate(-30.792 -3.767)" fill="#ebdfdf"/>
    <path id="Path_423" data-name="Path 423" d="M414.443,571.6l.254.669a4.061,4.061,0,0,0,.216-.735C414.756,571.559,414.6,571.579,414.443,571.6Z" transform="translate(-29.031 -15.294)" fill="#ebdfdf"/>
    <path id="Path_424" data-name="Path 424" d="M397.391,517.708c-.128-.293-.276-.382-.231-.754.358.584.861.045.891.633.141-.028.286-.052.428-.077a1.709,1.709,0,0,0,.253-1.138c-.149-.094-.332-.011-.487-.119l.584-.618.053.844c-.075-.657,2.265.484,1.495-1.234l.639,1.436c.1-.742,1.016-.135,1.524-.206-.766-.5-.029-1.03-.133-1.505,1.047.9,1.927-.739,2.767-.79a1.148,1.148,0,0,0-.258-.7,96.737,96.737,0,0,0-23.977,5.87c.1.531.43,1.475-.34.961.2-.1.022-.5-.027-.82-3.168,1.2-6.049,2.448-8.489,3.62-1.7.8-2.74,1.868-4.955,2.777a2.178,2.178,0,0,0,.322.857,3.034,3.034,0,0,0-2.916.694c-.112-.136-.218-.281-.323-.426q-1.127.517-2.24,1.033c.053.376.167.82-.605.732a1.173,1.173,0,0,0,.278.484c.173.051.346.1.519.148.128-.012.229-.023.273.079l-.273-.079a.588.588,0,0,1-.519-.148,5.031,5.031,0,0,1-1.2-.5l-.967.45a1.274,1.274,0,0,1-.008.133,1.682,1.682,0,0,0-.23-.023l-.584.27c-.234.464.095,1.339-1.029,1.152a.757.757,0,0,0,.055.13,5.75,5.75,0,0,0,.857.481.684.684,0,0,1-.857-.481c-.345-.188-.632-.246-.614.307l-.394-.683q-.77.346-1.536.683c0,.077,0,.154.006.23a1.04,1.04,0,0,1,.063.43.971.971,0,0,0,.674.779c.509-.072-.136-1.508.756-.718l-.07.568c-.063,2.982,1.089-.7,2.035.941a2.567,2.567,0,0,0-.157-.375.3.3,0,0,0-.128-.016c.065-.033.1-.017.128.016a1.954,1.954,0,0,1,.722.544c3.326-1.355,6.7-2.849,10.308-4.379-.355-1.115,3.289-2.094,5.322-2.854a78.675,78.675,0,0,1,22.683-8.644C397.431,517.672,397.4,517.66,397.391,517.708ZM359.149,532.97l-.387-.857,1.2-.226C360.469,533.041,359.5,532.8,359.149,532.97Zm1.9-.556c-.33-.009-.434-.494-.693-1.066l.918.612C361.379,532.428,361.229,532.326,361.053,532.415Zm.374-1.571a2.165,2.165,0,0,1-1.126-1.557C360.658,530.333,361.68,530.2,361.428,530.844Z" transform="translate(-17.331 -3.844)" fill="#ebdfdf"/>
    <path id="Path_425" data-name="Path 425" d="M354.929,535.568c-.159.069-.319.14-.477.21l.346.775a.431.431,0,0,0,.267-.354,2.507,2.507,0,0,1-.063-.43C354.981,535.7,354.955,535.635,354.929,535.568Z" transform="translate(-17.197 -8.2)" fill="#ebdfdf"/>
    <path id="Path_426" data-name="Path 426" d="M388.844,558.576c-1.331.455-2.655.926-3.964,1.41.684.856.962,2.14,1.778,3.112q.677-.311,1.381-.617c0-1.267-.358-.768.629-.9a2.021,2.021,0,0,0-.181-.943.13.13,0,0,1-.026-.006l.023,0a1.373,1.373,0,0,1-.157-1.507A2.7,2.7,0,0,0,388.844,558.576Zm-3.609,1.336.838-.056.055.849Z" transform="translate(-23.199 -12.738)" fill="#ebdfdf"/>
    <path id="Path_427" data-name="Path 427" d="M414.081,575.2c.276-.027.554-.051.832-.075A1.451,1.451,0,0,0,414.081,575.2Z" transform="translate(-28.959 -15.997)" fill="#ebdfdf"/>
    <path id="Path_428" data-name="Path 428" d="M402.746,574.666l-.257,1.933c.645-.2,1.293-.385,1.943-.563,0-.085-.009-.161-.006-.256.707-.346,2.456-1,2.809-2.389.334,1.234,1.39-.488,1.785,1.589,1.4-.837-.87-1.245-.5-2.623-.833.161-1.657.335-2.479.519l.4.2-1.191.216-.017-.236q-1.807.42-3.563.9C401.886,574.9,402.192,575.1,402.746,574.666Z" transform="translate(-26.513 -15.456)" fill="#ebdfdf"/>
    <path id="Path_429" data-name="Path 429" d="M422.222,514.307l0-1.19c-.2.006-.409.008-.611.018C421.491,513.689,421.294,514.153,422.222,514.307Z" transform="translate(-30.424 -3.771)" fill="#ebdfdf"/>
    <path id="Path_430" data-name="Path 430" d="M268.265,505.162c.351.58,2.44,1.149,3.893,1.7l-.118-.163c.657.022,1.292.247,1.113-.888l1.276,1.659c.164-2.518,2.269,1.706,4.018,1.046.126.282-1.828,0-1.266.782l.15.1a2.386,2.386,0,0,1-.9.088c1.026.594,2.093,1.2,3.217,1.8l-1.069-1.272.94.425-.335-1.234.461.3.078,1.815a93.918,93.918,0,0,0,15.608,6.729l-.01-.174.236.246a80.965,80.965,0,0,0,20.534,3.785c-.471.006-.824.07.108.194l.035-.268-.034.268c.153.023.345.044.574.068l-.084-.03a1.3,1.3,0,0,1,.009-.169l-.262-.013c.061,0,.119-.012.179-.014l.088,0,0-.01-.008,0h.009c.055-.27.252-.213.5-.038.37-.025.739-.05,1.105-.084l1.321-1.767-.153-.1c.877-1.038,2.966-.312,3.384-1.739a43.676,43.676,0,0,1-5.483.68,61.164,61.164,0,0,1-13.312-1.935l.608.977c-.453-.544-1.474.421-1.737-1.06.231.076.345.023.394-.105a104.868,104.868,0,0,1-25.315-10.654c-.186.63-.207,1.446-1,.646,1.346.29.541-.489.056-1.206-.277-.168-.548-.332-.812-.5-2.005-1.141-5.415-1.966-4.4-2.617-1.329-.785-3.518-.334-1.912.569C267.337,503.895,266.351,504.528,268.265,505.162Zm28.76,12.2.2-.044c-.011.083-.087.082-.2.044l-1.172.262C295.851,516.677,296.647,517.237,297.026,517.364Zm-17.437-8.7-.991-1.26C279.076,507.514,279.97,508.308,279.588,508.662Zm-9.39-4.4-.023.186-.813-.136Z" transform="translate(0 -1.585)" fill="#ebdfdf"/>
    <path id="Path_431" data-name="Path 431" d="M396.88,536.865c-.123.039-.246.08-.368.121C396.721,537.127,396.872,537.2,396.88,536.865Z" transform="translate(-25.494 -8.455)" fill="#ebdfdf"/>
    <path id="Path_432" data-name="Path 432" d="M467.092,582.255c-.285,1.182-2.241-.29-1.711,1.319a5.623,5.623,0,0,0-1.813-1.4,14.164,14.164,0,0,1-1.153,1.015.424.424,0,0,1,.022.055l-.088,0a5.337,5.337,0,0,0-.484.515c.542.214,1.083.429,1.618.646.923-.03,2.175-.3,1.467-.107a1.858,1.858,0,0,1-.247.607c2.653,1.1,5.316,2.26,8.4,3.534q.779.432,1.577.867c.69-.4,1.67-.568,2.092-1.419a1.071,1.071,0,0,0,1.517.328c-2.078-.887-4.127-1.8-6.131-2.709C471.724,584.514,469.616,583.386,467.092,582.255Z" transform="translate(-38.385 -17.392)" fill="#ebdfdf"/>
    <path id="Path_433" data-name="Path 433" d="M336.935,517.622c.92.605,1.676-.1,1.954-.933.075.66.537.971.236,1.974.528-.254.863-.238.528-1.471-.21-.946,1.366-.3,2.183-.165l-.914.605.629.774c.352-.1.7-.194,1.057-.3a.789.789,0,0,0,.011-.768l-.153-.1c.688-.144,2.667-.047,2.129-1.011.544-.51.717.509.979.959l1.1-.367c-.346-.46-.728-.885-1.059-.725l.857-.238.4.9q1.427-.485,2.878-1.013a.847.847,0,0,1-.238-.291,3.253,3.253,0,0,0,1.025-.306,2.445,2.445,0,0,0-.36.442c3.5-1.275,7.132-2.688,11.034-4.1l-.645-.426c.352-.169.785-.892,1.039-.323l-.174.084.315.474c.381-.138.76-.275,1.147-.413l-.092-.362,1.011-.133c0,.06,0,.115.006.173.648-.227,1.3-.454,1.964-.679.8-.785,3.867-1.767,6.381-2.8,8.623-4.156,18.816-8.988,31.594-9.631,5.833-1.244,17.491.747,28.647,5.325a41.99,41.99,0,0,1,5.175,1.709c-.081-.136-.145-.339-.288-.356-.086.06-.16.107-.2.079a.288.288,0,0,1,.2-.079c.2-.137.5-.348.785.124a.976.976,0,0,1-.276.321c1.393.564,2.694,1.162,4.039,1.773.063-.155.127-.313.176-.474-.051-.043-.1-.075-.151-.124l.157.108-.006.015c1.663,1.413,2.624-.785,4.057-.707-2.6-1.785-7.6-3.747-13.048-5.5a71.8,71.8,0,0,0-9.248-3.144c-.045-.008-.087-.011-.133-.019l.384.863c-.793-1.536-.681.15-1.142-.154l-.385-.859.189-.118c-6.368-1.637-13.8-2.756-20-1.974-11.428.733-22.484,4.841-30.934,8.766a1.47,1.47,0,0,1,.131.386.781.781,0,0,1-1.137.089c-.158.075-.317.149-.472.225a10.623,10.623,0,0,1,1.742,1.188c-.886.428.261,1.792-.8,2.3l-.363-1.048c-.428.727-1.343,1.336-2.1.836l.228.752-1.575-.638c-.193-.265.475-1.183.3-1.833-.294.12-.6.237-.906.351l-.039.014a29.834,29.834,0,0,0-3.314,1.3c-9.625,4.163-18.225,8.051-26.695,9.654C337.057,516.9,337.46,517.267,336.935,517.622Zm84.6-20.3c.119-.154.259-.088.387.01.094,0,.179.049.25.209-.065-.041-.154-.135-.25-.209a.541.541,0,0,0-.292.144l.315.516-.809-.128a3.312,3.312,0,0,0,.495-.388Zm-41.9,2.731c.755-.71,2.593,1.719,3.275.357.287,1.607-.86.237-.906,1.827-.719-2.1-1.365.3-2.385-.776A4.528,4.528,0,0,0,379.637,500.057Zm-.551,1.657-.178.082-.333-1.226Zm-10.992,6.455c-.173.09-.5.063-.4.544-.137-1.51-.863.227-1.351-1.1Z" transform="translate(-13.706)" fill="#ebdfdf"/>
    <path id="Path_434" data-name="Path 434" d="M268.694,544.016c.022.248.478.486,1.146.729l-1.337-1.507-.136.024C268.556,543.533,268.872,543.787,268.694,544.016Z" transform="translate(-0.217 -9.713)" fill="#ebdfdf"/>
    <path id="Path_435" data-name="Path 435" d="M306.5,538.445l-.532.256c.818.133.493,1.331,1.353,1.1a6.806,6.806,0,0,0,.415-1.364q-1.286-.4-2.532-.85Z" transform="translate(-7.482 -8.598)" fill="#ebdfdf"/>
    <path id="Path_436" data-name="Path 436" d="M430.616,574.629l.092.2c.217.018.435.033.651.052C431.161,574.717,430.926,574.383,430.616,574.629Z" transform="translate(-32.221 -15.887)" fill="#ebdfdf"/>
    <path id="Path_437" data-name="Path 437" d="M362.843,553.547c-.6.806-1.447-.358-2.076.642l.145-1.114c-1.424-.541-.193,1.484-1.975,1.114l.535.96-.762-.5c-.1.743.339,2.443-.73,1.732l.21.408c1.743-.677,3.494-1.38,5.246-2.087A1.589,1.589,0,0,1,362.843,553.547Z" transform="translate(-17.894 -11.635)" fill="#ebdfdf"/>
    <path id="Path_438" data-name="Path 438" d="M380.881,567.289c.254-.157.505-.314.779-.47a1.085,1.085,0,0,1-.544-.27A1.1,1.1,0,0,1,380.881,567.289Z" transform="translate(-22.411 -14.311)" fill="#ebdfdf"/>
    <path id="Path_439" data-name="Path 439" d="M359.532,595.7c.21-.1.416-.209.622-.314a.127.127,0,0,0-.016-.02,2.12,2.12,0,0,0-.373-.212A.493.493,0,0,0,359.532,595.7Z" transform="translate(-18.197 -19.953)" fill="#ebdfdf"/>
    <path id="Path_440" data-name="Path 440" d="M391.384,576.951c-.128-.285-.765-.5-.385-.859.637.226,1.471.171,1.6-.756a1.154,1.154,0,0,0-.564-.62c-.51.145-1.011.295-1.512.448a1.546,1.546,0,0,1-1.269.389c-.325.1-.641.213-.961.319l.071.087-.547.072a76.777,76.777,0,0,0-12.878,5.573c-2.564,1.02-4.067,2.2-7.9,2.869-3.288,1.375-6.276,2.733-9.1,4,0,.02.01.036.013.056.709-.334,1.166-.031,1.752.564l-.5.064c-.024.19.128.292.279.392l-1.163.031c.4.677.964.232.79,1.536a.43.43,0,0,1,.348.01.825.825,0,0,1,.16-.079c.07.1.143.2.214.291a.1.1,0,0,1,.022.016q1.359-.695,2.648-1.415c-.249-.572-.615-1.324.406-1.153a.857.857,0,0,1,.258.778c1.21-.688,2.381-1.385,3.516-2.079.273-.088.531-.172.78-.255-.364-.5-.69-1.11-.328-1.5,1.528,1.012.985-1.165,2.129-1.013-.124.933-1.184,1.436-1.793,2.245l.155.215c3.12-1.068,4.389-1.931,7.55-2.936,6.742-2.51,12.564-5.269,18.567-7.133A1.79,1.79,0,0,0,391.384,576.951Zm-31.113,14.127-.184-1.128.436.493Zm10.815-6.366c-.238-1.979,1.872-.375,2.3-1.1C372.607,584.5,372.456,585.62,371.087,584.712Z" transform="translate(-17.885 -15.921)" fill="#ebdfdf"/>
    <path id="Path_441" data-name="Path 441" d="M346.751,558.035c.019.017.038.031.061.053-.672.571-.05,1.687.349,2.788q2.171-.7,4.381-1.5a.241.241,0,0,1-.207-.313l.179-.087c-.842-1.16-1.151-1.37-2.035-.937l.266.773a2.784,2.784,0,0,0-2.07-.963l.129.283-.262-.365C347.277,557.859,347.015,557.948,346.751,558.035Z" transform="translate(-15.632 -12.579)" fill="#ebdfdf"/>
    <path id="Path_442" data-name="Path 442" d="M351.107,598.209a4.735,4.735,0,0,0-1.692.316,1.759,1.759,0,0,1,.1,1.1q1.405-.461,2.736-.978a2.246,2.246,0,0,0-1.126-.439.092.092,0,0,1,0,.022Z" transform="translate(-16.204 -20.554)" fill="#ebdfdf"/>
    <path id="Path_443" data-name="Path 443" d="M348.706,595.459c.366.2.675,0,1.366-.02l.9,1.989h.013c.074-.551.325-1.174.976-1.146.1-.74-.487-1.329-.769-1.715l.53-.326C350.7,594.668,349.7,595.077,348.706,595.459Z" transform="translate(-16.064 -19.773)" fill="#ebdfdf"/>
    <path id="Path_444" data-name="Path 444" d="M354.225,559.217a.618.618,0,0,0-.271.1Z" transform="translate(-17.099 -12.864)" fill="#ebdfdf"/>
    <path id="Path_445" data-name="Path 445" d="M379.925,567.738c-.541.151-1.332-.105-1.862.039a3.057,3.057,0,0,1-.215.489c.58-.166,1.232-.331,2-.484C379.874,567.768,379.9,567.754,379.925,567.738Z" transform="translate(-21.812 -14.544)" fill="#ebdfdf"/>
    <path id="Path_446" data-name="Path 446" d="M357.077,557.629a1.073,1.073,0,0,0-.088.453c.2-.076.4-.152.6-.23C357.424,557.666,357.255,557.547,357.077,557.629Z" transform="translate(-17.698 -12.546)" fill="#ebdfdf"/>
    <path id="Path_447" data-name="Path 447" d="M516.168,603.575c-.021-.033,0-.072.089-.116-.206,0-.423,0-.666,0C515.854,603.508,516.038,603.545,516.168,603.575Z" transform="translate(-48.982 -21.591)" fill="#ebdfdf"/>
    <path id="Path_448" data-name="Path 448" d="M517.457,601.132a2.563,2.563,0,0,1,.664-1.51,48.969,48.969,0,0,1-6.156-.522c-.787.983-1.073,3.123-2.913,1.9l.693,1.063c-.052-.011-.1-.006-.155-.013a46.072,46.072,0,0,0,5.523.491,1.234,1.234,0,0,0-.145.056c2.235-.011,2.256-.094,1.773.05C519.139,602.744,519,602.208,517.457,601.132Zm-4.215-.385c-.175.085-.385.355-.817-.132l.917-.611.413,1.884Z" transform="translate(-47.692 -20.731)" fill="#ebdfdf"/>
    <path id="Path_449" data-name="Path 449" d="M522.1,584.143c-.064.007-.116.015-.179.023A.215.215,0,0,0,522.1,584.143Z" transform="translate(-50.231 -17.781)" fill="#ebdfdf"/>
    <path id="Path_450" data-name="Path 450" d="M511.489,578.4a39.982,39.982,0,0,1-4.482-.428.546.546,0,0,1-.088-.006l0-.006c-.543-.081-1.089-.165-1.645-.265a1.245,1.245,0,0,0,0,.19.28.28,0,0,1-.079-.207c-1.9-.345-3.862-.8-5.846-1.353a1.081,1.081,0,0,1,.408.528c-.334-.017-.377.358-.583.626-.018,1.4.917.61,1.076,1.92-.124.935-.608-.4-.917-.6-.654-1.005-2.135-1.3-1.662-2.956-.934-.281-1.868-.574-2.8-.889-.007.021-.02.043-.028.065-.291.08-.531-.085-.772-.339q-.79-.276-1.576-.564l.218.7a2.138,2.138,0,0,1-1.172-1.065l-1.028-.4c-.3.329-.523.329-.958.179a2.052,2.052,0,0,1,.354-.417c-.3-.124-.6-.25-.9-.376-.239.185-.355.486.01,1.048-.92-1.818-2.638-.133-2.949-1.553-.637-.22-.229.459-.147,1.117a.953.953,0,0,0-.946-.423l.148-1.115c-1.17-1.182-.095.743-1.346.113a2.976,2.976,0,0,1,.081-1.548c-1.183-.6-2.307-1.209-3.368-1.826.1.356-.028,1.05.539,1.558-1.352-1.1-1.642,1.134-2.612.892.261.582.612.408.918.607l0,.8c2.037.8,4.017,1.587,5.945,2.338a2.031,2.031,0,0,0-.276-.792l.864-.234.184,1.13c.71-.339,1.315-1.158,2.13-1.019.894,1.844-.044,1.52-.847,1.711,7.7,2.953,14.571,5.241,20.909,5.657.7-.029.582-.01.323.009a16.1,16.1,0,0,0,4.767-.124c-.154-.075.288-.674,2-1.433C513.257,578.658,512.86,577.936,511.489,578.4Zm-28.563-6.237c-.419.332-.456-.11-.641-.48a.454.454,0,0,1-.253-.311.773.773,0,0,1,.253.311C482.634,571.847,483.134,571.532,482.925,572.167Zm.385.86c.021-.186.226-.456-.056-.84l.69,1.061Zm24.556,6.587c-.262-1.8,1.053-1.734,1.926-.747C509.749,580.451,508.573,579.267,507.866,579.614Z" transform="translate(-41.651 -14.706)" fill="#ebdfdf"/>
    <path id="Path_451" data-name="Path 451" d="M273.8,565.5a8.777,8.777,0,0,1,1.178.657C274.607,565.2,274.26,565.387,273.8,565.5Z" transform="translate(-1.289 -14.085)" fill="#ebdfdf"/>
    <path id="Path_452" data-name="Path 452" d="M516.31,603.6c.07.108.572.128,0,0Z" transform="translate(-49.124 -21.62)" fill="#ebdfdf"/>
    <path id="Path_453" data-name="Path 453" d="M410.247,537.633c.193-.039.387-.079.579-.115C410.592,537.277,410.388,537.158,410.247,537.633Z" transform="translate(-28.203 -8.543)" fill="#ebdfdf"/>
    <path id="Path_454" data-name="Path 454" d="M464.029,545.651c.319.122.641.242.956.364l.092-.7C464.827,545.551,464.2,545.36,464.029,545.651Z" transform="translate(-38.812 -10.122)" fill="#ebdfdf"/>
    <path id="Path_455" data-name="Path 455" d="M478.865,511.854a.888.888,0,0,1-.6.023l.123.278c-.946-.413-1.882-.834-2.205.367l-.82-1.354-.759.707c-.383-.863,1.17-.035.354-1.385-1.083-.6-1.617.188-2.277.8,1.237.5,2.58.986,4.115,1.466,7.11,4.793,20.085,10.05,31.828,10.729-1.986-.012-1.438.092,1.689.088,0,.152.534-.182.348.079,2.708-.265,2.363-.8-.38-1.861,2.717-.5,3.155-1.321-1.634-1.214C497.98,520.653,488.378,516.387,478.865,511.854Z" transform="translate(-40.519 -3.211)" fill="#ebdfdf"/>
    <path id="Path_456" data-name="Path 456" d="M466.881,581.829a1.673,1.673,0,0,1-.089-.246c-.288-.124-.576-.248-.868-.37A.837.837,0,0,0,466.881,581.829Z" transform="translate(-39.185 -17.203)" fill="#ebdfdf"/>
    <path id="Path_457" data-name="Path 457" d="M515.849,584.324c-.153,0-.319,0-.5-.006C515.154,584.36,515.578,584.345,515.849,584.324Z" transform="translate(-48.924 -17.816)" fill="#ebdfdf"/>
    <path id="Path_458" data-name="Path 458" d="M327.193,546.238c.029.008.047.011,0,0Z" transform="translate(-11.821 -10.304)" fill="#ebdfdf"/>
    <path id="Path_459" data-name="Path 459" d="M282.935,530.819a3.392,3.392,0,0,0,.38.566q.844.447,1.716.9c.24-.916.846-1.51.21-2.562a1.233,1.233,0,0,0,1.344-.276q-.933-.476-1.851-.95C283.859,528.914,282.891,529.23,282.935,530.819Z" transform="translate(-3.09 -6.804)" fill="#ebdfdf"/>
    <path id="Path_460" data-name="Path 460" d="M349.757,539.3l.175-1.3c-.162-.108-.275-.235-.375-.293q-.7.273-1.406.531C348.786,539.055,349.638,537.948,349.757,539.3Z" transform="translate(-15.955 -8.622)" fill="#ebdfdf"/>
    <path id="Path_461" data-name="Path 461" d="M347.124,538.787a2.3,2.3,0,0,0-2.889.506l.537.959c.588.6.266-2.042,1.189-.219-.07,1.529-1.189.276-1.622.458l-.168.582c-.027-.373.044-.531.168-.582l.126-.44c-1.2-.993-1.7.29-2.391.436a.862.862,0,0,0,.079.244c.1.072.193.146.291.221.4.056.954-.381.831.535a4.267,4.267,0,0,1-.831-.535.366.366,0,0,1-.291-.221c-.489-.37-.921-.649-1.065-.285.106.464.436.479.719.873l-.992-.052.131.291-1.227-.811.232.759c-.571-.38-.649-1.679-1.046-1.972-.191.059-.383.116-.575.173-.346.6-2.257.889-2.568,2.051l-.515-1.151c-.132.5-.56.452-1.073.137-.748.149-1.5.286-2.266.4a.628.628,0,0,0-.079.229l-.14-.191c-1.355.194-2.737.327-4.158.39-1.808-.048-3.55-.193-5.256-.387.026.056.054.113.083.179l-1.023-.169c-.135.12-.316.145-.6-.1l.6.1a.6.6,0,0,0,.09-.1c-.948-.124-1.878-.269-2.8-.431a10.481,10.481,0,0,0,.412,1.935c.153.1.33.01.207-.268l.384.857a4.528,4.528,0,0,0-1.283.224,76.042,76.042,0,0,0,8.846.982,4.315,4.315,0,0,0-1.008.148c-.129,0-.18.011-.177.024a4.669,4.669,0,0,1-.939,0c-.516.076-.074.124.38.144h0c.557.028,1.129.021-.024-.009-.067-.027-.067-.08.759-.1a2.558,2.558,0,0,0,.584-.006l.431,0c-.108-.01-.2-.019-.292-.026a1.445,1.445,0,0,0,.17-.045c2.859.068,1.189,0,.748-.136a64.038,64.038,0,0,0,18.827-3.872.537.537,0,0,1-.233-.188C346.752,540.352,346.849,539.613,347.124,538.787Zm-27.178,3.2c.791.323.719.88,1.151,1.37Zm7.8,1.329c-.789-.324-1.516,1.426-2.079.648,1.625.266.344-2.6,2.174-1.393Zm10.987-1.4c-.386-.859,0-1.212.454-.91C339.139,541.374,339.192,542.209,338.735,541.91Z" transform="translate(-10.075 -8.777)" fill="#ebdfdf"/>
    <path id="Path_462" data-name="Path 462" d="M358.36,539.113c.373-.149.747-.293,1.121-.445A.862.862,0,0,0,358.36,539.113Z" transform="translate(-17.968 -8.8)" fill="#ebdfdf"/>
    <path id="Path_463" data-name="Path 463" d="M346.148,558.3l-.179.056A.154.154,0,0,0,346.148,558.3Z" transform="translate(-15.524 -12.683)" fill="#ebdfdf"/>
    <path id="Path_464" data-name="Path 464" d="M271.671,583.735c.177.052.352.107.526.159l-.019-.165A4.028,4.028,0,0,0,271.671,583.735Z" transform="translate(-0.869 -17.698)" fill="#ebdfdf"/>
    <path id="Path_465" data-name="Path 465" d="M354.428,597.038c.079.655-.844-1.162-1.326-1.286.283.928.113,1.556.307,2.239q1.072-.423,2.1-.878c-.5-.376-1.125-.711-1.616-1.035C353.637,596.718,354.959,596.777,354.428,597.038Z" transform="translate(-16.931 -20.071)" fill="#ebdfdf"/>
  </g>
</svg>
