<svg xmlns="http://www.w3.org/2000/svg" width="16" height="16" viewBox="0 0 16 16">
  <g id="Group_5260" data-name="Group 5260" transform="translate(-883 -2196)">
    <rect id="Rectangle_1198" data-name="Rectangle 1198" width="16" height="16" transform="translate(883 2196)" fill="none"/>
    <path id="Path_1031" data-name="Path 1031" d="M12.375-6.492a.711.711,0,0,1,.48.281.783.783,0,0,1,.164.516A.719.719,0,0,1,12.8-5.2L10.313-2.789,10.9.633a.74.74,0,0,1-.105.527.688.688,0,0,1-.434.316.723.723,0,0,1-.539-.07L6.75-.187,3.68,1.406a.723.723,0,0,1-.539.07.688.688,0,0,1-.434-.316A.74.74,0,0,1,2.6.633l.586-3.422L.7-5.2A.719.719,0,0,1,.48-5.7a.783.783,0,0,1,.164-.516.711.711,0,0,1,.48-.281l3.422-.492L6.07-10.078a.713.713,0,0,1,.41-.375.8.8,0,0,1,.539,0,.713.713,0,0,1,.41.375L8.953-6.984Zm-3.258,3.3,2.344-2.3L8.2-5.953,6.75-8.906,5.3-5.953l-3.258.469,2.344,2.3L3.844.07,6.75-1.477,9.656.07Z" transform="translate(884.25 2208.5)" fill="#fff"/>
  </g>
</svg>
