<svg xmlns="http://www.w3.org/2000/svg" viewBox="0 0 30 30"><g id="Layer_1-2-2" data-name="Layer 1-2"><path class="cls-1" d="M20.87,8.35h0a5.22,5.22,0,0,0-.46-.48,7.74,7.74,0,0,0-10.82,0,5.22,5.22,0,0,0-.46.48A7.71,7.71,0,0,0,7.4,11.78h.68a7.28,7.28,0,0,1,1.57-3h0a8.64,8.64,0,0,0,1.65,1,8.72,8.72,0,0,0-.61,2.06h.65A8.55,8.55,0,0,1,11.92,10a8.39,8.39,0,0,0,2.76.52v1.32h.64V10.46a9.63,9.63,0,0,0,2.76-.52,8.55,8.55,0,0,1,.58,1.84h.68a9.77,9.77,0,0,0-.61-2.06,8.64,8.64,0,0,0,1.65-1,7.28,7.28,0,0,1,1.54,3h.68A7.7,7.7,0,0,0,20.87,8.35Zm-9.28.75a9.49,9.49,0,0,1-1.49-.84,7.21,7.21,0,0,1,3.73-1.85h0A8.8,8.8,0,0,0,11.59,9.1Zm3.09.71a8,8,0,0,1-2.47-.45A8.72,8.72,0,0,1,14.68,6.6Zm.64,0V6.6a9.2,9.2,0,0,1,2.47,2.76A7.44,7.44,0,0,1,15.32,9.81Zm3.08-.68a9,9,0,0,0-2.23-2.69A7,7,0,0,1,19.9,8.26,8.62,8.62,0,0,1,18.4,9.13Z"/><path  d="M22.6,18.22h-.68a7.28,7.28,0,0,1-1.54,3,8.64,8.64,0,0,0-1.65-1,9.77,9.77,0,0,0,.61-2.06h-.68A8.55,8.55,0,0,1,18.08,20a9.63,9.63,0,0,0-2.76-.52V18.22h-.64v1.32a8.39,8.39,0,0,0-2.76.52,8.55,8.55,0,0,1-.58-1.84h-.65a8.72,8.72,0,0,0,.61,2.06,8.64,8.64,0,0,0-1.65,1h0a7.28,7.28,0,0,1-1.57-3H7.4a7.71,7.71,0,0,0,1.73,3.43,5.22,5.22,0,0,0,.46.48,7.74,7.74,0,0,0,10.82,0,5.22,5.22,0,0,0,.46-.48h0A7.82,7.82,0,0,0,22.6,18.22Zm-8.77,5.37h0a7.21,7.21,0,0,1-3.73-1.85,9.49,9.49,0,0,1,1.49-.84A8.8,8.8,0,0,0,13.83,23.59Zm.85-.19a8.72,8.72,0,0,1-2.47-2.76,8,8,0,0,1,2.47-.45Zm3.11-2.76a9.2,9.2,0,0,1-2.47,2.76V20.19A7.44,7.44,0,0,1,17.79,20.64Zm2.11,1.1a7,7,0,0,1-3.73,1.82,9,9,0,0,0,2.23-2.69A8.62,8.62,0,0,1,19.9,21.74Z"/><g><path  d="M8.2,17.06,7.12,13h.55l.62,2.67c.07.28.12.56.17.83.1-.43.17-.68.18-.75L9.42,13h.65l.58,2.06A11.14,11.14,0,0,1,11,16.49c0-.26.11-.55.2-.88L11.81,13h.54l-1.12,4.07h-.52L9.86,14a4.85,4.85,0,0,1-.13-.48q-.06.29-.12.48l-.86,3.1Z"/><path  d="M13.84,17.06,12.76,13h.56l.61,2.67c.07.28.13.56.18.83q.15-.64.18-.75L15.06,13h.65l.58,2.06a9.69,9.69,0,0,1,.32,1.44c.05-.26.12-.55.2-.88L17.45,13H18l-1.11,4.07h-.52L15.5,14c-.07-.26-.11-.42-.13-.48q-.06.29-.12.48l-.86,3.1Z"/><path  d="M19.49,17.06,18.41,13H19l.62,2.67c.07.28.12.56.17.83q.16-.64.18-.75L20.71,13h.65l.58,2.06a11.14,11.14,0,0,1,.32,1.44c0-.26.12-.55.2-.88L23.1,13h.54l-1.12,4.07H22L21.15,14a4.85,4.85,0,0,1-.13-.48q-.06.29-.12.48L20,17.06Z"/></g><path  d="M23.8,18.33H6.2a1.27,1.27,0,0,1-1.27-1.27V13A1.27,1.27,0,0,1,6.2,11.68H23.8A1.27,1.27,0,0,1,25.07,13v4.11A1.27,1.27,0,0,1,23.8,18.33ZM6.2,12.18a.78.78,0,0,0-.77.77v4.11a.78.78,0,0,0,.77.77H23.8a.78.78,0,0,0,.77-.77V13a.78.78,0,0,0-.77-.77Z"/></g></svg>